<svg width="25" height="24" viewBox="0 0 25 24" fill="none" xmlns="http://www.w3.org/2000/svg">
<g id="Clock_fill">
<path id="Ellipse 55" d="M6.46472 3.1363C5.7865 3.31803 5.16807 3.67508 4.67157 4.17157C4.17508 4.66807 3.81803 5.2865 3.6363 5.96472" stroke="black" stroke-width="2" stroke-linecap="square"/>
<path id="Ellipse 56" d="M18.5353 3.1363C19.2135 3.31803 19.8319 3.67508 20.3284 4.17157C20.8249 4.66807 21.182 5.2865 21.3637 5.96472" stroke="black" stroke-width="2" stroke-linecap="square"/>
<path id="Subtract" fill-rule="evenodd" clip-rule="evenodd" d="M12.5 20C16.9183 20 20.5 16.4183 20.5 12C20.5 7.58172 16.9183 4 12.5 4C8.08172 4 4.5 7.58172 4.5 12C4.5 16.4183 8.08172 20 12.5 20ZM13.5 8V7H11.5V8V11.75C11.5 12.4404 12.0596 13 12.75 13H15.5H16.5V11H15.5H13.5V8Z" fill="black"/>
</g>
</svg>
