<svg width="215" height="328" viewBox="0 0 215 328" fill="none" xmlns="http://www.w3.org/2000/svg">
<path d="M180.287 298.167L118.469 271.87C114.707 274.375 105.461 279.061 98.5802 277.773C95.2114 277.143 87.4715 282.029 77.7188 284.981M26.5492 256.843C6.22527 249.33 6.12202 225.18 26.5492 225.18M26.5492 256.843V250.403C32.0274 245.037 61.8477 262.985 86.7527 256.843M26.5492 256.843C42.571 289.489 62.5723 289.567 77.7188 284.981M26.5492 225.18C16.3353 215.52 0.144284 198.99 3.43321 193.517C6.65819 188.15 20.7484 184.93 44.4004 191.907M26.5492 225.18C48.342 235.113 71.3867 258.386 93.8451 242.091M44.4004 191.907C34.545 182.247 18.8067 162.702 23.8593 158.097C36.2228 146.827 72.7768 162.982 74.3885 162.927M44.4004 191.907C49.7622 175.178 66.1885 165.71 74.3885 162.927M44.4004 191.907C43.9043 193.454 43.5029 195.064 43.2115 196.737C56.6502 262.747 105.029 230.01 86.7527 203.713C93.2037 212.479 109.976 225.824 110.405 226.253C110.834 226.683 101.266 221.96 102.879 233.23C99.8813 236.987 96.8685 239.898 93.8451 242.091M74.3885 162.927C121.692 161.317 135.131 191.37 142.119 207.47C162.725 216.951 205.549 236.235 212 237.523M86.7527 256.843C95.4577 254.697 92.8652 280.396 77.7188 284.981M86.7527 256.843C89.8335 252.733 95.5652 244.028 93.8451 242.091M129.758 95.3067C105.68 71.7725 121.977 23.2144 134.699 3C111.584 54.52 124.086 81.9973 129.758 95.3067ZM129.758 95.3067C111.779 151.12 107.284 166.147 106.746 167.757M129.758 95.3067C131.579 94.5797 133.326 93.7806 135.003 92.9158M129.758 95.3067C131.291 95.1416 133.061 94.3134 135.003 92.9158M54.6043 325L65.3552 287.97M135.003 92.9158C168.27 75.7614 174.008 32.7621 177.557 14.8067M135.003 92.9158C148.207 83.4096 169.33 47.5581 177.557 14.8067M177.557 14.8067C177.792 13.6188 178.017 12.5406 178.24 11.5867" stroke="black" stroke-width="5" stroke-linecap="round" stroke-linejoin="round"/>
</svg>
