<svg width="212" height="165" viewBox="0 0 212 165" fill="none" xmlns="http://www.w3.org/2000/svg">
<g id="Hend cheese">
<path id="Vector 66" d="M76.0774 4.74691L78.1193 18.1534C77.29 21.2801 78.3939 27.6707 89.4437 28.22C100.493 28.7693 113.733 30.1064 118.972 30.7063C122.921 31.8983 130.702 36.3807 130.235 44.7749C130.185 45.6701 130.026 46.4983 129.775 47.2639M72.5396 97.2312C75.1901 106.292 79.9785 111.721 86.0582 114.634M86.0582 114.634C94.1681 118.519 104.576 117.928 115.272 115.512C133.052 111.494 132.681 99.7116 131.35 90.9733M86.0582 114.634C86.0582 114.634 99.8601 135.427 96.8329 144.328C93.8058 153.228 88.2767 162.189 69.9432 149.983C68.738 149.181 67.6133 148.272 66.5636 147.272M51.7822 88.0527C51.8919 100.777 51.7797 133.179 66.5636 147.272M66.5636 147.272C66.4293 150.918 64.7996 158.972 59.3551 162.015C53.9106 165.057 45.0746 160.332 41.3372 157.59C39.537 155.929 37.2966 152.633 35.2282 147.494M30.505 85.3672C27.0191 116.29 30.7142 136.28 35.2282 147.494M35.2282 147.494C33.7833 149.136 34.3686 153.713 25.0113 155.828C17.5254 157.519 9.89619 150.505 7.01729 146.787C4.13839 143.069 1.99999 119.724 1.99999 119.724L4.99317 53.4159C6.40727 49.8432 10.3379 41.7071 14.7475 37.7447C20.2595 32.7918 28.3225 29.5269 30.5371 25.6998C32.7517 21.8727 36.82 13.3181 35.8236 2M105.97 85.2202C101.567 88.4848 94.6871 92.3295 89.3121 91.2767C82.6221 89.9664 79.7384 83.1528 79.1328 79.9098C78.502 76.258 77.6385 67.4537 79.2307 61.4505C80.823 55.4474 90.736 52.7451 95.4935 52.1444L102.387 53.4863M105.97 85.2202C107.048 84.4215 107.977 83.6575 108.699 83.0084C112.2 81.87 119.517 79.7583 120.781 80.4186C121.642 80.8679 124.203 80.9389 126.592 82.3353M105.97 85.2202L103.435 71.9542L107.553 69.2399L110.739 66.2757L109.942 63.2492C109.295 62.674 107.871 61.4085 107.353 60.9483C106.836 60.4881 104.458 60.3066 103.334 60.2733C103.189 59.5647 102.891 58.0247 102.861 57.5345C102.831 57.0443 102.699 54.879 102.637 53.8577L102.387 53.4863M102.387 53.4863L114.694 55.8818C119.148 55.6989 127.674 53.6779 129.775 47.2639M126.592 82.3353C128.592 83.5037 130.471 85.6 131.135 89.6223C131.208 90.0632 131.28 90.514 131.35 90.9733M126.592 82.3353C126.682 82.2329 143.462 79.3294 151.84 77.8904L156.419 72.6874C157.779 71.5784 161.307 70.5409 164.532 75.263L207.561 68.3058L210 68.1555L209.891 67.4794M129.775 47.2639L156.703 42.2222C164.797 54.5176 168.752 45.7854 169.718 39.8824L204.572 34.3516L209.891 67.4794M209.891 67.4794C208.821 74.6417 202.548 92.4808 186.025 106.539L180.424 105.038C181.22 103.041 182.196 98.9625 179.727 98.6225C176.641 98.1976 175.384 97.6599 171.763 98.4982C168.866 99.1688 143.614 93.761 131.35 90.9733M149.3 66.359C146.808 69.5747 141.523 69.2987 138.934 66.9978C136.346 64.6968 135.377 60.2629 137.727 57.2305C140.219 54.0148 145.044 53.9026 148.092 56.5917C150.966 59.1277 151.65 63.3267 149.3 66.359ZM182.362 61.5538C186.118 64.8933 191.706 64.9902 195.203 61.3776C198.863 57.5971 198.312 51.3905 194.381 47.8959C190.45 44.4013 184.253 44.6096 180.967 48.7225C177.827 52.6528 178.605 58.2142 182.362 61.5538ZM180.348 88.7426C183.119 91.2059 187.198 91.0924 189.818 88.4666C192.606 85.6716 192.455 80.9587 189.506 78.3365C186.556 75.7144 181.883 76.1401 179.464 79.2629C177.191 82.1966 177.577 86.2792 180.348 88.7426ZM156.133 88.0818C156.798 88.603 157.69 88.2789 158.248 87.6439C158.807 87.0089 159.067 86.027 158.423 85.4803C157.876 85.0164 157.183 85.1859 156.593 85.593C155.782 86.1526 155.357 87.4741 156.133 88.0818ZM169.657 58.9536C170.322 59.4747 171.213 59.1506 171.772 58.5157C172.331 57.8807 172.591 56.8988 171.946 56.3521C171.399 55.8882 170.707 56.0577 170.117 56.4648C169.306 57.0243 168.881 58.3458 169.657 58.9536ZM196.861 78.4993C197.526 79.0205 198.417 78.6964 198.976 78.0614C199.535 77.4265 199.795 76.4445 199.15 75.8978C198.603 75.434 197.911 75.6034 197.321 76.0105C196.51 76.5701 196.085 77.8916 196.861 78.4993ZM121.787 66.8242C122.453 67.3453 123.344 67.0213 123.903 66.3863C124.462 65.7513 124.721 64.7694 124.077 64.2227C123.53 63.7588 122.838 63.9283 122.248 64.3354C121.437 64.8949 121.012 66.2165 121.787 66.8242Z" stroke="black" stroke-width="3" stroke-linecap="round"/>
</g>
</svg>
