<svg width="133" height="104" viewBox="0 0 133 104" fill="none" xmlns="http://www.w3.org/2000/svg">
<g id="Hend cheese">
<path id="Vector 66" d="M85.3522 100.294L84.0814 91.9668C84.5975 90.0248 83.9105 86.0555 77.0332 85.7143C70.1559 85.3731 61.9155 84.5426 58.655 84.17C56.1973 83.4297 51.3546 80.6455 51.6453 75.4317C51.6763 74.8757 51.7754 74.3613 51.9315 73.8858M87.5542 42.8502C85.9045 37.2223 82.9243 33.8505 79.1403 32.0412M79.1403 32.0412C74.0928 29.6278 67.6151 29.9947 60.958 31.4959C49.8918 33.9913 50.1228 41.3096 50.9509 46.7371M79.1403 32.0412C79.1403 32.0412 70.5501 19.1259 72.4342 13.5976C74.3182 8.06929 77.7595 2.50352 89.1701 10.0851C89.9202 10.5835 90.6203 11.1476 91.2735 11.7691M100.473 48.5511C100.405 40.6477 100.475 20.5226 91.2735 11.7691M91.2735 11.7691C91.3571 9.50409 92.3715 4.50167 95.7601 2.61196C99.1487 0.722259 104.648 3.65693 106.974 5.36048C108.095 6.39206 109.489 8.43923 110.776 11.6309M113.716 50.2192C115.886 31.0122 113.586 18.5962 110.776 11.6309M110.776 11.6309C111.676 10.6112 111.311 7.76814 117.135 6.45487C121.794 5.40425 126.543 9.76058 128.335 12.0701C130.126 14.3796 131.457 28.8793 131.457 28.8793L129.594 70.0646C128.714 72.2837 126.268 77.3372 123.523 79.7983C120.093 82.8747 115.074 84.9025 113.696 87.2796C112.318 89.6567 109.786 94.9701 110.406 102M66.7471 50.3104C69.4875 48.2827 73.7697 45.8947 77.1151 46.5486C81.2789 47.3625 83.0737 51.5946 83.4506 53.6088C83.8432 55.877 84.3806 61.3456 83.3896 65.0742C82.3986 68.8029 76.2288 70.4813 73.2678 70.8544L68.9774 70.0209M66.7471 50.3104C66.0766 50.8065 65.4985 51.2811 65.0489 51.6842C62.8701 52.3913 58.3158 53.7029 57.5289 53.2928C56.9934 53.0137 55.3996 52.9696 53.9123 52.1023M66.7471 50.3104L68.3253 58.5502L65.7619 60.2361L63.7794 62.0772L64.2753 63.957C64.678 64.3143 65.5641 65.1003 65.8863 65.3861C66.2085 65.672 67.6882 65.7847 68.3878 65.8054C68.4782 66.2456 68.6637 67.202 68.6823 67.5065C68.7009 67.811 68.7831 69.1559 68.8219 69.7903L68.9774 70.0209M68.9774 70.0209L61.3178 68.533C58.5457 68.6466 53.2391 69.902 51.9315 73.8858M53.9123 52.1023C52.6678 51.3766 51.4979 50.0745 51.0849 47.5762C51.0396 47.3024 50.9944 47.0223 50.9509 46.7371M53.9123 52.1023C53.8562 52.1659 43.4128 53.9693 38.1981 54.8631L35.3484 58.0948C34.5017 58.7836 32.3064 59.428 30.2987 56.495L3.51795 60.8163L2 60.9096L2.06757 61.3295M51.9315 73.8858L35.1719 77.0173C30.1341 69.3804 27.6722 74.8041 27.0711 78.4706L5.37849 81.9059L2.06757 61.3295M2.06757 61.3295C2.73395 56.8809 6.63777 45.8007 16.922 37.0687L20.4077 38.0011C19.9122 39.2414 19.3052 41.7748 20.8418 41.986C22.7625 42.2499 23.5447 42.5839 25.7984 42.0632C27.6013 41.6467 43.3179 45.0056 50.9509 46.7371M39.7793 62.0254C41.3303 60.0282 44.6195 60.1996 46.2305 61.6287C47.8416 63.0579 48.445 65.8119 46.9823 67.6954C45.4312 69.6926 42.4278 69.7624 40.531 68.0921C38.7423 66.517 38.3166 63.9089 39.7793 62.0254ZM19.2019 65.0101C16.8637 62.9358 13.3863 62.8756 11.2094 65.1195C8.93136 67.4676 9.27447 71.3227 11.7213 73.4932C14.168 75.6638 18.0247 75.5344 20.07 72.9798C22.0245 70.5386 21.5401 67.0843 19.2019 65.0101ZM20.4551 48.1226C18.7303 46.5926 16.1917 46.6631 14.5614 48.294C12.826 50.0301 12.9196 52.9573 14.7555 54.586C16.5915 56.2147 19.4996 55.9502 21.0055 54.0106C22.4202 52.1885 22.1798 49.6527 20.4551 48.1226ZM35.5263 48.533C35.1122 48.2093 34.5575 48.4106 34.2097 48.805C33.8619 49.1994 33.7002 49.8093 34.1014 50.1489C34.4418 50.437 34.8726 50.3317 35.2398 50.0789C35.7445 49.7313 36.0091 48.9105 35.5263 48.533ZM27.1093 66.6251C26.6953 66.3014 26.1406 66.5027 25.7928 66.8971C25.445 67.2915 25.2833 67.9014 25.6845 68.241C26.0249 68.5291 26.4557 68.4238 26.8229 68.1709C27.3276 67.8234 27.5922 67.0026 27.1093 66.6251ZM10.1778 54.4849C9.7638 54.1612 9.20904 54.3625 8.86126 54.7569C8.51348 55.1513 8.35176 55.7612 8.75295 56.1007C9.09337 56.3888 9.5242 56.2836 9.89141 56.0307C10.3961 55.6832 10.6607 54.8624 10.1778 54.4849ZM56.9027 61.7365C56.4887 61.4128 55.934 61.6141 55.5862 62.0085C55.2384 62.4029 55.0767 63.0128 55.4779 63.3524C55.8183 63.6405 56.2491 63.5352 56.6163 63.2824C57.121 62.9348 57.3856 62.114 56.9027 61.7365Z" stroke="black" stroke-width="3" stroke-linecap="round"/>
</g>
</svg>
