<svg width="134" height="224" viewBox="0 0 134 224" fill="none" xmlns="http://www.w3.org/2000/svg">
<g id="Patato">
<g id="Patato_2">
<path d="M76.1242 144.937C79.9209 143.535 83.7711 141.355 87.8875 138.103C90.9122 135.713 97.4819 127.456 101.662 115.564C106.254 92.0455 107.376 88.9244 109.752 85.0771C110.843 83.3105 111.989 82.4277 114.125 82.06C116.751 81.6081 120.872 81.9347 128.227 82.355C129.354 82.9561 131.835 81.995 132.054 82.8994C133.398 88.4556 131.725 125.497 126.782 158.572C123.686 179.295 119.305 198.46 113.578 207.352C109.006 214.451 99.0971 218.584 87.1223 220.562L96.5239 217.804C113.578 208.767 112.704 207.352 116.967 195.157C120.345 185.495 109.971 187.644 106.582 185.902C103.87 184.508 95.0299 188.733 90.9485 191.019C86.3206 193.016 74.7252 195.919 65.3673 191.564C53.6698 186.12 49.1876 186.991 47.8758 187.1C46.5639 187.208 37.2716 191.564 32.5707 193.088C27.8699 194.612 22.7318 193.632 21.2013 192.435C19.6708 191.237 11.6903 183.833 8.51997 185.357C7.24757 185.969 7.6454 190.677 8.51997 195.157L12.1276 210.291C5.49705 205.197 2.69229 179.397 1.82088 150.515C1.74372 147.957 1.68171 145.376 1.63355 142.785C2.94626 142.131 12.6742 150.515 12.8928 150.515C31.3682 168.154 27.9792 163.799 33.2267 166.848C38.4741 169.896 50.4995 150.08 59.6825 158.572C67.029 165.367 76.7367 166.92 80.6723 166.848C85.1545 164.997 94.7092 160.511 97.0706 157.375C99.4319 154.239 112.704 153.528 119.044 153.564L126.782 158.572C131.725 125.497 133.398 88.4556 132.054 82.8994C131.835 81.995 129.354 82.9561 128.227 82.355C120.872 81.9347 116.751 81.6081 114.125 82.06C111.989 82.4277 110.843 83.3105 109.752 85.0771C107.376 88.9244 106.254 92.0455 101.662 115.564C97.4819 127.456 90.9122 135.713 87.8875 138.103C83.7711 141.355 79.9209 143.535 76.1242 144.937C73.4833 146.596 70.7168 147.603 68.6469 146.779C66.7457 147.032 64.823 147.14 62.8529 147.14C61.5845 147.14 60.0427 146.946 58.3707 146.606C54.9736 145.915 51.0388 144.619 47.7665 143.111C44.5996 141.027 40.1602 137.785 37.0529 133.486C36.1557 132.245 35.3695 130.916 34.7572 129.501C33.9986 127.748 33.1101 126.28 32.2595 124.383C32.2272 124.312 32.195 124.239 32.1629 124.166L33.9511 110.555L35.5963 98.034C35.4485 103.503 35.6253 110.094 35.9301 116.326C36.2072 121.991 36.6969 129.337 37.0405 133.342C37.0446 133.39 37.0488 133.439 37.0529 133.486C40.1602 137.785 44.5996 141.027 47.7665 143.111C51.0388 144.619 54.9736 145.915 58.3707 146.606L66.1535 87.0369C66.1263 86.3365 66.0981 85.6815 66.0686 85.0771L66.0232 84.206C66.0387 84.4832 66.0538 84.7738 66.0686 85.0771C66.0981 85.6815 66.1263 86.3365 66.1535 87.0369C66.7873 103.38 66.835 146.057 68.6469 146.779C71.1564 146.445 73.6287 145.859 76.1242 144.937C79.7599 142.653 83.1574 139.131 84.1706 137.449L79.5791 56.8766L69.1935 54.0456L71.052 47.1861L80.4537 46.7505C82.2392 47.8757 86.2258 50.6485 87.8875 52.7391C89.5492 54.8296 91.2036 107.035 91.8231 132.876C93.326 130.347 95.7872 126.217 96.7693 124.606C95.8916 125.646 94.6716 125.284 94.1189 124.928L92.9163 95.9652C92.9947 95.5357 93.5208 91.4655 94.0512 86.4968L95.2024 69.1803L98.0545 26.2807L86.7943 18.8767L81.6492 36.189C81.8787 35.4166 83.877 23.5896 84.8909 17.5132L84.8521 17.4854L82.4471 24.4297C82.4521 29.0655 82.3903 32.243 82.2028 31.6159C81.9183 30.6646 82.1037 22.8914 82.3795 15.1157C82.3956 14.6631 82.4119 14.2105 82.4285 13.7593L84.9358 17.2435C84.9211 17.3321 84.9061 17.422 84.8909 17.5132L86.7943 18.8767L98.0545 26.2807L95.2024 69.1803C95.3633 72.9048 94.704 80.3813 94.0512 86.4968L93.552 94.0054L92.9163 95.9652L94.1189 124.928C94.6716 125.284 95.8916 125.646 96.7693 124.606C97.1683 123.952 97.3232 123.713 97.0706 124.166C96.9763 124.335 96.8753 124.481 96.7693 124.606C95.7872 126.217 93.326 130.347 91.8231 132.876C91.2036 107.035 89.5492 54.8296 87.8875 52.7391C86.2258 50.6485 82.2392 47.8757 80.4537 46.7505L71.052 47.1861L69.1935 54.0456L79.5791 56.8766L84.1706 137.449C83.1574 139.131 79.7599 142.653 76.1242 144.937Z" fill="black"/>
<path d="M124.182 49.1459L124.099 52.6845C122.578 51.6918 122.173 51.2837 122.157 51.155C122.152 51.1202 122.176 51.1058 122.215 51.1058C125.057 46.9683 121.668 47.1861 121.668 47.1861C119.263 45.9884 117.383 45.2262 116.858 44.7907C116.858 34.6864 122.543 23.3046 125.385 18.8767C126.259 22.0343 125.385 28.3495 125.385 31.6159C125.385 34.2291 124.583 43.3389 123.526 47.295C123.526 47.295 123.964 47.7305 124.566 48.4927C124.75 48.7249 124.182 49.1459 124.182 49.1459Z" fill="black"/>
<path d="M2.61662 81.5928C1.82378 97.6094 1.22131 120.597 1.63355 142.785M12.1276 210.291C5.49705 205.197 2.69229 179.397 1.82088 150.515C1.74372 147.957 1.68171 145.376 1.63355 142.785M12.1276 210.291L8.51997 195.157C7.6454 190.677 7.24757 185.969 8.51997 185.357C11.6903 183.833 19.6708 191.237 21.2013 192.435C22.7318 193.632 27.8699 194.612 32.5707 193.088C37.2716 191.564 46.5639 187.208 47.8758 187.1C49.1876 186.991 53.6698 186.12 65.3673 191.564C74.7252 195.919 86.3206 193.015 90.9485 191.019C95.0299 188.733 103.87 184.508 106.582 185.902C109.971 187.644 120.345 185.495 116.967 195.157C112.704 207.352 113.578 208.767 96.5239 217.804L87.1223 220.562C99.0971 218.584 109.006 214.451 113.578 207.352C119.305 198.46 123.686 179.295 126.782 158.572M12.1276 210.291C21.6055 217.574 52.5483 223.607 78.2672 221.615M34.7572 129.501C37.4902 135.816 43.6851 140.425 47.7665 143.111C51.0388 144.619 54.9736 145.915 58.3707 146.606M34.7572 129.501C39.458 139.191 47.7665 141.587 45.0334 139.3C42.847 137.471 56.5851 64.9339 63.7274 28.8939M34.7572 129.501C33.9986 127.748 33.1101 126.28 32.2595 124.383M2.72592 81.1573C14.2703 79.0668 24.5174 81.4477 27.9792 83.0083C28.2343 83.6979 28.7882 88.7355 28.9631 103.369C29.1045 115.196 30.5539 120.501 32.1629 124.166M123.417 81.4839L124.182 49.1459C124.182 49.1459 124.75 48.7249 124.566 48.4927C123.964 47.7305 123.526 47.295 123.526 47.295C124.583 43.3389 125.385 34.2291 125.385 31.6159C125.385 28.3495 126.259 22.0343 125.385 18.8767M125.385 18.8767C124.51 15.7191 117.951 15.5014 115.983 15.9369C114.409 16.2853 109.861 28.9302 107.784 35.209V49.1459M125.385 18.8767C122.543 23.3046 116.858 34.6864 116.858 44.7907C117.383 45.2262 119.263 45.9884 121.668 47.1861C121.668 47.1861 125.057 46.9683 122.215 51.1058M122.215 51.1058C119.263 53.6101 118.746 53.9452 116.421 53.2835C113.359 52.4124 107.456 50.8766 108.659 49.3637C109.861 47.8508 116.77 44.8124 116.858 45.3351M122.215 51.1058C122.032 51.1058 122.171 51.4325 124.182 52.7391M114.125 82.06C116.751 81.6081 120.872 81.9347 128.227 82.355C129.354 82.9561 131.835 81.995 132.054 82.8994C133.398 88.4556 131.725 125.497 126.782 158.572M114.125 82.06C111.989 82.4277 110.843 83.3105 109.752 85.0771C107.376 88.9244 106.254 92.0455 101.662 115.564C97.4819 127.456 90.9122 135.713 87.8875 138.103C79.0157 145.112 71.38 147.14 62.8529 147.14C61.5845 147.14 60.0427 146.946 58.3707 146.606M114.125 82.06L116.53 53.3923M107.784 50.1259L92.9163 95.9653M92.9163 95.9653L94.1189 124.928C94.7384 125.327 96.196 125.734 97.0706 124.166C97.9451 122.598 93.9367 129.319 91.8231 132.876C91.2036 107.035 89.5492 54.8296 87.8875 52.7391C86.2258 50.6485 82.2392 47.8757 80.4537 46.7505L71.052 47.1861L69.1935 54.0456L79.5791 56.8766L84.1706 137.449C82.4214 140.353 73.5664 148.738 68.6469 146.779C66.835 146.057 66.7873 103.38 66.1535 87.0369M92.9163 95.9653C93.0912 95.0071 95.4939 75.9309 95.2024 69.1803L93.552 94.0054L98.0545 26.2807M66.0686 85.0771C66.0538 84.7738 66.0387 84.4832 66.0232 84.206L66.0686 85.0771ZM66.0686 85.0771C66.0981 85.6815 66.1263 86.3365 66.1535 87.0369M69.1935 55.4611L66.1535 87.0369M66.1535 87.0369L58.3707 146.606M69.4122 51.4325C71.052 30.0916 72.1452 33.9025 71.5986 28.8939C71.1613 24.887 65.6588 22.4335 62.9622 21.7077L54.8724 24.6475L63.7274 28.8939M63.7274 28.8939L71.052 29.7649M37.0529 133.486C36.7088 129.516 36.2106 122.06 35.9301 116.326M54.6537 24.6475C50.3902 36.189 51.9207 35.209 48.0944 45.3351C43.4322 57.6735 40.1139 79.1974 36.9436 87.0369C36.1306 89.0472 35.7303 93.0801 35.5963 98.034M50.2809 37.2778C49.8436 30.9191 48.641 15.7554 48.0944 8.96845C46.0535 7.74883 41.8823 5.90857 36.6157 4.83539M26.7767 25.7363C22.1415 16.1547 23.242 7.37151 24.3716 4.17764C28.7511 3.71285 32.9489 4.08821 36.6157 4.83539M36.6157 4.83539L36.725 26.0629M36.725 26.0629H41.8631C42.4461 26.3533 43.6997 27.326 44.0495 28.8939C44.3994 30.4618 40.4055 62.9377 38.3648 78.9796L37.3809 85.874M36.725 26.0629H24.8089C21.8572 26.0629 17.8123 28.5672 17.4844 32.487C15.553 41.6694 12.1057 65.8049 12.8928 80.1773M23.497 81.1573L29.947 26.6074M98.0545 26.2807L106.035 19.9655V51.1058L94.2282 91.2833M98.0545 26.2807L86.7943 18.8767M78.7045 46.0973L81.6492 36.189M86.7943 18.8767L81.6492 36.189M86.7943 18.8767L82.3863 15.7191M81.6492 36.189C81.8822 35.405 83.9374 23.232 84.9358 17.2435M84.9358 17.2435L93.2443 11.6905L105.598 19.3123M84.9358 17.2435L82.3957 16.5902M84.9358 17.2435L82.4285 13.7593M84.9358 17.2435L82.4471 24.4297M66.6791 21.7077C66.6791 20.314 69.0113 7.98852 70.1774 2L82.2028 3.30659C82.2656 6.72845 82.337 11.2721 82.3863 15.7191M92.3697 10.6017L82.8587 3.30659C82.7297 6.13019 82.5706 9.89574 82.4285 13.7593M126.782 158.572L119.044 153.564C112.704 153.528 99.4319 154.239 97.0706 157.375C94.7092 160.511 85.1545 164.997 80.6723 166.847C76.7367 166.92 67.029 165.367 59.6825 158.572C50.4995 150.08 38.4741 169.896 33.2267 166.847C27.9792 163.799 31.3682 168.154 12.8928 150.515C12.6742 150.515 2.94626 142.131 1.63355 142.785M78.4859 221.615C85.395 220.918 87.268 220.526 87.3409 220.417M82.3863 15.7191C82.3896 16.01 82.3927 16.3005 82.3957 16.5902M82.3957 16.5902C82.4249 19.3739 82.4445 22.0879 82.4471 24.4297M82.4285 13.7593C82.1268 21.9633 81.9017 30.6092 82.2028 31.6159C82.3903 32.243 82.4522 29.0655 82.4471 24.4297M35.5963 98.034L33.9511 110.555M35.5963 98.034C35.4485 103.503 35.6253 110.094 35.9301 116.326M32.1629 124.166L33.9511 110.555M32.1629 124.166C32.195 124.239 32.2272 124.312 32.2595 124.383M33.9511 110.555L35.9301 116.326M35.9301 116.326L32.2595 124.383" stroke="black" stroke-width="3" stroke-linecap="round" stroke-linejoin="round"/>
</g>
</g>
</svg>
