<svg width="24" height="24" viewBox="0 0 24 24" fill="none" xmlns="http://www.w3.org/2000/svg">
<g id="Chat_alt_add_fill">
<path id="Subtract" fill-rule="evenodd" clip-rule="evenodd" d="M12.0001 3C7.0295 3 3.00006 7.02944 3.00006 12C3.00006 16.9706 7.0295 21 12.0001 21H16.5001C17.8979 21 18.5968 21 19.1481 20.7716C19.8832 20.4672 20.4672 19.8831 20.7717 19.1481C21.0001 18.5967 21.0001 17.8978 21.0001 16.5V12C21.0001 7.02944 16.9706 3 12.0001 3ZM12.0001 16.0002C11.4478 16.0002 11.0001 15.5525 11.0001 15.0002V13H9.00006C8.44778 13 8.00006 12.5523 8.00006 12C8.00006 11.4477 8.44778 11 9.00006 11H11.0001V9.00024C11.0001 8.44795 11.4478 8.00024 12.0001 8.00024C12.5523 8.00024 13.0001 8.44795 13.0001 9.00024V11H15.0001C15.5523 11 16.0001 11.4477 16.0001 12C16.0001 12.5523 15.5523 13 15.0001 13H13.0001V15.0002C13.0001 15.5525 12.5523 16.0002 12.0001 16.0002Z" fill="black"/>
</g>
</svg>
