<svg width="143" height="243" viewBox="0 0 143 243" fill="none" xmlns="http://www.w3.org/2000/svg">
<g id="Plancton">
<path d="M5.83532 172.082C0.955718 159.968 1.44408 140.1 3.39552 131.863C4.22369 128.367 6.38044 123.887 8.6182 121.202C16.2809 78.5609 42.4321 65.4777 44.3839 64.5086C44.3839 61.6012 41.9441 47.0643 51.7033 32.0429C61.4625 17.0214 69.7578 10.7221 75.1254 9.26844C77.0093 8.75822 79.3741 8.42708 81.7346 8.21216C81.8087 8.20542 81.8828 8.19879 81.9568 8.19227C86.2462 7.81475 90.4708 7.81475 91.716 7.81475C92.1474 7.81475 92.9612 8.01201 93.9783 8.32477C96.6427 9.14409 100.702 10.7561 102.939 11.6913C103.891 12.2128 105.051 12.9896 106.309 14.0184C108.751 16.0156 111.563 18.9626 113.941 22.8362C115.046 22.5846 116.131 22.453 117.193 22.4265L116.076 26.865C115.427 25.4266 114.706 24.0834 113.941 22.8362C113.167 22.8362 111.298 22.9154 108.795 23.3798C108.689 23.3994 108.583 23.4203 108.476 23.4427C107.788 23.6081 106.963 23.9825 106.059 24.4865C106.029 24.3789 105.998 24.2702 105.965 24.1603C106.847 23.8484 107.688 23.6072 108.476 23.4427C108.586 23.4163 108.692 23.3952 108.795 23.3798C111.298 22.9154 113.167 22.8362 113.941 22.8362C111.563 18.9626 108.751 16.0156 106.309 14.0184C105.051 12.9896 103.891 12.2128 102.939 11.6913C100.702 10.7561 96.6427 9.14409 93.9783 8.32477C92.9612 8.01201 92.1474 7.81475 91.716 7.81475C90.4708 7.81475 86.2462 7.81475 81.9568 8.19227C81.8865 8.21298 81.813 8.23627 81.7367 8.26202C81.736 8.24541 81.7353 8.22879 81.7346 8.21216C79.3741 8.42708 77.0093 8.75822 75.1254 9.26844C69.7578 10.7221 61.4625 17.0214 51.7033 32.0429C41.9441 47.0643 44.3839 61.6012 44.3839 64.5086C42.4321 65.4777 16.2809 78.5609 8.6182 121.202C6.38044 123.887 4.22369 128.367 3.39552 131.863C1.44408 140.1 0.955718 159.968 5.83532 172.082C9.739 181.773 15.2689 183.549 17.5459 183.227C21.3229 182.338 27.59 180.907 32.339 179.928C32.4499 179.9 32.5631 179.877 32.6727 179.86C32.5623 179.882 32.4511 179.905 32.339 179.928C27.59 180.907 21.3229 182.338 17.5459 183.227C15.2689 183.549 9.739 181.773 5.83532 172.082Z" fill="black"/>
<path d="M79.517 67.0214C78.3459 68.5 78.0532 68.3851 77.0772 68.8697L81.4689 69.8388L79.517 71.777L82.9328 73.2307C74.1356 75.0838 63.3207 71.808 55.119 68.2349C53.1597 67.3813 51.3494 66.5107 49.7515 65.6891C49.1382 65.3737 48.5562 65.0656 48.009 64.7684C47.8478 64.6808 47.6896 64.5942 47.5345 64.5086C47.3377 64.4 47.2396 64.2288 47.1501 64.0568L45.8478 63.5395C46.8102 63.3263 46.9609 63.6933 47.1501 64.0568L47.4662 64.1823L46.8237 61.1167L49.4735 61.9938L49.6886 61.5863L49.2635 58.2093C49.6689 58.4131 50.2637 58.7104 51.0147 59.074L51.2153 58.6939L51.4583 59.2876C57.2099 62.0441 70.5386 67.8886 79.517 67.0214Z" fill="black"/>
<path d="M6.32328 184.195H4.82328V184.296L4.83673 184.396L6.32328 184.195ZM7.82328 173.234C7.82328 172.406 7.15171 171.734 6.32328 171.734C5.49485 171.734 4.82328 172.406 4.82328 173.234H7.82328ZM22.946 219.458C22.8851 218.632 22.166 218.012 21.3398 218.073C20.5136 218.133 19.8932 218.853 19.9541 219.679L22.946 219.458ZM27.3056 240.405L26.9823 241.869L27.3056 240.405ZM28.743 223.445L29.1118 221.991H29.1118L28.743 223.445ZM45.3601 222.329L46.8543 222.46L47.0459 220.285L44.9465 220.887L45.3601 222.329ZM47.3119 240.889L46.5716 242.194H46.5716L47.3119 240.889ZM57.5591 213.754L56.2262 213.066L56.1882 213.139L56.1586 213.216L57.5591 213.754ZM17.1235 128.528C17.4227 129.3 18.2915 129.684 19.064 129.385C19.8365 129.086 20.2202 128.217 19.921 127.444L17.1235 128.528ZM13.1547 119.264L14.111 118.108H14.111L13.1547 119.264ZM3.39552 131.863L4.85512 132.208L3.39552 131.863ZM5.83532 172.082L7.22668 171.521L5.83532 172.082ZM17.5459 183.227L17.7566 184.712L17.8235 184.702L17.8893 184.687L17.5459 183.227ZM67.8058 178.381L69.2091 178.911L69.2671 178.757L69.2905 178.594L67.8058 178.381ZM57.4295 182.655C58.1846 182.996 59.0729 182.66 59.4138 181.905C59.7546 181.15 59.4188 180.262 58.6637 179.921L57.4295 182.655ZM32.6727 179.86L32.9734 181.329L32.9735 181.329L32.6727 179.86ZM33.1606 181.773L33.748 180.393H33.748L33.1606 181.773ZM56.0948 187.588L56.4298 186.125L56.4218 186.124L56.0948 187.588ZM64.3901 188.557L64.7515 190.013H64.7515L64.3901 188.557ZM72.6854 181.288L71.3215 180.664L72.6854 181.288ZM79.0289 138.647H77.5289V138.774L77.5505 138.9L79.0289 138.647ZM76.0226 132.843C75.2256 132.617 74.3963 133.079 74.1701 133.876C73.944 134.673 74.4068 135.503 75.2038 135.729L76.0226 132.843ZM66.2607 180.414C66.8485 180.998 67.7982 180.995 68.382 180.407C68.9659 179.819 68.9627 178.87 68.375 178.286L66.2607 180.414ZM38.5282 172.082L38.4045 170.587L38.5282 172.082ZM10.68 170.699C10.7191 171.526 11.4216 172.165 12.2491 172.126C13.0766 172.087 13.7157 171.385 13.6767 170.557L10.68 170.699ZM10.7145 139.616L9.22202 139.466L9.21091 139.576L9.21614 139.687L10.7145 139.616ZM12.6949 134.921C12.7779 134.096 12.177 133.361 11.3527 133.278C10.5285 133.195 9.79298 133.796 9.70998 134.62L12.6949 134.921ZM31.6968 173.016L31.9863 174.488H31.9863L31.6968 173.016ZM20.4737 177.779L21.3842 178.971C21.5016 178.882 21.6051 178.775 21.6914 178.655L20.4737 177.779ZM18.5218 167.236L18.9058 168.686L18.5218 167.236ZM9.73855 174.989L11.1828 175.394L11.1883 175.375L11.1932 175.355L9.73855 174.989ZM11.7805 177.326C11.1977 176.737 10.2479 176.732 9.6592 177.315C9.07045 177.898 9.06564 178.847 9.64845 179.436L11.7805 177.326ZM15.1061 181.288L15.5775 182.712H15.5775L15.1061 181.288ZM21.4852 150.316C21.5071 149.488 20.8536 148.799 20.0254 148.777C19.1973 148.755 18.5082 149.408 18.4862 150.236L21.4852 150.316ZM30.5264 153.983C30.9677 153.281 30.7571 152.355 30.0559 151.914C29.3548 151.473 28.4287 151.683 27.9875 152.385L30.5264 153.983ZM23.0376 149.602C22.665 150.342 22.9628 151.243 23.7028 151.616C24.4427 151.989 25.3446 151.691 25.7171 150.951L23.0376 149.602ZM39.9921 134.286L40.3334 135.746L39.9921 134.286ZM54.6309 134.77L54.0957 136.171L54.1348 136.186L54.1748 136.199L54.6309 134.77ZM64.3677 156.858C64.256 157.679 64.8308 158.435 65.6517 158.546C66.4726 158.658 67.2286 158.083 67.3403 157.262L64.3677 156.858ZM70.7336 157.06L69.2489 156.847L69.2336 156.953V157.06H70.7336ZM70.4503 159.483L71.9377 159.677L70.4503 159.483ZM62.3798 157.02C62.0903 156.244 61.2264 155.85 60.4502 156.139C59.674 156.429 59.2794 157.293 59.5689 158.069L62.3798 157.02ZM71.1854 158.974C71.4394 158.185 71.0062 157.34 70.2177 157.086C69.4292 156.832 68.584 157.265 68.3299 158.054L71.1854 158.974ZM74.6373 135.739L76.1107 136.02L76.1231 135.955L76.1297 135.89L74.6373 135.739ZM76.1011 121.202L75.0442 120.138L74.6626 120.517L74.6087 121.052L76.1011 121.202ZM77.565 119.749L76.5081 118.684L76.5081 118.684L77.565 119.749ZM77.0117 73.0079C76.3533 72.505 75.412 72.631 74.9091 73.2893C74.4062 73.9477 74.5323 74.889 75.1906 75.3919L77.0117 73.0079ZM80.0048 102.305L81.4966 102.461L80.0048 102.305ZM33.6486 108.604L35.1258 108.343L34.9943 107.597L34.3158 107.26L33.6486 108.604ZM71.7095 121.202L71.6063 119.706L71.1199 119.74L70.7461 120.053L71.7095 121.202ZM62.4382 203.094L63.8446 203.615L62.4382 203.094ZM67.8912 188.142C68.0493 187.329 67.5182 186.541 66.705 186.383C65.8918 186.225 65.1044 186.756 64.9463 187.569L67.8912 188.142ZM8.6182 121.202L9.77047 122.163H9.77047L8.6182 121.202ZM44.3839 64.5086L45.051 65.8521L45.8839 65.4385V64.5086H44.3839ZM51.7033 32.0429L50.4455 31.2257L51.7033 32.0429ZM75.1254 9.26844L74.7333 7.8206L74.7333 7.8206L75.1254 9.26844ZM102.939 11.6913L103.66 10.3758L103.591 10.3378L103.518 10.3074L102.939 11.6913ZM117.55 38.0158C117.637 38.8396 118.376 39.4366 119.2 39.3493C120.024 39.262 120.621 38.5233 120.533 37.6995L117.55 38.0158ZM139.545 42.1004C139.748 42.9037 140.563 43.391 141.366 43.1888C142.17 42.9865 142.657 42.1713 142.455 41.3679L139.545 42.1004ZM85.3726 38.8268L84.2668 37.8132L85.3726 38.8268ZM70.2933 65.4686C70.0206 66.2508 70.4337 67.106 71.2159 67.3787C71.9982 67.6514 72.8534 67.2383 73.1261 66.456L70.2933 65.4686ZM75.5772 66.9314C75.5772 67.7598 76.2488 68.4314 77.0772 68.4314C77.9057 68.4314 78.5772 67.7598 78.5772 66.9314H75.5772ZM86.3485 43.1878L87.5294 44.1128L86.3485 43.1878ZM100.499 28.1664L101.365 29.3913L101.365 29.3913L100.499 28.1664ZM108.795 23.3798L109.068 24.8547L109.068 24.8547L108.795 23.3798ZM100.579 28.1103L99.7129 26.8854L99.7129 26.8854L100.579 28.1103ZM79.517 67.0214L80.6929 67.9528L82.8815 65.1895L79.3728 65.5284L79.517 67.0214ZM77.0772 68.8697L76.4102 67.5262L72.6003 69.4178L76.754 70.3344L77.0772 68.8697ZM81.4689 69.8388L82.5258 70.9032L84.4762 68.9664L81.7921 68.374L81.4689 69.8388ZM79.517 71.777L78.4601 70.7127L76.8777 72.284L78.9296 73.1572L79.517 71.777ZM82.9328 73.2307L83.2419 74.6985L87.9044 73.7164L83.5201 71.8505L82.9328 73.2307ZM49.2635 58.2093L49.9372 56.8691L47.424 55.6058L47.7753 58.3966L49.2635 58.2093ZM49.7515 62.0858L49.2801 63.5098L51.5366 64.2567L51.2397 61.8985L49.7515 62.0858ZM46.8237 61.1167L47.2951 59.6927L44.8211 58.8737L45.3556 61.4243L46.8237 61.1167ZM45.8478 63.5395L45.5234 62.075L40.7562 63.131L45.294 64.9335L45.8478 63.5395ZM47.7338 65.9027C48.5038 66.2085 49.3758 65.8323 49.6816 65.0624C49.9875 64.2924 49.6112 63.4204 48.8413 63.1146L47.7338 65.9027ZM47.8415 56.7628C47.5779 57.5482 48.0008 58.3986 48.7862 58.6622C49.5715 58.9258 50.4219 58.5029 50.6855 57.7175L47.8415 56.7628ZM57.5588 29.6201L58.7426 30.5413V30.5413L57.5588 29.6201ZM71.2217 14.5986L72.1386 15.7858L72.1609 15.7685L72.1826 15.7504L71.2217 14.5986ZM81.9568 8.19227L81.8253 6.69804L81.8253 6.69804L81.9568 8.19227ZM80.4568 14.1141C80.4568 14.9425 81.1284 15.6141 81.9568 15.6141C82.7853 15.6141 83.4568 14.9425 83.4568 14.1141H80.4568ZM82.9674 1.93439C82.9312 1.10675 82.2309 0.465199 81.4033 0.501436C80.5756 0.537673 79.9341 1.23798 79.9703 2.06561L82.9674 1.93439ZM97.0539 3.40867C97.2966 2.6166 96.8513 1.77772 96.0593 1.53497C95.2672 1.29222 94.4283 1.73752 94.1856 2.52958L97.0539 3.40867ZM90.7698 13.6745C90.5271 14.4666 90.9724 15.3055 91.7645 15.5482C92.5565 15.791 93.3954 15.3457 93.6382 14.5536L90.7698 13.6745ZM110.999 11.5422C111.719 11.1333 111.972 10.2178 111.563 9.49727C111.154 8.77677 110.239 8.52412 109.518 8.93297L110.999 11.5422ZM101.639 18.2116C101.226 18.9296 101.473 19.8466 102.191 20.2598C102.909 20.673 103.826 20.4259 104.239 19.7078L101.639 18.2116ZM132.947 24.1466C133.67 23.7435 133.93 22.83 133.527 22.1063C133.124 21.3825 132.21 21.1227 131.487 21.5258L132.947 24.1466ZM125.546 30.3302C125.136 31.0497 125.386 31.9658 126.106 32.3765C126.825 32.7872 127.741 32.5368 128.152 31.8174L125.546 30.3302ZM106.249 20.7445C105.896 19.9948 105.003 19.6726 104.253 20.0249C103.503 20.3773 103.181 21.2707 103.533 22.0205L106.249 20.7445ZM104.322 30.494C103.734 31.0777 103.731 32.0275 104.315 32.6153C104.898 33.2031 105.848 33.2064 106.436 32.6227L104.322 30.494ZM119.52 19.3259C119.723 18.5225 119.235 17.7073 118.432 17.5051C117.629 17.3028 116.814 17.7901 116.611 18.5935L119.52 19.3259ZM114.171 28.2848C113.969 29.0881 114.457 29.9033 115.26 30.1056C116.063 30.3078 116.878 29.8205 117.081 29.0172L114.171 28.2848ZM142.263 30.914C142.71 30.2165 142.507 29.2887 141.809 28.8417C141.112 28.3947 140.184 28.5978 139.737 29.2953L142.263 30.914ZM133.157 35.4828C132.381 35.7719 131.986 36.6356 132.275 37.412C132.564 38.1883 133.428 38.5833 134.204 38.2942L133.157 35.4828ZM35.6274 94.7183C35.7196 93.895 35.1268 93.1529 34.3035 93.0608C33.4802 92.9687 32.7382 93.5614 32.646 94.3847L35.6274 94.7183ZM33.1608 103.274L31.6701 103.107L31.5979 103.752L32.0191 104.246L33.1608 103.274ZM74.6373 116.264L74.5769 117.763H74.5769L74.6373 116.264ZM79.0291 107.043L78.9399 105.545H78.9399L79.0291 107.043ZM79.5169 107.012L79.4189 105.515H79.4188L79.5169 107.012ZM83.4205 106.666L82.5527 105.442L83.4205 106.666ZM75.6133 116.3L75.5644 117.799H75.5644L75.6133 116.3ZM79.5169 109.088L78.0464 108.792L78.0381 108.833L78.0321 108.875L79.5169 109.088ZM79.9288 107.043L81.3993 107.339L78.5279 106.507L79.9288 107.043ZM78.1159 107.583C77.8198 108.357 78.207 109.224 78.9807 109.52C79.7544 109.816 80.6217 109.429 80.9178 108.655L78.1159 107.583ZM76.8221 116.334L76.8572 114.834H76.8572L76.8221 116.334ZM78.0319 117.857C78.8602 117.868 79.5412 117.206 79.553 116.378C79.5648 115.55 78.9028 114.869 78.0744 114.857L78.0319 117.857ZM47.3196 93.9038C46.6943 93.3604 45.7468 93.4269 45.2035 94.0522C44.6601 94.6776 44.7266 95.625 45.3519 96.1683L47.3196 93.9038ZM71.9362 103.787C72.7551 103.662 73.3176 102.897 73.1925 102.078C73.0674 101.259 72.3021 100.697 71.4831 100.822L71.9362 103.787ZM34.6001 89.8932C34.7036 90.7151 35.4538 91.2976 36.2757 91.1941C37.0977 91.0907 37.6801 90.3405 37.5767 89.5185L34.6001 89.8932ZM36.0796 89.0956L37.5756 89.2049V89.2049L36.0796 89.0956ZM33.8018 91.1412C33.2564 90.5176 32.3088 90.4542 31.6852 90.9996C31.0616 91.5449 30.9982 92.4926 31.5436 93.1161L33.8018 91.1412ZM31.6159 104.338C32.2037 104.922 33.1535 104.918 33.7372 104.331C34.321 103.743 34.3176 102.793 33.7298 102.209L31.6159 104.338ZM31.209 103.274L31.8761 104.617H31.8761L31.209 103.274ZM31.6969 107.635L32.7539 106.57L32.7539 106.57L31.6969 107.635ZM41.9441 111.465C41.1157 111.465 40.4441 112.136 40.4441 112.965C40.4441 113.793 41.1157 114.465 41.9441 114.465V111.465ZM61.7074 121.229C62.5247 121.093 63.0776 120.321 62.9424 119.504C62.8071 118.687 62.0349 118.134 61.2176 118.269L61.7074 121.229ZM76.1011 120.718L76.5595 122.146L76.1011 120.718ZM77.7565 119.264L79.2002 119.671V119.671L77.7565 119.264ZM59.9986 105.816L60.2915 104.345L60.2915 104.345L59.9986 105.816ZM64.8782 112.363L64.6179 113.84H64.6179L64.8782 112.363ZM64.3903 106.544L64.5884 105.057H64.5884L64.3903 106.544ZM69.2699 107.15L69.1625 108.646H69.1625L69.2699 107.15ZM68.294 107.061L68.4541 105.57H68.4541L68.294 107.061ZM66.8301 109.683L66.163 108.339H66.163L66.8301 109.683ZM64.824 109.66L65.4859 108.314L65.4792 108.311L65.4725 108.308L64.824 109.66ZM48.009 64.7684L47.293 66.0865L47.293 66.0865L48.009 64.7684ZM51.2153 58.6939L52.6036 58.1258L51.3877 55.154L49.8888 57.9936L51.2153 58.6939ZM45.0406 220.957C44.283 221.292 43.9407 222.178 44.2759 222.936C44.6112 223.693 45.4971 224.036 46.2546 223.7L45.0406 220.957ZM9.15776 178.949C9.73894 179.539 10.6887 179.546 11.279 178.965C11.8694 178.384 11.8768 177.434 11.2956 176.844L9.15776 178.949ZM61.6156 106.276C61.4676 105.461 60.6869 104.92 59.8718 105.068C59.0567 105.216 58.5159 105.997 58.6638 106.812L61.6156 106.276ZM65.7205 107.353C65.92 106.549 65.4298 105.735 64.6258 105.536C63.8217 105.336 63.0082 105.826 62.8088 106.631L65.7205 107.353ZM7.82328 184.195V173.234H4.82328V184.195H7.82328ZM19.9541 219.679C20.2014 223.035 20.7946 228.128 21.7799 232.508C22.2706 234.69 22.8742 236.767 23.6137 238.379C23.9831 239.184 24.4133 239.933 24.9242 240.532C25.4293 241.124 26.1065 241.676 26.9823 241.869L27.6288 238.94C27.6263 238.939 27.477 238.902 27.2063 238.585C26.9414 238.274 26.6466 237.795 26.3404 237.128C25.7289 235.795 25.1797 233.953 24.7067 231.85C23.7645 227.661 23.1867 222.725 22.946 219.458L19.9541 219.679ZM6.32328 184.195C4.83673 184.396 4.8368 184.396 4.83688 184.397C4.83694 184.397 4.83704 184.398 4.83714 184.399C4.83735 184.4 4.83763 184.402 4.83798 184.405C4.83869 184.41 4.83969 184.417 4.84098 184.427C4.84357 184.445 4.84734 184.472 4.85232 184.507C4.8623 184.577 4.87714 184.679 4.8971 184.811C4.93702 185.075 4.99745 185.46 5.08044 185.948C5.24639 186.926 5.50278 188.323 5.86622 190.011C6.59221 193.384 7.74955 197.94 9.47471 202.65C11.1963 207.35 13.5057 212.265 16.561 216.318C19.6151 220.369 23.4955 223.662 28.3743 224.899L29.1118 221.991C25.1239 220.98 21.7686 218.242 18.9565 214.512C16.1456 210.783 13.9584 206.168 12.2917 201.618C10.6286 197.077 9.50594 192.664 8.79904 189.38C8.44603 187.74 8.19775 186.387 8.03814 185.446C7.95835 184.976 7.90077 184.61 7.86338 184.363C7.84469 184.239 7.83105 184.145 7.8222 184.083C7.81778 184.052 7.81456 184.029 7.81251 184.014C7.81148 184.007 7.81075 184.002 7.8103 183.998C7.81008 183.997 7.80993 183.996 7.80985 183.995C7.80981 183.995 7.8098 183.995 7.80978 183.995C7.80979 183.995 7.80982 183.995 6.32328 184.195ZM28.3743 224.899C29.7398 225.245 31.1727 225.43 32.6731 225.43V222.43C31.421 222.43 30.2358 222.276 29.1118 221.991L28.3743 224.899ZM26.9823 241.869C27.869 242.065 28.7179 241.857 29.3883 241.286C29.9846 240.779 30.34 240.072 30.5682 239.413C31.0271 238.088 31.1889 236.303 31.2109 234.475C31.2557 230.761 30.7223 226.231 30.2231 223.201L27.263 223.689C27.7485 226.635 28.253 230.973 28.2112 234.439C28.1899 236.2 28.0273 237.583 27.7334 238.431C27.6641 238.632 27.5963 238.775 27.5382 238.873C27.4797 238.971 27.4435 239.002 27.4445 239.001C27.4516 238.995 27.4909 238.966 27.5566 238.95C27.6212 238.935 27.6534 238.945 27.6288 238.94L26.9823 241.869ZM32.6731 225.43C37.9094 225.43 42.2368 224.785 45.7737 223.77L44.9465 220.887C41.7097 221.815 37.6638 222.43 32.6731 222.43V225.43ZM43.8659 222.197C43.6179 225.013 43.418 229.341 43.6306 233.188C43.7365 235.105 43.9479 236.967 44.3314 238.482C44.523 239.24 44.7704 239.963 45.1004 240.581C45.4237 241.186 45.8881 241.806 46.5716 242.194L48.0522 239.585C48.0526 239.585 47.9284 239.507 47.7466 239.167C47.5714 238.839 47.3972 238.369 47.2397 237.746C46.9248 236.502 46.7275 234.859 46.626 233.023C46.4238 229.362 46.6143 225.186 46.8543 222.46L43.8659 222.197ZM52.6564 220.855C56.1882 218.736 58.2122 216.239 58.9596 214.291L56.1586 213.216C55.7146 214.374 54.2428 216.405 51.113 218.282L52.6564 220.855ZM46.5716 242.194C46.9967 242.435 47.5104 242.563 48.0617 242.469C48.5897 242.379 49.0009 242.111 49.2972 241.836C49.8522 241.321 50.2347 240.569 50.5183 239.858C51.1082 238.379 51.5786 236.258 51.9583 233.963C52.7248 229.328 53.1887 223.547 53.3829 219.643L50.3866 219.494C50.1951 223.343 49.7388 228.997 48.9985 233.473C48.6248 235.732 48.1951 237.585 47.7317 238.747C47.6192 239.029 47.5143 239.245 47.4216 239.403C47.3759 239.481 47.3371 239.538 47.3065 239.578C47.2914 239.598 47.2794 239.612 47.2706 239.622C47.2663 239.627 47.263 239.631 47.2606 239.633C47.2595 239.634 47.2586 239.635 47.258 239.636C47.2574 239.636 47.2571 239.637 47.2571 239.637C47.2571 239.637 47.2574 239.636 47.2581 239.636C47.2587 239.635 47.2597 239.634 47.2611 239.633C47.2637 239.631 47.2679 239.628 47.2735 239.623C47.2847 239.615 47.3027 239.603 47.3275 239.589C47.3784 239.562 47.456 239.529 47.5571 239.512C47.7866 239.473 47.9688 239.537 48.0522 239.585L46.5716 242.194ZM19.921 127.444C19.491 126.334 18.7045 124.572 17.7176 122.826C16.7515 121.118 15.5031 119.26 14.111 118.108L12.1984 120.42C13.1486 121.206 14.1773 122.66 15.1061 124.303C16.0142 125.909 16.7403 127.538 17.1235 128.528L19.921 127.444ZM1.93591 131.517C0.919361 135.808 0.308063 142.977 0.554571 150.567C0.800934 158.153 1.90923 166.349 4.44396 172.642L7.22668 171.521C4.88181 165.7 3.79448 157.906 3.55299 150.47C3.31164 143.038 3.92024 136.155 4.85512 132.208L1.93591 131.517ZM4.44396 172.642C8.48341 182.67 14.5191 185.171 17.7566 184.712L17.3353 181.741C16.0187 181.928 10.9946 180.875 7.22668 171.521L4.44396 172.642ZM66.4025 177.851C66.2033 178.379 65.7909 179.193 65.2491 179.845C64.6717 180.54 64.2007 180.757 63.9021 180.757V183.757C65.5554 183.757 66.7922 182.682 67.5567 181.762C68.3568 180.799 68.9204 179.675 69.2091 178.911L66.4025 177.851ZM38.5282 180.365C39.0125 180.365 39.8563 180.365 40.9418 180.384L40.9942 177.385C39.8815 177.365 39.0164 177.365 38.5282 177.365V180.365ZM40.9418 180.384C43.1281 180.423 46.2722 180.537 49.3881 180.879C52.5467 181.225 55.5104 181.789 57.4295 182.655L58.6637 179.921C56.2849 178.847 52.9173 178.248 49.7151 177.897C46.47 177.541 43.2238 177.424 40.9942 177.385L40.9418 180.384ZM63.9021 180.757C63.5379 180.757 62.4051 180.636 60.6547 180.402C58.9596 180.175 56.8042 179.86 54.4897 179.51C49.8623 178.808 44.6233 177.966 41.2116 177.405L40.7244 180.365C44.1441 180.927 49.3963 181.772 54.0401 182.476C56.3613 182.827 58.5365 183.145 60.2571 183.375C61.9225 183.598 63.2904 183.757 63.9021 183.757V180.757ZM17.8893 184.687C21.6611 183.8 27.9128 182.372 32.6418 181.397L32.0362 178.459C27.2673 179.442 20.9846 180.877 17.2025 181.766L17.8893 184.687ZM32.6418 181.397C32.7533 181.374 32.8638 181.352 32.9734 181.329L32.3719 178.39C32.2608 178.413 32.1489 178.436 32.0362 178.459L32.6418 181.397ZM32.9735 181.329C34.3997 181.037 35.6637 180.792 36.6561 180.621C37.7002 180.44 38.3155 180.365 38.5282 180.365V177.365C38.01 177.365 37.13 177.494 36.1454 177.665C35.1091 177.844 33.8108 178.096 32.3719 178.39L32.9735 181.329ZM32.4402 178.378C32.2875 178.402 32.1268 178.434 31.9648 178.476L32.7132 181.381C32.773 181.365 32.8386 181.352 32.9052 181.342L32.4402 178.378ZM31.9648 178.476C31.67 178.552 31.2759 178.683 30.9217 178.92C30.5916 179.141 29.9769 179.686 30.0126 180.606C30.0447 181.437 30.601 181.979 30.9589 182.26C31.368 182.582 31.9148 182.873 32.5732 183.153L33.748 180.393C33.1936 180.157 32.9217 179.987 32.8124 179.901C32.7605 179.861 32.791 179.874 32.8435 179.951C32.8998 180.034 32.9998 180.219 33.0103 180.49C33.0342 181.106 32.6141 181.397 32.5912 181.413C32.5441 181.444 32.5697 181.418 32.7132 181.381L31.9648 178.476ZM32.5732 183.153C33.365 183.49 34.8321 183.933 36.5847 184.414C38.373 184.905 40.559 185.463 42.8542 186.028C47.4461 187.158 52.5074 188.323 55.7677 189.051L56.4218 186.124C53.1759 185.398 48.1365 184.238 43.571 183.115C41.2876 182.553 39.1307 182.002 37.3792 181.521C35.5921 181.03 34.3226 180.637 33.748 180.393L32.5732 183.153ZM55.7597 189.05C56.8476 189.299 58.5732 189.647 60.2381 189.884C61.0697 190.003 61.9086 190.097 62.6564 190.135C63.3649 190.171 64.1336 190.166 64.7515 190.013L64.0287 187.101C63.8658 187.141 63.4716 187.173 62.8086 187.139C62.1852 187.107 61.4442 187.026 60.6615 186.914C59.0977 186.691 57.4564 186.361 56.4298 186.125L55.7597 189.05ZM64.7515 190.013C66.9808 189.459 71.3581 187.792 74.0493 181.913L71.3215 180.664C69.1331 185.445 65.7031 186.685 64.0287 187.101L64.7515 190.013ZM74.0493 181.913C74.5961 180.718 75.1824 178.812 75.7671 176.602C76.3597 174.363 76.975 171.716 77.5671 168.983C78.7516 163.516 79.8533 157.656 80.5064 153.927L77.5514 153.409C76.9033 157.11 75.8092 162.929 74.6351 168.348C74.048 171.058 73.4434 173.656 72.8669 175.835C72.2825 178.043 71.7507 179.726 71.3215 180.664L74.0493 181.913ZM80.5064 153.927C81.1842 150.057 81.1807 146.176 81.0144 143.285C80.9309 141.834 80.8056 140.621 80.7007 139.766C80.6482 139.339 80.6007 139 80.5659 138.767C80.5485 138.65 80.5343 138.559 80.5242 138.496C80.5192 138.465 80.5152 138.44 80.5123 138.423C80.5109 138.414 80.5098 138.408 80.5089 138.403C80.5085 138.4 80.5082 138.398 80.5079 138.397C80.5078 138.396 80.5076 138.395 80.5076 138.395C80.5075 138.394 80.5075 138.394 80.5074 138.394C80.5074 138.394 80.5073 138.393 79.0289 138.647C77.5505 138.9 77.5504 138.9 77.5504 138.9C77.5504 138.9 77.5504 138.9 77.5503 138.9C77.5503 138.899 77.5503 138.899 77.5504 138.9C77.5504 138.9 77.5505 138.901 77.5507 138.902C77.5511 138.904 77.5518 138.908 77.5528 138.914C77.5548 138.926 77.558 138.945 77.5621 138.971C77.5705 139.023 77.5829 139.103 77.5986 139.208C77.6299 139.419 77.6739 139.731 77.7231 140.132C77.8214 140.933 77.9402 142.081 78.0193 143.457C78.1783 146.22 78.1748 149.85 77.5514 153.409L80.5064 153.927ZM80.5289 138.647C80.5289 137.129 79.6372 133.868 76.0226 132.843L75.2038 135.729C77.0543 136.254 77.5289 137.904 77.5289 138.647H80.5289ZM68.375 178.286C66.6171 176.54 56.4323 169.095 38.4045 170.587L38.6519 173.576C55.7572 172.161 65.0917 179.253 66.2607 180.414L68.375 178.286ZM13.6767 170.557L12.2128 139.545L9.21614 139.687L10.68 170.699L13.6767 170.557ZM12.2069 139.766L12.6949 134.921L9.70998 134.62L9.22202 139.466L12.2069 139.766ZM38.4045 170.587C35.8466 170.798 33.518 171.129 31.4072 171.544L31.9863 174.488C33.9831 174.095 36.2007 173.779 38.6519 173.576L38.4045 170.587ZM31.4072 171.544C26.6742 172.475 24.021 173.231 22.3656 174.057C21.5011 174.488 20.8854 174.948 20.3806 175.471C19.9093 175.959 19.5509 176.493 19.256 176.903L21.6914 178.655C22.0648 178.136 22.2597 177.843 22.5382 177.555C22.7833 177.301 23.1142 177.036 23.7046 176.742C24.959 176.116 27.2489 175.42 31.9863 174.488L31.4072 171.544ZM32.2722 171.631C31.6879 171.388 31.0655 170.898 30.2437 170.139C29.4833 169.438 28.5356 168.489 27.491 167.681C26.415 166.848 25.135 166.077 23.5646 165.67C21.9821 165.259 20.1944 165.241 18.1379 165.786L18.9058 168.686C20.509 168.261 21.771 168.304 22.8113 168.574C23.8637 168.847 24.7795 169.376 25.6554 170.053C26.5626 170.755 27.3227 171.526 28.2092 172.344C29.0343 173.105 29.9977 173.934 31.1213 174.401L32.2722 171.631ZM18.1379 165.786C11.6935 167.492 8.88884 172.22 8.28394 174.623L11.1932 175.355C11.5642 173.881 13.6391 170.081 18.9058 168.686L18.1379 165.786ZM9.64845 179.436C10.2686 180.063 11.1491 181.064 11.9569 181.729C12.7485 182.381 14.0504 183.218 15.5775 182.712L14.6347 179.864C14.632 179.865 14.6337 179.865 14.6294 179.865C14.6216 179.864 14.5889 179.862 14.525 179.838C14.3828 179.786 14.1665 179.662 13.8637 179.413C13.2076 178.873 12.6242 178.178 11.7805 177.326L9.64845 179.436ZM15.5775 182.712C16.3783 182.447 17.3425 181.865 18.2738 181.238C19.2437 180.585 20.3219 179.783 21.3842 178.971L19.5631 176.587C18.511 177.391 17.4909 178.149 16.5984 178.75C15.6673 179.377 15.005 179.742 14.6347 179.864L15.5775 182.712ZM18.4862 150.236C18.4439 151.835 18.5165 153.659 18.7877 155.308C19.0462 156.879 19.5291 158.591 20.5187 159.688C21.0562 160.284 21.792 160.75 22.7242 160.828C23.6268 160.904 24.4962 160.597 25.2929 160.094C26.84 159.116 28.553 157.118 30.5264 153.983L27.9875 152.385C26.0572 155.451 24.6392 156.958 23.6905 157.558C23.2394 157.843 23.0198 157.842 22.9751 157.839C22.9599 157.837 22.8901 157.838 22.7464 157.679C22.3739 157.266 21.9926 156.308 21.7479 154.821C21.516 153.411 21.4462 151.786 21.4852 150.316L18.4862 150.236ZM25.7171 150.951C26.1865 150.019 27.965 146.605 30.6219 143.204C33.3253 139.744 36.7133 136.592 40.3334 135.746L39.6508 132.825C34.9755 133.917 31.0441 137.791 28.2579 141.357C25.4253 144.983 23.5441 148.596 23.0376 149.602L25.7171 150.951ZM40.3334 135.746C46.6472 134.271 52.2297 135.459 54.0957 136.171L55.1661 133.369C52.8031 132.466 46.6095 131.199 39.6508 132.825L40.3334 135.746ZM54.1748 136.199C58.1378 137.464 66.2074 143.338 64.3677 156.858L67.3403 157.262C69.4042 142.096 60.2325 134.984 55.087 133.341L54.1748 136.199ZM69.2336 157.06C69.2336 157.04 69.2225 157.198 69.1683 157.659C69.1207 158.064 69.0508 158.616 68.963 159.288L71.9377 159.677C72.0261 159.001 72.0979 158.433 72.1478 158.009C72.1912 157.641 72.2336 157.262 72.2336 157.06H69.2336ZM68.963 159.288C68.3875 163.69 67.0688 172.969 66.3211 178.167L69.2905 178.594C70.0378 173.4 71.3592 164.101 71.9377 159.677L68.963 159.288ZM59.5689 158.069C60.0015 159.229 60.5998 160.535 61.3207 161.692C62.0176 162.811 62.9341 163.962 64.0649 164.604C64.656 164.939 65.358 165.164 66.1335 165.113C66.9188 165.061 67.6352 164.736 68.2583 164.215C69.4383 163.229 70.3829 161.464 71.1854 158.974L68.3299 158.054C67.5709 160.409 66.8402 161.491 66.3347 161.913C66.1151 162.097 65.9861 162.116 65.9366 162.119C65.8772 162.123 65.7547 162.113 65.5448 161.994C65.0735 161.727 64.4814 161.092 63.8669 160.106C63.2764 159.158 62.7605 158.041 62.3798 157.02L59.5689 158.069ZM72.2183 157.274C72.6024 154.604 74.9675 142.021 76.1107 136.02L73.1638 135.459C72.0299 141.41 69.6455 154.089 69.2489 156.847L72.2183 157.274ZM76.1297 135.89L77.5936 121.353L74.6087 121.052L73.1448 135.589L76.1297 135.89ZM77.1581 122.267L78.622 120.813L76.5081 118.684L75.0442 120.138L77.1581 122.267ZM75.1906 75.3919C75.4615 75.5988 75.9655 76.1659 76.5314 77.3175C77.0838 78.4418 77.6531 80.0381 78.1106 82.1919C79.0256 86.4992 79.477 92.9578 78.513 102.148L81.4966 102.461C82.4844 93.044 82.0413 86.2579 81.0451 81.5685C80.5471 79.2239 79.9066 77.3839 79.2239 75.9945C78.5546 74.6324 77.798 73.6085 77.0117 73.0079L75.1906 75.3919ZM32.1714 108.864C33.3346 115.465 36.7099 124.346 43.321 128.839C46.6911 131.13 50.8499 132.239 55.8049 131.359C60.7128 130.488 66.3078 127.685 72.6729 122.352L70.7461 120.053C64.6194 125.186 59.4956 127.657 55.2806 128.405C51.1129 129.145 47.7448 128.219 45.0073 126.358C39.4031 122.549 36.2398 114.665 35.1258 108.343L32.1714 108.864ZM57.5591 213.754C58.892 214.442 58.892 214.442 58.8921 214.442C58.8921 214.442 58.8922 214.441 58.8923 214.441C58.8924 214.441 58.8926 214.441 58.8928 214.44C58.8933 214.439 58.894 214.438 58.8948 214.436C58.8965 214.433 58.8991 214.428 58.9023 214.422C58.9089 214.409 58.9185 214.39 58.931 214.366C58.9561 214.317 58.9928 214.245 59.04 214.153C59.1343 213.968 59.2704 213.699 59.4385 213.364C59.7745 212.694 60.2392 211.755 60.7543 210.681C61.7788 208.545 63.0236 205.829 63.8446 203.615L61.0319 202.572C60.2612 204.65 59.0664 207.263 58.0493 209.384C57.5435 210.439 57.0869 211.361 56.7568 212.019C56.5918 212.348 56.4586 212.611 56.3669 212.791C56.3211 212.881 56.2856 212.95 56.2617 212.997C56.2498 213.02 56.2408 213.037 56.2348 213.049C56.2318 213.055 56.2296 213.059 56.2281 213.062C56.2274 213.063 56.2269 213.064 56.2266 213.065C56.2264 213.065 56.2263 213.066 56.2262 213.066C56.2262 213.066 56.2262 213.066 56.2262 213.066C56.2262 213.066 56.2262 213.066 57.5591 213.754ZM63.8446 203.615C64.9484 200.639 65.9607 196.755 66.691 193.655C67.0581 192.097 67.3576 190.721 67.5655 189.735C67.6695 189.241 67.7506 188.844 67.8059 188.57C67.8335 188.433 67.8547 188.327 67.869 188.255C67.8762 188.218 67.8817 188.191 67.8854 188.172C67.8872 188.162 67.8886 188.155 67.8896 188.15C67.8901 188.147 67.8905 188.146 67.8907 188.144C67.8909 188.144 67.891 188.143 67.891 188.143C67.8911 188.142 67.8911 188.142 67.8911 188.142C67.8912 188.142 67.8912 188.142 66.4187 187.856C64.9463 187.569 64.9463 187.569 64.9463 187.569C64.9463 187.569 64.9463 187.569 64.9463 187.57C64.9462 187.57 64.9462 187.57 64.9461 187.571C64.9459 187.571 64.9456 187.573 64.9452 187.575C64.9444 187.579 64.9431 187.586 64.9414 187.594C64.9381 187.612 64.9329 187.638 64.9261 187.672C64.9124 187.741 64.892 187.844 64.8651 187.977C64.8114 188.244 64.732 188.632 64.6299 189.116C64.4258 190.085 64.1314 191.437 63.7709 192.967C63.0459 196.045 62.0679 199.779 61.0319 202.572L63.8446 203.615ZM14.111 118.108C12.9225 117.125 11.5342 117.221 10.3927 117.761C9.32739 118.266 8.33497 119.199 7.46592 120.242L9.77047 122.163C10.5313 121.25 11.1902 120.703 11.6773 120.473C12.0882 120.278 12.1532 120.382 12.1984 120.42L14.111 118.108ZM7.46592 120.242C5.06647 123.121 2.81268 127.816 1.93591 131.517L4.85512 132.208C5.6347 128.917 7.6944 124.654 9.77047 122.163L7.46592 120.242ZM43.7168 63.1651C41.5173 64.2572 14.9183 77.6628 7.14185 120.937L10.0945 121.468C17.6436 79.459 43.3469 66.6982 45.051 65.8521L43.7168 63.1651ZM45.8839 64.5086C45.8839 61.3887 43.5034 47.4175 52.9612 32.8601L50.4455 31.2257C40.3848 46.7112 42.8839 61.8137 42.8839 64.5086H45.8839ZM52.9612 32.8601C62.6693 17.9173 70.7039 12.0199 75.5175 10.7163L74.7333 7.8206C68.8117 9.42433 60.2557 16.1256 50.4455 31.2257L52.9612 32.8601ZM91.716 9.31475C91.7146 9.31475 91.7277 9.31476 91.7585 9.31758C91.7886 9.32034 91.8292 9.3252 91.8817 9.33322C91.9877 9.34944 92.1238 9.37579 92.2914 9.41433C92.6276 9.49163 93.0477 9.60792 93.5374 9.75852L94.4192 6.89103C93.8918 6.72886 93.3965 6.59014 92.9637 6.49062C92.558 6.39734 92.1096 6.31475 91.716 6.31475V9.31475ZM93.5374 9.75852C96.127 10.5548 100.13 12.1423 102.36 13.0752L103.518 10.3074C101.275 9.36982 97.1584 7.73336 94.4192 6.89103L93.5374 9.75852ZM102.218 13.0068C103.077 13.4772 104.161 14.1993 105.359 15.1796L107.259 12.8572C105.941 11.7798 104.705 10.9484 103.66 10.3758L102.218 13.0068ZM105.359 15.1796C107.685 17.0812 110.381 19.9039 112.662 23.6209L115.219 22.0515C112.745 18.0213 109.818 14.9501 107.259 12.8572L105.359 15.1796ZM112.662 23.6209C113.396 24.8165 114.087 26.1037 114.708 27.4817L117.443 26.2484C116.767 24.7495 116.016 23.3502 115.219 22.0515L112.662 23.6209ZM114.708 27.4817C116.089 30.5426 117.13 34.0554 117.55 38.0158L120.533 37.6995C120.078 33.402 118.946 29.5807 117.443 26.2484L114.708 27.4817ZM142.455 41.3679C142.07 39.839 140.562 36.8949 138.31 33.7938L135.882 35.5566C138.062 38.559 139.301 41.1313 139.545 42.1004L142.455 41.3679ZM138.31 33.7938C136.293 31.0164 133.581 27.9756 130.312 25.5475L128.523 27.9559C131.485 30.1555 133.991 32.9525 135.882 35.5566L138.31 33.7938ZM130.312 25.5475C126.635 22.8174 122.169 20.8018 117.156 20.927L117.231 23.926C121.367 23.8228 125.19 25.481 128.523 27.9559L130.312 25.5475ZM117.156 20.927C115.995 20.956 114.811 21.0999 113.608 21.3736L114.274 24.2988C115.282 24.0694 116.268 23.9501 117.231 23.926L117.156 20.927ZM84.2668 37.8132C76.215 46.5973 74.6579 52.9473 70.2933 65.4686L73.1261 66.456C77.5447 53.7801 78.9249 48.0807 86.4783 39.8403L84.2668 37.8132ZM78.5772 66.9314C78.5772 66.7491 78.6336 66.3152 78.7985 65.5863C78.9554 64.8929 79.1876 64.0283 79.4831 63.0365C80.0735 61.055 80.9003 58.6206 81.8359 56.1328C82.7717 53.6448 83.8091 51.123 84.8178 48.9636C85.8415 46.7725 86.7883 45.059 87.5294 44.1128L85.1676 42.2629C84.2008 43.4972 83.1348 45.4785 82.0998 47.6939C81.05 49.941 79.9831 52.5373 79.028 55.0767C78.0728 57.6163 77.2222 60.1183 76.608 62.1799C76.3012 63.2097 76.0492 64.1433 75.8725 64.9244C75.7038 65.6699 75.5772 66.3869 75.5772 66.9314H78.5772ZM87.5294 44.1128C90.3303 40.5366 95.0001 33.8902 101.365 29.3913L99.6335 26.9415C92.8179 31.7589 87.8318 38.8613 85.1676 42.2629L87.5294 44.1128ZM113.941 21.3362C113.082 21.3362 111.12 21.4227 108.521 21.905L109.068 24.8547C111.475 24.4082 113.252 24.3362 113.941 24.3362V21.3362ZM108.521 21.905C108.404 21.9266 108.287 21.9498 108.169 21.9744L108.782 24.9111C108.879 24.8909 108.974 24.8721 109.068 24.8547L108.521 21.905ZM108.169 21.9744C107.305 22.1549 106.399 22.416 105.465 22.7461L106.465 25.5745C107.296 25.2809 108.071 25.0596 108.782 24.9111L108.169 21.9744ZM105.465 22.7461C99.0553 25.0127 90.7413 30.7499 84.2668 37.8132L86.4783 39.8403C92.7082 33.0439 100.627 27.639 106.465 25.5745L105.465 22.7461ZM101.365 29.3913L101.445 29.3352L99.7129 26.8854L99.6335 26.9415L101.365 29.3913ZM101.445 29.3352C103.328 28.0042 105.202 26.6815 106.789 25.7967L105.329 23.1763C103.572 24.1557 101.554 25.5837 99.7129 26.8854L101.445 29.3352ZM106.789 25.7967C107.656 25.3138 108.338 25.0184 108.826 24.9012L108.125 21.9843C107.237 22.1978 106.271 22.6512 105.329 23.1763L106.789 25.7967ZM108.826 24.9012C108.899 24.8837 108.962 24.8714 109.018 24.8632L108.572 21.8965C108.421 21.9191 108.272 21.9489 108.125 21.9843L108.826 24.9012ZM78.3412 66.0901C77.7945 66.7803 77.5521 66.9682 77.4205 67.0517C77.3477 67.0978 77.2667 67.1387 77.1016 67.2113C76.9466 67.2795 76.6952 67.3847 76.4102 67.5262L77.7443 70.2132C77.9473 70.1124 78.0984 70.0502 78.3093 69.9575C78.5102 69.8691 78.7586 69.7555 79.0274 69.585C79.5789 69.2351 80.0684 68.7412 80.6929 67.9528L78.3412 66.0901ZM76.754 70.3344L81.1456 71.3036L81.7921 68.374L77.4005 67.4049L76.754 70.3344ZM80.4119 68.7744L78.4601 70.7127L80.574 72.8414L82.5258 70.9032L80.4119 68.7744ZM78.9296 73.1572L82.3454 74.6109L83.5201 71.8505L80.1044 70.3968L78.9296 73.1572ZM48.5899 59.5495C48.9988 59.7551 49.6009 60.056 50.3611 60.4241L51.6683 57.7239C50.9266 57.3647 50.339 57.0711 49.9372 56.8691L48.5899 59.5495ZM50.3611 60.4241C50.5051 60.4938 50.6549 60.5659 50.81 60.6403L52.1065 57.9349C51.9551 57.8623 51.8089 57.7919 51.6683 57.7238L50.3611 60.4241ZM50.81 60.6403C53.7139 62.032 58.5494 64.2127 63.81 65.9386C69.0272 67.6503 74.8498 68.9792 79.6612 68.5145L79.3728 65.5284C75.2058 65.9308 69.8749 64.771 64.7452 63.0881C59.6589 61.4194 54.9543 59.2997 52.1065 57.9349L50.81 60.6403ZM47.7753 58.3966L48.2003 61.7737L51.1769 61.399L50.7518 58.022L47.7753 58.3966ZM48.2003 61.7737L48.2632 62.2731L51.2397 61.8985L51.1769 61.399L48.2003 61.7737ZM50.2228 60.6618L49.9449 60.5698L49.0022 63.4178L49.2801 63.5098L50.2228 60.6618ZM49.9449 60.5698L47.2951 59.6927L46.3523 62.5407L49.0022 63.4178L49.9449 60.5698ZM46.1722 65.004C46.3246 64.9702 46.365 64.9782 46.3315 64.976C46.2837 64.9728 46.1567 64.9531 46.0091 64.8632C45.8644 64.7752 45.7861 64.672 45.7609 64.6348C45.7505 64.6195 45.7494 64.6157 45.761 64.637C45.7768 64.6662 45.7856 64.6841 45.8195 64.7492L48.4807 63.3643C48.4501 63.3055 48.1825 62.674 47.5687 62.3005C46.898 61.8923 46.151 61.9359 45.5234 62.075L46.1722 65.004ZM45.8195 64.7492C45.9147 64.9323 46.1853 65.4773 46.8098 65.8219L48.2593 63.1953C48.3714 63.2572 48.4472 63.3354 48.4879 63.3879C48.5053 63.4104 48.513 63.4238 48.5105 63.4197C48.5072 63.4141 48.4995 63.4005 48.4807 63.3643L45.8195 64.7492ZM45.3556 61.4243L45.998 64.49L48.9343 63.8747L48.2918 60.809L45.3556 61.4243ZM45.998 64.49L46.0664 64.8163L49.0026 64.2009L48.9343 63.8747L45.998 64.49ZM45.294 64.9335L46.5963 65.4508L47.7038 62.6627L46.4015 62.1454L45.294 64.9335ZM46.5963 65.4508L46.9124 65.5764L48.0199 62.7883L47.7038 62.6627L46.5963 65.4508ZM46.9124 65.5764L47.6169 65.8562L48.7244 63.0681L48.0199 62.7883L46.9124 65.5764ZM47.6169 65.8562L47.7338 65.9027L48.8413 63.1146L48.7244 63.0681L47.6169 65.8562ZM50.6855 57.7175C50.7674 57.4737 50.8081 57.1978 50.8336 56.9992C50.8632 56.7698 50.8892 56.4972 50.9144 56.2001C50.9581 55.6855 51.0258 54.7487 51.0938 53.9353C51.2443 52.134 51.4834 49.779 51.9594 47.1498C52.9158 41.8669 54.8082 35.5975 58.7426 30.5413L56.375 28.6989C52.0142 34.303 50.0028 41.1169 49.0074 46.6154C48.5075 49.377 48.2586 51.8374 48.1042 53.6855C48.0197 54.6967 47.9806 55.2931 47.9252 55.9464C47.9008 56.2332 47.8792 56.4532 47.8582 56.6159C47.8333 56.8093 47.8206 56.8249 47.8415 56.7628L50.6855 57.7175ZM58.7426 30.5413C65.3446 22.057 70.818 16.8058 72.1386 15.7858L70.3048 13.4115C68.6977 14.6528 63.0456 20.1265 56.375 28.6989L58.7426 30.5413ZM75.5175 10.7163C77.2771 10.2397 79.5415 9.91805 81.8706 9.70599L81.5986 6.71834C79.2068 6.93611 76.7415 7.27671 74.7333 7.8206L75.5175 10.7163ZM81.8706 9.70599C81.9432 9.69938 82.0158 9.69288 82.0883 9.68649L81.8253 6.69804C81.7498 6.70469 81.6742 6.71146 81.5986 6.71834L81.8706 9.70599ZM82.0883 9.68649C86.3067 9.31522 90.4743 9.31475 91.716 9.31475V6.31475C90.4672 6.31475 86.1856 6.31429 81.8253 6.69804L82.0883 9.68649ZM72.1826 15.7504C73.3638 14.765 75.3053 13.4328 77.279 12.2347C79.2772 11.0218 81.1526 10.0419 82.2158 9.68342L81.2575 6.84061C79.8538 7.31382 77.7339 8.44919 75.7223 9.67021C73.6864 10.9061 71.6039 12.3263 70.2608 13.4468L72.1826 15.7504ZM82.2158 9.68343C82.276 9.66315 82.3308 9.64582 82.3805 9.63119L81.5332 6.75335C81.4421 6.78014 81.3501 6.80939 81.2575 6.8406L82.2158 9.68343ZM83.4568 14.1141C83.4568 13.6391 83.3524 11.0099 83.2354 8.19958L80.238 8.32445C80.3574 11.1915 80.4568 13.7212 80.4568 14.1141H83.4568ZM83.2353 8.19937C83.2346 8.18095 83.2341 8.16892 83.2333 8.14959L80.2359 8.27474C80.2365 8.28866 80.2373 8.30986 80.238 8.32466L83.2353 8.19937ZM83.2333 8.14969C83.1407 5.92972 83.0386 3.55865 82.9674 1.93439L79.9703 2.06561C80.0414 3.68833 80.1435 6.05724 80.2359 8.27464L83.2333 8.14969ZM94.1856 2.52958L92.5442 7.88523L95.4125 8.76432L97.0539 3.40867L94.1856 2.52958ZM92.5442 7.88523L90.7698 13.6745L93.6382 14.5536L95.4125 8.76432L92.5442 7.88523ZM109.518 8.93297C107.97 9.81157 106.417 11.4758 105.136 13.0838L107.482 14.953C108.728 13.3887 109.983 12.1187 110.999 11.5422L109.518 8.93297ZM105.136 13.0838C103.652 14.947 102.36 16.958 101.639 18.2116L104.239 19.7078C104.899 18.5608 106.108 16.6786 107.482 14.953L105.136 13.0838ZM131.487 21.5258C131.101 21.7407 130.785 22.1101 130.611 22.3187C130.384 22.5914 130.134 22.9296 129.875 23.2982C129.356 24.0391 128.747 24.9851 128.142 25.9615L130.692 27.5419C131.286 26.5836 131.86 25.6931 132.331 25.0206C132.568 24.6825 132.766 24.4198 132.917 24.2379C133.122 23.9919 133.115 24.0531 132.947 24.1466L131.487 21.5258ZM128.142 25.9615C127.181 27.5129 126.2 29.1849 125.546 30.3302L128.152 31.8174C128.792 30.6954 129.754 29.0556 130.692 27.5419L128.142 25.9615ZM103.533 22.0205C103.973 22.9552 104.296 23.8113 104.528 24.589L107.403 23.7315C107.125 22.8 106.746 21.8042 106.249 20.7445L103.533 22.0205ZM104.528 24.5891C104.558 24.689 104.586 24.7877 104.613 24.8852L107.505 24.0878C107.473 23.9701 107.439 23.8514 107.403 23.7315L104.528 24.5891ZM104.613 24.8852C105.61 28.5018 104.594 30.2239 104.322 30.494L106.436 32.6227C107.738 31.3297 108.677 28.3372 107.505 24.0878L104.613 24.8852ZM116.611 18.5935L115.738 22.0603L118.648 22.7927L119.52 19.3259L116.611 18.5935ZM115.738 22.0603L114.621 26.4988L117.53 27.2313L118.648 22.7927L115.738 22.0603ZM114.621 26.4988L114.171 28.2848L117.081 29.0172L117.53 27.2313L114.621 26.4988ZM139.737 29.2953C139.086 30.3117 137.72 32.1044 136.096 33.5572L138.096 35.7933C139.964 34.1224 141.498 32.107 142.263 30.914L139.737 29.2953ZM136.096 33.5572C135.103 34.4452 134.092 35.1346 133.157 35.4828L134.204 38.2942C135.631 37.7627 136.964 36.8053 138.096 35.7933L136.096 33.5572ZM32.646 94.3847L31.6701 103.107L34.6515 103.44L35.6274 94.7183L32.646 94.3847ZM32.0191 104.246C33.955 106.518 38.3068 109.63 45.2396 112.298C52.2131 114.981 61.8891 117.252 74.5769 117.763L74.6976 114.765C62.304 114.266 52.9548 112.052 46.317 109.498C39.6385 106.928 35.7928 104.05 34.3026 102.301L32.0191 104.246ZM79.1182 108.54C79.2834 108.53 79.449 108.52 79.6149 108.509L79.4188 105.515C79.2588 105.526 79.0991 105.536 78.9399 105.545L79.1182 108.54ZM79.6149 108.509C79.8277 108.495 80.0791 108.504 80.4097 108.527C80.7078 108.548 81.1172 108.584 81.4974 108.595C82.2603 108.618 83.3335 108.566 84.2883 107.889L82.5527 105.442C82.4232 105.534 82.1836 105.614 81.5852 105.597C81.2849 105.588 81.0015 105.561 80.6173 105.535C80.2656 105.51 79.8451 105.488 79.4189 105.515L79.6149 108.509ZM74.5769 117.763C74.904 117.776 75.2332 117.788 75.5644 117.799L75.6623 114.801C75.3387 114.79 75.0172 114.778 74.6976 114.765L74.5769 117.763ZM80.9873 109.385L81.3993 107.339L78.4584 106.747L78.0464 108.792L80.9873 109.385ZM80.9178 108.655L81.3298 107.579L78.5279 106.507L78.1159 107.583L80.9178 108.655ZM75.5644 117.799C75.9689 117.812 76.3764 117.824 76.787 117.833L76.8572 114.834C76.4559 114.825 76.0576 114.814 75.6623 114.801L75.5644 117.799ZM76.787 117.833C77.1989 117.843 77.6139 117.851 78.0319 117.857L78.0744 114.857C77.6656 114.851 77.2599 114.844 76.8572 114.834L76.787 117.833ZM76.6867 117.828C77.1817 117.872 77.5383 117.667 77.6916 117.56C77.8554 117.445 77.9607 117.324 78.0107 117.262C78.1137 117.135 78.1786 117.014 78.2064 116.961C78.271 116.838 78.3245 116.705 78.3635 116.604C78.4473 116.385 78.5438 116.096 78.6454 115.774C78.8513 115.122 79.1107 114.23 79.385 113.254C79.935 111.298 80.5603 108.954 80.9682 107.391L78.0655 106.633C77.6602 108.186 77.0401 110.511 76.4971 112.442C76.2249 113.41 75.9758 114.265 75.7844 114.872C75.6873 115.18 75.6129 115.398 75.5627 115.529C75.5348 115.602 75.5305 115.604 75.5477 115.571C75.5518 115.564 75.5956 115.477 75.6802 115.373C75.721 115.323 75.8178 115.209 75.9738 115.1C76.1193 114.999 76.4688 114.796 76.9574 114.84L76.6867 117.828ZM78.513 102.148C78.4527 102.723 78.7303 103.116 78.8324 103.245C78.954 103.399 79.0786 103.495 79.134 103.536C79.2529 103.623 79.3646 103.679 79.4105 103.702C79.5197 103.756 79.6418 103.806 79.733 103.842C79.896 103.907 80.2286 104.032 80.4654 104.124C81.0378 104.347 81.6893 104.623 82.2193 104.938C82.4829 105.095 82.6747 105.237 82.7991 105.356C82.9306 105.482 82.9186 105.516 82.8959 105.444C82.8573 105.323 82.8781 105.188 82.9113 105.121C82.9213 105.101 82.8655 105.22 82.5527 105.442L84.2883 107.889C84.8296 107.505 85.3069 107.04 85.5961 106.46C85.9085 105.833 85.9546 105.162 85.7543 104.534C85.5699 103.955 85.2092 103.51 84.872 103.187C84.5279 102.858 84.1309 102.584 83.7529 102.359C82.9994 101.911 82.1553 101.563 81.5554 101.329C81.206 101.193 81.0333 101.131 80.8388 101.053C80.7512 101.019 80.7315 101.009 80.7443 101.015C80.751 101.018 80.7679 101.027 80.7914 101.04C80.8124 101.052 80.8566 101.078 80.911 101.119C80.9542 101.15 81.0696 101.238 81.1853 101.384C81.2814 101.506 81.5563 101.892 81.4966 102.461L78.513 102.148ZM45.3519 96.1683C46.5029 97.1684 48.3494 98.1801 50.4472 99.1103C52.5801 100.056 55.0958 100.97 57.6779 101.743C60.2597 102.515 62.9344 103.153 65.3859 103.537C67.8104 103.916 70.124 104.064 71.9362 103.787L71.4831 100.822C70.1236 101.029 68.1676 100.935 65.8497 100.573C63.5588 100.214 61.0185 99.6106 58.5376 98.8686C56.0572 98.1267 53.6628 97.2543 51.6632 96.3678C49.6286 95.4657 48.1204 94.5997 47.3196 93.9038L45.3519 96.1683ZM37.5767 89.5185C37.5692 89.4593 37.5644 89.3575 37.5756 89.2049L34.5835 88.9863C34.5617 89.2854 34.5622 89.5921 34.6001 89.8932L37.5767 89.5185ZM37.5756 89.2049C37.6356 88.3835 38.1791 86.8252 39.2752 84.7867C40.3383 82.8096 41.826 80.5544 43.577 78.3913C45.3297 76.2261 47.318 74.1881 49.3724 72.6199C51.4414 71.0405 53.4833 70.0097 55.3514 69.7168L54.8867 66.753C52.3347 67.1532 49.8288 68.4973 47.552 70.2353C45.2606 71.9845 43.105 74.2062 41.2452 76.5038C39.3837 78.8034 37.7902 81.2139 36.633 83.366C35.5088 85.4566 34.6928 87.491 34.5835 88.9863L37.5756 89.2049ZM31.5436 93.1161C31.7094 93.3058 31.885 93.4989 32.07 93.6949L34.2517 91.6358C34.0914 91.466 33.9415 91.3009 33.8018 91.1412L31.5436 93.1161ZM36.1398 87.5968C35.5341 87.5724 34.8171 87.5958 34.1167 87.7053C33.4426 87.8107 32.6495 88.0159 31.9907 88.4407C31.2784 88.9 30.6218 89.7042 30.6683 90.8649C30.7087 91.8719 31.279 92.8102 32.0421 93.6645L34.2796 91.6661C33.6763 90.9907 33.6644 90.7073 33.6659 90.7449C33.6679 90.7948 33.6522 90.8763 33.6085 90.9481C33.5738 91.0053 33.5543 91.0021 33.6166 90.9619C33.7652 90.8661 34.0821 90.7472 34.5802 90.6693C35.052 90.5955 35.5693 90.5763 36.0193 90.5944L36.1398 87.5968ZM33.7298 102.209C33.0321 101.516 31.7908 101.31 30.5419 101.93L31.8761 104.617C32.0364 104.538 32.0726 104.566 32.0029 104.558C31.9739 104.555 31.9275 104.545 31.8682 104.518C31.8173 104.495 31.7232 104.445 31.6159 104.338L33.7298 102.209ZM30.5419 101.93C29.8399 102.279 29.4523 102.902 29.2562 103.447C29.0562 104.003 28.9999 104.614 29.0419 105.198C29.1256 106.362 29.6202 107.686 30.64 108.699L32.7539 106.57C32.3098 106.129 32.0724 105.515 32.0342 104.983C32.0152 104.719 32.0504 104.543 32.0791 104.463C32.1117 104.372 32.0901 104.511 31.8761 104.617L30.5419 101.93ZM30.64 108.699C31.1653 109.221 31.7975 109.513 32.2335 109.685C32.4594 109.773 32.6717 109.844 32.8143 109.892C33.0025 109.955 33.0127 109.963 32.9814 109.947L34.3158 107.26C34.1218 107.164 33.8839 107.087 33.7722 107.049C33.6148 106.996 33.4752 106.949 33.331 106.893C33.0268 106.773 32.8458 106.662 32.7539 106.57L30.64 108.699ZM41.9441 114.465C41.723 114.465 41.5605 114.413 41.5166 114.399C41.4523 114.379 41.4082 114.359 41.394 114.352C41.3653 114.339 41.3618 114.336 41.3978 114.356C41.4658 114.396 41.5772 114.465 41.7483 114.576C42.0467 114.769 42.591 115.13 43.1537 115.491C44.3421 116.255 45.9916 117.27 47.9168 118.241C51.7041 120.152 56.8255 122.037 61.7074 121.229L61.2176 118.269C57.3163 118.915 52.9225 117.407 49.2684 115.563C47.4728 114.657 45.9201 113.703 44.7754 112.967C44.1716 112.579 43.7667 112.308 43.377 112.056C43.204 111.944 43.0366 111.838 42.8966 111.758C42.8287 111.718 42.7388 111.669 42.6422 111.624C42.594 111.602 42.5205 111.571 42.4316 111.542C42.363 111.52 42.1805 111.465 41.9441 111.465V114.465ZM71.8127 122.699C72.4353 122.656 73.4051 122.58 74.2974 122.49C74.7427 122.446 75.1798 122.397 75.5494 122.346C75.8771 122.3 76.2729 122.238 76.5595 122.146L75.6428 119.29C75.6635 119.283 75.6351 119.293 75.5242 119.313C75.4258 119.332 75.2966 119.352 75.138 119.374C74.8213 119.418 74.4259 119.463 73.9983 119.505C73.1449 119.591 72.2073 119.665 71.6063 119.706L71.8127 122.699ZM78.6219 120.813C78.8986 120.538 79.0225 120.201 79.0492 120.133C79.1069 119.986 79.157 119.824 79.2002 119.671L76.3129 118.857C76.2819 118.967 76.2625 119.022 76.2561 119.038C76.2528 119.046 76.2615 119.023 76.284 118.981C76.2958 118.959 76.3166 118.922 76.3476 118.876C76.377 118.833 76.4294 118.763 76.5081 118.684L78.6219 120.813ZM79.2002 119.671C79.7111 117.86 80.5864 112.188 81.0016 109.302L78.0321 108.875C77.6026 111.861 76.7561 117.286 76.3129 118.857L79.2002 119.671ZM76.5595 122.146C77.1994 121.941 77.7471 121.462 78.0646 121.159C78.4318 120.808 78.7527 120.431 78.9482 120.175L76.5649 118.353C76.4489 118.505 76.2304 118.762 75.992 118.99C75.874 119.103 75.7694 119.191 75.6857 119.251C75.5905 119.319 75.5786 119.31 75.6428 119.29L76.5595 122.146ZM32.07 93.6949C36.2543 98.1284 45.6943 104.498 59.7057 107.287L60.2915 104.345C46.8426 101.667 37.976 95.5819 34.2517 91.6358L32.07 93.6949ZM71.3762 108.635C73.856 108.725 76.4375 108.7 79.1183 108.54L78.9399 105.545C76.3547 105.699 73.8691 105.723 71.4851 105.637L71.3762 108.635ZM64.6179 113.84C65.6013 114.013 66.5119 114.033 67.3649 113.8C68.2418 113.56 68.927 113.091 69.5076 112.503C70.0618 111.941 70.5475 111.243 71.0229 110.516C71.528 109.744 72.0125 108.954 72.6737 107.975L70.1875 106.296C69.5219 107.282 68.9508 108.204 68.5123 108.874C68.044 109.59 67.6979 110.066 67.3727 110.395C67.0739 110.698 66.832 110.836 66.5748 110.906C66.2937 110.982 65.863 111.013 65.1386 110.886L64.6179 113.84ZM59.7057 107.287C61.1524 107.575 62.6481 107.825 64.1921 108.031L64.5884 105.057C63.1083 104.86 61.6758 104.621 60.2915 104.345L59.7057 107.287ZM69.1625 108.646C69.8832 108.698 70.2721 108.687 70.6156 108.662C70.9071 108.641 71.0279 108.622 71.3761 108.635L71.4851 105.637C70.9367 105.617 70.6325 105.653 70.3956 105.67C70.2107 105.684 69.9676 105.696 69.3772 105.654L69.1625 108.646ZM64.1921 108.031C65.2748 108.175 66.8009 108.409 68.1338 108.552L68.4541 105.57C67.168 105.431 65.765 105.214 64.5884 105.057L64.1921 108.031ZM68.1338 108.552C68.4849 108.59 68.8312 108.623 69.1625 108.646L69.3772 105.654C69.0899 105.633 68.78 105.605 68.4541 105.57L68.1338 108.552ZM66.8356 106.71C66.7722 106.973 66.6321 107.429 66.4387 107.837C66.3427 108.039 66.2506 108.193 66.1728 108.295C66.0866 108.408 66.0742 108.383 66.163 108.339L67.4971 111.026C67.9763 110.788 68.3217 110.424 68.5578 110.115C68.8023 109.794 68.9969 109.443 69.1489 109.123C69.4515 108.486 69.653 107.824 69.7523 107.412L66.8356 106.71ZM66.163 108.339C66.0837 108.379 65.9647 108.403 65.8012 108.388C65.7227 108.381 65.6478 108.366 65.5845 108.348C65.5182 108.329 65.4837 108.313 65.4859 108.314L64.1621 111.006C64.7355 111.288 66.1323 111.704 67.4972 111.026L66.163 108.339ZM46.8098 65.8219C46.9678 65.9091 47.1289 65.9973 47.293 66.0865L48.725 63.4503C48.5667 63.3643 48.4114 63.2793 48.2593 63.1953L46.8098 65.8219ZM49.8888 57.9936L49.6882 58.3738L52.3413 59.7742L52.5419 59.3941L49.8888 57.9936ZM49.6882 58.3738L48.3621 60.8861L51.0151 62.2865L52.3413 59.7742L49.6882 58.3738ZM48.3621 60.8861L48.147 61.2936L50.8001 62.694L51.0151 62.2865L48.3621 60.8861ZM48.147 61.2936L46.8441 63.762L49.4972 65.1623L50.8001 62.694L48.147 61.2936ZM46.8441 63.762L46.6825 64.0682L49.3355 65.4686L49.4972 65.1623L46.8441 63.762ZM56.5073 67.6669L53.5101 60.3413L50.7335 61.4773L53.7307 68.8029L56.5073 67.6669ZM53.5101 60.3413L52.8466 58.7196L50.07 59.8556L50.7335 61.4773L53.5101 60.3413ZM52.8466 58.7196L52.6036 58.1258L49.8271 59.2619L50.07 59.8556L52.8466 58.7196ZM47.293 66.0865C47.8501 66.389 48.4421 66.7025 49.0655 67.0231L50.4374 64.3551C49.8343 64.045 49.2623 63.7421 48.725 63.4503L47.293 66.0865ZM49.0655 67.0231C50.6895 67.8581 52.5288 68.7426 54.5199 69.6101L55.7181 66.8597C53.7905 66.02 52.0093 65.1633 50.4374 64.3551L49.0655 67.0231ZM54.5199 69.6101C62.7614 73.2005 73.954 76.655 83.2419 74.6985L82.6236 71.7629C74.3172 73.5126 63.88 70.4155 55.7181 66.8597L54.5199 69.6101ZM50.778 60.2429L48.4076 65.0227L51.0953 66.3555L53.4656 61.5757L50.778 60.2429ZM51.2777 218.197L45.0406 220.957L46.2546 223.7L52.4917 220.94L51.2777 218.197ZM8.29426 174.584C8.16504 175.045 8.0592 175.743 8.11704 176.485C8.174 177.215 8.4074 178.186 9.15776 178.949L11.2956 176.844C11.2344 176.782 11.1361 176.612 11.108 176.252C11.0808 175.902 11.1366 175.559 11.1828 175.394L8.29426 174.584ZM58.6638 106.812C58.8761 107.981 59.0938 109.594 59.8923 110.928C60.7822 112.416 62.2705 113.426 64.6179 113.84L65.1386 110.886C63.4709 110.592 62.8247 109.986 62.4666 109.388C62.0169 108.637 61.873 107.694 61.6156 106.276L58.6638 106.812ZM62.8088 106.631C62.6967 107.082 62.5495 107.826 62.6157 108.583C62.682 109.343 63.0098 110.454 64.1755 111.013L65.4725 108.308C65.5431 108.342 65.5998 108.405 65.624 108.449C65.6368 108.473 65.615 108.444 65.6043 108.322C65.5814 108.06 65.6346 107.699 65.7205 107.353L62.8088 106.631Z" fill="black"/>
</g>
</svg>
