<svg width="112" height="152" viewBox="0 0 112 152" fill="none" xmlns="http://www.w3.org/2000/svg">
<g id="Plancton">
<path id="Vector 109" d="M99.4252 100.259L98.3686 96.8508M99.4252 100.259L100.99 105.513C101.322 106.791 102.014 110.398 102.128 114.601C102.242 118.804 101.701 122.979 101.417 124.541C101.052 126.725 99.9609 129.634 99.5619 130.789M99.4252 100.259L99.852 99.8328C101.673 98.6968 106.111 89.5141 108.102 85.0647L110.378 80.2367C110.615 79.006 111.174 76.4026 110.947 75.8346C110.662 75.1246 109.666 74.2726 109.24 73.9886C107.901 73.0975 107.248 73.2786 106.822 73.2786C106.395 73.2786 105.684 73.7046 105.257 74.5566C104.916 75.2382 105.21 76.3553 105.399 76.8286C105.526 77.0814 105.923 77.6267 106.57 77.9839M64.8611 63.3386C64.0646 63.793 61.6844 65.3266 60.5939 66.0366C59.5034 67.1726 57.2086 69.615 56.7535 70.2966M64.8611 63.3386C63.2681 60.0441 61.9215 54.7711 61.4474 52.5464C60.9733 50.9371 59.9112 46.412 59.4561 41.1863C59.0009 35.9607 58.9819 32.4769 59.0293 31.3883C59.0768 26.8442 59.3992 16.8757 60.3095 13.3541C61.2198 9.83248 62.5853 3.65069 63.1543 1C62.5853 5.40204 61.4474 14.7457 61.4474 16.9041C61.4474 19.0626 61.4474 23.3889 61.4474 25.2822C61.6371 29.3056 62.187 38.2327 62.8698 41.7543C63.7232 46.1564 66.1616 59.1826 68.7016 62.5386M64.8611 63.3386C65.3911 63.0362 66.9287 62.7338 68.7016 62.5386M68.1326 109.008C68.0378 108.818 67.8482 108.467 67.8482 108.353C67.8482 108.239 65.0034 102.91 63.581 100.259C62.4905 98.4602 59.8543 93.954 58.0337 90.3188C55.7578 85.7747 55.3311 82.6507 55.1888 77.3967C55.1889 76.8286 55.4734 74.9497 55.6156 74.0812M69.6799 112.755L71.6886 118.151L73.2533 124.399C74.4386 128.801 76.8377 137.747 76.9515 138.315C77.0653 138.883 77.1887 139.783 77.2362 140.161C77.1414 141.629 76.7526 144.961 75.956 146.551C75.1595 148.142 75.3397 149.77 75.5293 150.385C75.5292 150.48 75.6428 150.726 76.098 150.953C76.5532 151.18 77.6626 150.527 78.0894 150.101C78.9428 149.344 80.6212 147.517 81.0764 146.835C81.6453 145.273 82.7833 141.95 82.7833 141.155C82.7833 140.36 84.1108 140.351 84.7746 140.445C85.628 140.587 87.5909 140.843 88.6151 140.729C89.6392 140.616 91.3176 139.925 92.0288 139.593C92.9296 139.025 94.8451 137.776 95.3003 137.321C95.4417 137.18 95.7147 136.899 96.0584 136.514M72.3998 114.317C72.0584 113.976 59.0768 106.98 52.6286 103.525C51.2062 102.72 48.1338 100.798 47.2235 99.5488C46.0856 97.9868 45.5166 97.5608 45.5166 96.7088C45.5166 95.8568 45.6589 95.0048 46.2278 94.4368C46.7968 93.8688 47.7924 93.0168 48.2192 93.0168C48.6459 93.0168 49.2148 92.5908 50.0683 94.2948C50.9217 95.9988 50.6372 97.2768 50.495 97.2768C50.4561 97.2768 50.4171 97.3938 50.3374 97.5608M48.0769 98.6968C48.8585 98.7489 49.3729 98.5722 49.7179 98.3274M49.7179 98.3274C49.4775 98.471 49.4993 99.2648 49.926 99.4068C50.1557 99.4833 50.3854 99.6008 50.6372 99.6267M49.7179 98.3274C50.057 98.0869 50.2325 97.7806 50.3374 97.5608M50.3374 97.5608C50.4643 97.4188 50.6372 97.2768 51.2062 97.4188C51.6614 97.5324 51.7751 97.9395 51.7751 98.1288C51.8226 98.4128 51.8036 99.066 51.3484 99.4068C51.0857 99.6036 50.8533 99.6489 50.6372 99.6267M50.6372 99.6267C51.2062 99.7916 53.1501 100.874 54.051 101.395L59.4561 104.519L65.7146 108.069L68.2749 109.063L70.693 110.057M96.0584 136.514C97.0981 135.351 98.7838 133.243 99.4252 131.215C99.446 131.132 99.4939 130.986 99.5619 130.789M96.0584 136.514C96.1538 136.753 97.1494 137.747 97.1494 138.599C97.1494 139.451 97.4339 142.575 97.4339 142.717C97.4339 142.859 97.7184 143.569 98.1451 143.853C98.5718 144.137 99.283 144.279 99.9942 143.001C100.563 141.979 100.895 140.019 100.99 139.167C101.085 138.599 101.274 137.35 101.274 136.895C101.274 136.327 100.705 134.055 100.563 133.487C100.485 133.175 100.089 132.446 99.9942 132.067L99.5619 130.789M98.3686 96.8508L97.5761 94.2948C96.9123 91.9755 95.3003 86.9108 94.1624 85.2067C92.74 83.0767 90.4642 76.9707 88.1883 74.2726C88.0461 73.8466 86.4815 71.2906 85.2013 69.4446C84.1772 67.9678 82.3091 66.4626 81.5031 65.8946L77.9471 63.7646C77.8049 63.6226 76.3825 62.4865 73.3955 62.3445C71.9985 62.2781 70.2592 62.367 68.7016 62.5386M98.3686 96.8508C98.8726 96.3964 101.843 91.7388 103.266 89.4668L107.817 80.0947L107.975 79.6687M107.975 79.6687L108.813 77.3967C108.481 77.7753 107.618 78.4475 106.822 78.1067C106.734 78.0692 106.65 78.028 106.57 77.9839M107.975 79.6687C107.675 79.9527 107.106 80.3787 105.968 79.3847C105.058 78.5895 105.99 78.1195 106.57 77.9839M72.8265 93.5848C72.6646 93.9082 72.0876 95.2444 71.1481 96.2828M68.4171 97.5608C69.5196 97.6831 70.4375 97.0681 71.1481 96.2828M71.1481 96.2828C71.1319 96.3635 72.4578 99.335 73.6575 101.963C73.7336 102.13 73.8092 102.295 73.8839 102.458M92.4555 87.4454L93.1667 91.8808L93.3564 93.0168M93.5935 87.0527C92.9557 87.3573 91.867 87.6844 90.8909 87.54M89.184 86.3427C89.562 87.0973 90.1981 87.4375 90.8909 87.54M90.8909 87.54C90.7128 88.0225 90.3206 88.9638 89.8952 89.6911M79.654 95.9988C76.3541 96.4532 73.6326 96.1881 72.6843 95.9988L71.8309 95.4308M79.654 95.9988C79.9385 97.6171 80.7635 101.036 81.7876 101.763M79.654 95.9988C81.3664 95.763 82.8091 95.2091 83.9212 94.6418M73.8839 102.458C74.7034 104.247 75.4166 105.77 75.5291 105.939C75.7567 106.28 78.0894 110.814 79.2273 113.039C79.3443 113.378 79.5145 113.821 79.7285 114.317M73.8839 102.458C74.5967 102.571 75.9351 102.547 77.0937 102.49M93.3564 93.0168L94.1624 97.8448C94.5417 99.4068 95.3003 102.559 95.3003 102.673C95.3003 102.786 95.8693 106.034 96.1538 107.643C96.2194 108.02 96.2975 108.575 96.3575 109.205M93.3564 93.0168C93.425 93.4276 92.9976 93.764 92.5406 94.2948M79.7285 114.317L79.7963 112.897L80.5075 111.051C80.8393 110.625 81.7876 109.83 82.9255 110.057C84.3479 110.341 85.2014 110.767 85.4858 111.477C85.2014 110.625 84.7746 110.199 84.9169 109.347C85.0307 108.665 85.7229 107.927 86.0548 107.643C86.4815 107.359 87.5056 106.819 88.1884 106.933C89.0418 107.075 91.0332 106.791 92.4555 107.927C93.5935 108.836 93.7831 110.294 93.7357 110.909V112.329M79.7285 114.317C79.9935 114.931 80.3258 115.627 80.7072 116.305M93.7357 112.329L96.3575 109.205M93.7357 112.329L93.3913 112.613M96.3575 109.205C96.4708 110.396 96.5192 111.857 96.296 112.897C95.9546 114.487 95.5848 115.642 95.4426 116.021C95.4184 116.13 95.3807 116.275 95.3304 116.441M87.1927 116.305L84.0634 116.441M87.1927 116.305C87.2401 117.875 87.4487 121.042 87.9039 121.145M87.1927 116.305L90.322 115.083M80.7072 116.305C81.2652 117.297 81.9284 118.251 82.641 118.861C83.1069 119.26 83.5921 119.595 84.0634 119.874M80.7072 116.305L83.9212 116.447L84.0634 116.441M77.0937 102.49C77.7046 102.46 78.2655 102.422 78.6583 102.389C79.4382 102.259 80.697 102.024 81.7876 101.763M77.0937 102.49C75.8136 101.111 75.3868 98.1288 75.3868 96.2828M81.7876 101.763C82.6861 101.548 83.4705 101.316 83.779 101.111C84.1825 100.842 85.1265 100.32 86.0548 99.7985M83.9212 94.6418C85.488 93.8426 86.3983 93.0168 86.4815 93.0168C86.5244 93.0168 86.7485 92.8488 87.0602 92.5908M83.9212 94.6418C84.2057 95.0048 85.7703 97.6342 86.0548 99.7985M86.0548 99.7985C87.09 99.2172 88.1056 98.6374 88.3306 98.4128C88.7573 97.9868 91.4599 95.9988 92.0288 95.0048C92.1863 94.7296 92.3656 94.498 92.5406 94.2948M87.0602 92.5908C87.7816 91.9935 88.9719 90.9137 89.4685 90.3188C89.61 90.1493 89.7544 89.9319 89.8952 89.6911M87.0602 92.5908C87.6194 93.0168 89.6998 96.1408 89.6998 97.2768M89.8952 89.6911C90.1228 90.0796 91.7536 92.9221 92.5406 94.2948M84.0634 116.441C83.9496 117.582 84.016 119.205 84.0634 119.874M84.0634 119.874C85.204 120.548 86.2627 120.891 86.766 120.991C87.0587 121.04 87.4687 121.098 87.9039 121.145M87.9039 121.145C88.7374 121.235 89.6637 121.282 90.0375 121.133C90.6008 120.908 91.8781 120.059 92.4555 119.716M90.322 115.083L90.4642 115.027L93.3913 112.613M90.322 115.083C91.0332 116.151 92.4555 118.573 92.4555 119.716M92.4555 119.716C92.6071 119.626 92.7105 119.571 92.74 119.571C92.8823 119.571 94.0202 118.719 94.5891 118.009C94.9283 117.586 95.1833 116.926 95.3304 116.441M93.3913 112.613C94.0003 113.603 95.2406 115.754 95.3304 116.441M95.1581 121.133C93.7357 121.559 93.309 124.257 87.9039 123.689M79.3695 92.5908C82.7833 92.3068 84.4902 90.4608 85.3436 89.8928M76.1467 67.3146C79.276 67.2672 85.6281 69.6434 86.766 79.5267C86.9082 79.8107 86.6237 82.3667 85.9125 84.7807C85.3436 86.7119 82.0721 88.4254 80.5075 89.0408C78.6583 89.6088 74.3343 90.1484 71.8309 87.7627C65.5723 83.5595 64.956 76.3553 65.4301 73.2786M65.4301 73.2786C63.8655 73.8466 60.8784 73.9886 60.7362 73.9886L61.8741 72.5686L59.8828 72.1426L61.4474 70.1546L59.7405 69.4446L61.1629 68.7346C62.9646 68.7346 66.9378 68.5642 68.4171 67.8826C69.8964 67.201 71.499 65.7052 72.1153 65.0425C72.4472 64.5692 73.1395 63.5658 73.2533 63.3386C73.367 63.1113 74.0593 60.9718 74.3912 59.9305L74.5334 59.6465L75.1024 61.6345L76.098 59.9305L76.3825 62.0605L77.9472 60.3565L77.9471 60.9245C78.3264 64.2379 76.3541 71.3474 65.4301 73.2786ZM55.6156 74.0812L56.1846 74.6986L58.6026 72.5686L54.4777 67.8826C54.0225 67.6554 51.4674 64.9479 50.2467 63.6225M55.6156 74.0812L49.6416 67.5986C49.0726 67.0306 47.8778 65.8662 47.6502 65.7526M47.6502 65.7526L46.2278 67.3146L45.0899 66.0366L46.6545 64.4745M47.6502 65.7526C47.7313 65.6716 49.1057 64.5762 50.2467 63.6225M46.6545 64.4745C46.3132 64.171 41.202 59.8987 38.6891 57.8005C38.5755 57.6869 37.0299 56.4831 36.2713 55.8678M46.6545 64.4745L48.7881 62.3445M48.7881 62.3445L50.495 60.6405C50.8743 61.1138 51.6614 62.0889 51.7751 62.2025C51.8363 62.2636 51.108 62.9027 50.2467 63.6225M48.7881 62.3445L42.6718 57.0905L38.1202 53.5404M38.1202 53.5404L34.8487 57.6585C34.2797 57.3271 33.1703 56.6361 33.2841 56.5225C33.3376 56.469 34.0454 55.6154 34.9378 54.5345M38.1202 53.5404C38.4996 53.0671 39.2868 52.092 39.4005 51.9784C39.5143 51.8648 38.4997 51.1738 37.9782 50.8424C37.1755 51.819 35.9402 53.3202 34.9378 54.5345M36.698 52.5464C32.9524 50.2744 25.0818 45.6452 23.3749 45.3044M34.9378 54.5345C34.7529 54.3073 26.6464 49.1384 22.6163 46.5824M22.6163 46.5824C22.0948 47.4344 21.0232 49.1384 20.9095 49.1384C20.7957 49.1384 19.6293 48.4757 19.0603 48.1444L20.4556 45.9555M22.6163 46.5824L24.8921 42.7484L23.043 41.8963L21.5043 44.3104M20.4556 45.9555C17.7621 44.5551 11.8346 41.6407 9.67256 41.1863M20.4556 45.9555L21.5043 44.3104M9.67256 41.1863L8.53464 43.0324L6.82777 42.3224L7.90418 40.3343M9.67256 41.1863L10.2415 39.7663M21.5043 44.3104C18.8405 42.985 12.8587 40.2207 10.2415 39.7663M10.2415 39.7663L11.3794 37.9203L9.67256 37.0683L8.44238 39.3403M8.44238 39.3403C8.28861 39.3403 3.69851 38.2043 1.42269 37.6363C1.13821 37.6363 0.711489 37.7215 1.28045 38.0623C1.8494 38.4031 5.93333 39.719 7.90418 40.3343M8.44238 39.3403L7.90418 40.3343M73.8222 72.5686C72.2576 73.7046 72.9972 77.9363 75.3868 79.5267C77.7765 81.1171 79.7963 80.3787 80.5075 79.8107C80.7445 79.29 81.0764 77.8227 80.5075 76.1186C79.9385 74.4146 78.3739 73.1366 77.6627 72.7106C77.0937 72.2846 75.036 71.6873 73.8222 72.5686ZM75.6713 73.1366C75.0393 73.0952 74.4281 73.4994 74.3912 74.1306C74.3567 74.7191 74.8062 75.1597 75.3868 75.2666C76.0536 75.3895 76.7807 74.9489 76.8092 74.2726C76.8357 73.6458 76.2984 73.1777 75.6713 73.1366ZM67.5637 54.6765C66.7672 54.5629 62.3008 55.2918 60.1673 55.6705L59.7405 53.9665L67.2792 52.9724L67.5637 54.6765ZM56.7535 41.7543C58.5552 41.0917 62.8129 39.8799 65.4301 40.3343C65.4301 40.713 65.4301 41.6123 65.4301 42.1804C63.1543 41.9531 58.7923 43.0324 56.8958 43.6004L56.7535 41.7543ZM64.2922 25.2822C64.2922 25.8502 64.2922 26.6549 64.2922 26.9862C62.206 27.0809 57.6638 27.3554 56.1846 27.6962V25.9922C56.8958 24.9982 63.8655 25.2822 64.2922 25.2822ZM58.1759 9.37807L57.7492 11.2241C59.4385 11.1797 62.837 11.2435 63.7232 11.8135L64.0077 10.2301C62.1112 9.94608 58.2897 9.37807 58.1759 9.37807Z" stroke="black"/>
</g>
</svg>
