<svg width="152" height="115" viewBox="0 0 152 115" fill="none" xmlns="http://www.w3.org/2000/svg">
<g id="Order">
<g id="Vector 68">
<path d="M34.8331 24.6103C33.9683 25.3924 33.2473 26.1934 32.6819 26.8153C32.2907 27.6157 31.5085 29.5575 31.5085 30.9218C27.0564 27.6366 9.3442 12.3431 1 5.10691L4.91134 1L34.8331 24.6103C36.3613 23.2281 38.3386 21.9045 40.7001 21.7306C43.523 21.5227 45.7673 22.0242 47.6346 23.839C49.8918 26.0326 53.2167 29.3608 57.91 34.442C59.7 33.5293 61.8996 32.7601 63.7771 33.073C66.1239 33.4641 69.0574 36.5932 68.2751 38.3533C67.6493 39.7614 66.2869 42.7861 64.7549 44.4159C65.4083 46.1341 66.1239 47.3228 66.1239 48.1254L90.3742 45.9809V62.1999C85.534 62.136 81.0879 62.3243 78.6402 62.7992C78.6402 62.7992 74.0957 63.1851 71.9909 63.7771C65.7327 65.5372 62.9948 65.5372 62.4081 68.4707C62.1844 69.5889 64.1682 71.7953 66.515 72.7731C69.1747 74.0248 86.6584 74.2725 95.2634 74.5332L62.6036 76.8801C58.8554 77.3364 51.0261 77.5059 48.5228 80.7914C46.0196 84.0769 51.5215 86.0065 54.5854 86.854L90.3742 87.4407C90.3742 87.4407 56.4107 88.8748 54.5854 89.7875C52.7601 90.7001 50.0482 93.1121 53.8031 95.4589C57.558 97.8057 68.927 98.7836 74.1421 98.9791L86.1848 99.163C93.4582 99.2054 99.7614 99.3703 99.7614 99.3703L86.1848 99.163L74.1421 98.9791C68.927 98.7836 57.558 97.8057 53.8031 95.4589C50.0482 93.1121 52.7601 90.7001 54.5854 89.7875C56.4107 88.8748 90.3742 87.4407 90.3742 87.4407L54.5854 86.854C51.5215 86.0065 46.0196 84.0769 48.5228 80.7914C51.0261 77.5059 58.8554 77.3364 62.6036 76.8801L95.2634 74.5332C86.6584 74.2725 69.1747 74.0248 66.515 72.7731C64.1682 71.7953 62.1844 69.5889 62.4081 68.4707C62.9948 65.5372 65.7327 65.5372 71.9909 63.7771C74.0957 63.1851 78.6402 62.7992 78.6402 62.7992C81.0879 62.3243 85.534 62.136 90.3742 62.1999V45.9809L66.1239 48.1254C66.1239 47.3228 65.4083 46.1341 64.7549 44.4159C66.2869 42.7861 67.6493 39.7614 68.2751 38.3533C69.0574 36.5932 66.1239 33.4641 63.7771 33.073C61.8996 32.7601 59.7 33.5293 57.91 34.442C53.2167 29.3608 49.8918 26.0326 47.6346 23.839C45.7673 22.0242 43.523 21.5227 40.7001 21.7306C38.3386 21.9045 36.3613 23.2281 34.8331 24.6103Z" fill="black"/>
<path d="M6.47588 110.909C7.88396 101.209 9.80052 96.8282 10.5828 95.8504C12.2125 94.2207 15.3937 89.162 15.0808 81.9651C14.7679 74.7682 14.4289 58.3667 14.2986 51.0655C14.2986 49.6965 14.807 46.5675 16.8409 45.0029C18.8748 43.4384 27.7275 35.8765 31.8996 32.2911M31.8996 32.2911C34.9635 31.6392 41.5997 30.7265 43.6336 32.2911C46.176 34.2467 59.1078 47.1538 59.279 48.5232M31.8996 32.2911C31.7806 31.9539 31.5724 31.4743 31.5085 30.9218M66.1239 48.1254C66.1239 47.3227 65.4083 46.1341 64.7549 44.4159M64.7549 44.4159C63.9224 42.227 62.4953 39.7016 59.8657 36.9844C59.7093 36.8279 58.4967 35.3546 57.91 34.6375M64.7549 44.4159C66.2869 42.7861 67.6493 39.7614 68.2751 38.3533C69.0574 36.5932 66.1239 33.4641 63.7771 33.073C61.8996 32.7601 59.7 33.5293 57.91 34.442C53.2167 29.3608 49.8918 26.0326 47.6346 23.839C45.7672 22.0242 43.523 21.5227 40.7001 21.7306C37.0023 22.0029 34.2464 25.0943 32.6819 26.8153C32.2907 27.6157 31.5085 29.5575 31.5085 30.9218M47.1538 49.6967C43.8463 46.2415 39.3312 33.073 25.837 48.914M54.5854 89.7875H36.3977H32.8774V51.0655L61.6258 48.5232L62.9948 48.3676M54.5854 89.7875C56.4107 88.8748 90.3742 87.4407 90.3742 87.4407L54.5854 86.854C51.5215 86.0065 46.0196 84.0769 48.5228 80.7914C51.0261 77.5059 58.8554 77.3364 62.6037 76.8801L95.2634 74.5332C86.6584 74.2725 69.1747 74.0248 66.515 72.7731C64.1682 71.7953 62.1844 69.5889 62.4081 68.4707C62.9948 65.5372 65.7327 65.5372 71.9909 63.7771C74.0957 63.1851 78.6402 62.7992 78.6402 62.7992C83.0078 61.9518 93.7379 62.0169 101.717 62.7992C109.696 63.5815 117.037 66.7758 119.709 69.0574C129.814 82.5515 150.218 110.322 151 113.451M54.5854 89.7875C52.7601 90.7001 50.0482 93.1121 53.8031 95.4589C57.558 97.8057 68.927 98.7836 74.1421 98.9791L99.7614 99.3703C99.7614 99.3703 67.6884 98.5311 64.7549 100.153C61.8214 101.774 63.1121 104.377 69.8396 106.411C76.5671 108.445 92.5906 109.344 99.7614 109.54C106.802 109.67 110.518 108.757 114.82 108.757M90.3742 62.1999V45.9809L63.3859 48.3676M31.5085 30.9218C27.0564 27.6366 9.3442 12.3431 1 5.10691L4.91134 1L34.8331 24.6103M26.2282 55.5632C26.3307 57.6131 26.2971 57.0641 26.2282 58.3012M25.6146 60.8435C25.8776 60.6682 26.0865 60.8409 26.2282 58.3012M26.2282 58.3012L32.8774 58.8879M25.6415 73.5554C26.2282 72.382 29.279 70.1917 32.8774 70.8175" stroke="black" stroke-width="2" stroke-linecap="round" stroke-linejoin="round"/>
</g>
</g>
</svg>
