<svg width="215" height="555" viewBox="0 0 215 555" fill="none" xmlns="http://www.w3.org/2000/svg">
<path d="M98.7244 501.048C92.511 501.525 77.9811 501.525 69.569 497.708C59.054 492.938 56.1862 493.415 49.4948 482.443C49.4948 480.534 49.4948 458.59 48.0609 456.205C46.6271 453.82 38.9797 432.353 38.9797 429.967C38.9797 428.059 38.9797 399.277 38.9797 385.125C35.1561 374.948 27.6043 353.83 27.9867 350.777C28.4647 346.961 27.5088 328.833 25.5969 326.448C23.6851 324.062 19.3835 313.09 20.8174 305.458C22.2512 297.825 25.5969 294.963 25.5969 289.238C25.5969 283.513 18.4278 276.835 18.4278 267.294C18.4278 257.753 23.6855 255.367 22.2515 250.12C20.8174 244.872 13.6482 239.625 13.6482 236.286C13.6482 232.946 12.2143 221.974 13.6482 220.066C15.0821 218.158 20.8174 212.91 18.4278 209.571C16.0382 206.231 9.34598 201.938 10.3019 194.782C11.2578 187.627 18.9057 174.746 16.9939 168.068C15.0821 161.389 -0.212582 143.261 3.61108 132.289C6.67001 123.511 13.6476 121.317 13.6476 118.454C7.32947 112.324 5.13308 105.958 5.05257 100.327M98.7244 501.048L107.328 554L116.408 499.617M98.7244 501.048C104.408 500.571 116.126 499.781 116.408 499.617M116.408 499.617C120.232 499.617 131.034 499.426 143.652 498.663C156.27 497.899 164.842 490.712 167.55 487.213C167.55 479.263 167.837 462.979 168.984 461.453C170.131 459.926 174.879 442.689 177.109 434.261C176.79 423.925 176.153 401.631 176.153 395.143C176.153 387.033 185.712 363.658 187.146 361.273C188.58 358.887 188.102 340.759 187.146 338.374C186.381 336.466 190.333 330.264 192.404 327.402C192.244 319.451 191.639 302.5 190.492 298.302C189.058 293.055 195.749 278.266 198.139 272.541C200.529 266.817 194.316 257.753 194.316 254.891C194.316 252.028 200.529 241.533 201.963 239.148C203.397 236.763 195.749 221.497 194.316 218.158C192.882 214.819 203.875 198.599 204.831 196.691C205.787 194.783 197.183 174.746 198.139 170.453C199.095 166.16 212 139.922 212 137.06C212 134.197 202.441 125.61 200.529 123.225C198.617 120.84 205.309 115.115 206.265 113.684C206.872 112.775 212.114 109.167 211.435 101.758M94.9004 15.1127C78.7691 14.5518 65.3242 12.1653 72.9144 7.77941C81.8362 4.28105 105.415 -0.712057 128.357 7.30236C141.91 12.0367 126.214 14.7468 107.805 15.1808M94.9004 15.1127V48.9861M94.9004 15.1127C99.1276 15.2597 103.539 15.2814 107.805 15.1808M94.9004 48.9861C94.2643 49.0795 93.627 49.1783 92.9886 49.2824C43.281 57.3923 55.2299 57.8693 40.4132 63.5939C28.5599 68.1736 15.4001 79.8135 10.3019 85.0611C7.80232 88.0721 4.95768 93.6894 5.05257 100.327M94.9004 48.9861C99.2636 48.3455 103.569 47.9566 107.805 47.7929M107.805 15.1808V47.7929M107.805 47.7929C151.027 46.1229 186.971 67.9055 202.441 85.0611C208.711 92.0143 211.046 97.5107 211.435 101.758M58.5756 463.361C60.4875 465.905 68.4216 470.421 84.8633 468.131C105.415 465.269 117.842 461.453 127.402 461.453C136.961 461.453 153.211 464.792 153.211 465.746M48.0609 414.702C50.4504 417.087 56.1858 423.766 79.6058 420.427C103.026 417.087 119.276 413.271 129.313 413.271C139.35 413.271 161.814 416.61 161.814 418.518M160.859 367.474C157.513 367.474 135.527 362.227 122.622 364.135C109.717 366.043 100.636 372.722 80.5617 373.199C60.4875 373.676 57.6197 372.245 50.4504 370.336M38.9794 315.953C44.2369 319.292 57.6197 325.494 69.0907 323.586C83.4294 321.2 107.327 315.953 114.975 315.953C122.622 315.953 147.954 314.522 159.425 317.384C168.601 319.674 171.214 321.518 171.374 322.154M183.801 270.633C180.933 268.248 152.255 262.046 135.527 264.909C118.798 267.771 88.687 267.294 82.9515 267.294C77.216 267.294 32.7659 276.358 32.288 270.633M29.8982 220.066C34.9964 222.292 51.693 225.695 77.6939 221.497C110.195 216.25 106.371 216.727 118.798 215.773C131.225 214.818 148.91 215.773 156.079 215.773C161.814 215.773 174.719 219.589 180.455 221.497M168.984 170.453C157.194 168.863 130.652 166.159 118.798 168.068C103.982 170.453 83.4294 173.792 80.5617 173.792C78.2675 173.792 53.7961 173.792 41.8471 173.792C37.0675 172.679 27.2216 170.453 26.0745 170.453M187.624 130.381C185.712 130.381 168.028 121.317 153.211 123.225C138.395 125.133 118.763 123.07 113.063 123.702C108.761 124.179 83.2701 128.95 69.0907 130.381C69.0907 130.381 50.4411 133.585 38.9794 130.858C32.4708 129.309 23.2068 125.61 23.2068 125.61M5.05257 100.327C7.75827 99.2137 14.03 97.6553 17.4713 100.327C21.7729 103.666 22.2509 112.253 29.4202 111.299C36.5896 110.345 36.5896 101.281 46.6267 98.4186C56.6638 95.5563 71.0025 98.4186 71.9584 101.758C72.7232 104.429 77.0567 103.825 79.1278 103.189M211.435 101.758C204.353 103.189 191.448 104.62 189.536 103.189C187.624 101.758 181.889 94.6022 176.631 95.5563C171.374 96.5104 161.337 107.96 158.469 107.96C155.601 107.96 136.483 110.822 134.093 107.005C131.703 103.189 123.1 98.4186 119.276 98.4186C115.453 98.4186 105.415 98.8957 104.938 100.327M38.9794 300.21C40.8912 298.779 45.2884 296.203 47.5826 297.348M38.9794 253.459C43.281 250.12 38.9794 251.551 49.0165 247.735M64.7891 253.459C68.2304 247.735 73.233 247.258 75.3041 247.735M38.0235 205.278C38.9794 200.507 46.6267 198.122 49.0165 198.122M66.7009 206.709C81.5176 198.122 82.4735 200.03 83.4294 200.03M31.81 152.325C34.8689 147.745 41.3692 145.964 44.2369 145.646M65.745 150.894C65.745 148.032 76.738 144.215 76.738 145.646M94.9004 152.325C96.4299 149.654 101.273 147.396 103.504 146.601" stroke="black" stroke-width="5" stroke-linecap="round"/>
</svg>
