<svg width="24" height="24" viewBox="0 0 24 24" fill="none" xmlns="http://www.w3.org/2000/svg">
<g id="Time_fill">
<path id="Subtract" fill-rule="evenodd" clip-rule="evenodd" d="M12.0001 21C16.9706 21 21.0001 16.9706 21.0001 12C21.0001 7.02944 16.9706 3 12.0001 3C7.0295 3 3.00006 7.02944 3.00006 12C3.00006 16.9706 7.0295 21 12.0001 21ZM13.0001 6.5C13.0001 5.94772 12.5523 5.5 12.0001 5.5C11.4478 5.5 11.0001 5.94772 11.0001 6.5V11.75C11.0001 12.4404 11.5597 13 12.2501 13H15.5001C16.0523 13 16.5001 12.5523 16.5001 12C16.5001 11.4477 16.0523 11 15.5001 11H13.0001V6.5Z" fill="black"/>
</g>
</svg>
