<svg width="210" height="272" viewBox="0 0 210 272" fill="none" xmlns="http://www.w3.org/2000/svg">
<path d="M40.7942 137.533C41.1516 143.1 41.6521 154.357 40.7942 154.847C50.0378 161.64 84.1526 174.919 90.4342 171.089C94.0802 168.866 95.8165 166.487 95.2834 164.194C94.898 162.536 93.3269 160.923 90.4342 159.444C75.685 155.165 47.2908 146.846 44.1331 146.727L44.0116 146.738V154.847L42.3263 153.928L42.4795 146.88L44.0116 146.738V146.727C44.0467 146.725 44.0872 146.725 44.1331 146.727C47.2908 146.846 75.685 155.165 90.4342 159.444C93.3269 160.923 94.898 162.536 95.2834 164.194C95.8165 166.487 94.0802 168.866 90.4342 171.089C84.1526 174.919 50.0378 161.64 40.7942 154.847C41.6521 154.357 41.1516 143.1 40.7942 137.533C39.9514 136.699 39.053 135.703 38.1937 134.622C33.7936 129.085 30.4191 121.292 40.7942 121.292C41.9438 121.292 43.1114 119.705 44.1629 117.614C46.1943 113.575 47.7931 107.655 47.995 107.655L46.1565 105.203V93.8647V81.7601L44.1648 67.2039L40.4877 54.4864C39.6619 53.5831 37.957 52.0746 35.5393 50.5027C33.1726 48.9639 30.1228 47.3645 26.5456 46.2124C17.5062 43.3012 16.2805 32.882 17.353 26.5999C18.1784 21.7652 23.7176 13.7386 29.6098 12.6566C37.5829 11.1926 48.5159 17.284 48.1482 26.5999C48.4204 25.4333 48.4812 24.4354 48.444 23.5355C48.3345 20.8896 47.3778 19.0898 48.4547 16.334C53.6638 3.00362 62.0903 2.54395 65.3078 2.54395C68.5252 2.54395 70.6701 9.43897 72.049 11.5841C72.8147 12.7752 70.3278 18.661 67.7441 23.9951C66.6054 26.3461 65.4478 28.5898 64.5417 30.2773L75.5728 14.955C81.0373 8.87715 93.7742 -1.93016 101.006 3.46328C108.237 8.85672 107.594 17.1512 106.368 20.6242C106.368 20.6242 107.594 25.8338 105.908 29.6644C104.223 33.4949 97.4819 38.0916 97.4819 38.0916C96.6083 39.3267 95.8723 40.7442 95.2568 42.2987C95.9454 35.9133 92.7608 36.2222 90.8938 37.3255C92.9177 35.7824 95.4621 34.0208 97.3775 33.0568L99.1672 31.8784L106.368 20.6242C107.594 17.1512 108.237 8.85672 101.006 3.46328C93.7742 -1.93016 81.0373 8.87715 75.5728 14.955L64.5417 30.2773C65.4478 28.5898 66.6054 26.3461 67.7441 23.9951C68.9748 17.8151 69.7815 5.30196 63.1628 4.68907C56.5441 4.07618 50.5925 16.998 48.444 23.5355C48.4812 24.4354 48.4204 25.4333 48.1482 26.5999C30.7436 8.21319 22.6132 18.0194 20.7236 25.2209C20.4683 25.7827 19.498 33.4949 20.5704 36.2529C21.6429 39.011 26.5456 41.769 26.5456 41.769L35.5393 50.5027C37.957 52.0746 39.6619 53.5831 40.4877 54.4864L44.1648 67.2039L46.1565 81.7601V93.8647L61.1711 93.6734C58.1069 93.7124 47.229 66.4378 49.3739 65.0588C51.5189 63.6798 58.3112 82.9605 61.1711 93.6734L69.6742 93.5651L78.1774 93.4567C78.1774 93.4567 78.3891 90.5178 78.6557 86.4437C78.5468 78.4361 76.8143 69.6681 77.871 63.6798C77.871 63.6798 78.7902 60.9218 79.5563 62.3008C80.0817 63.2466 79.2378 77.5499 78.6557 86.4437C78.689 88.8856 78.5712 91.2567 78.1774 93.4567L69.6742 93.5651L61.1711 93.6734L46.1565 93.8647V105.203L47.995 107.655C47.7931 107.655 46.1943 113.575 44.1629 117.614C43.1114 119.705 41.9438 121.292 40.7942 121.292C30.4191 121.292 33.7936 129.085 38.1937 134.622C39.053 135.703 39.9514 136.699 40.7942 137.533Z" fill="black"/>
<path d="M129.24 250.668C128.005 249.293 127.073 247.769 126.592 246.781C127.39 247.779 128.449 249.251 129.24 250.668C130.271 252.513 130.849 254.263 129.809 254.749C127.511 255.821 123.681 259.039 121.076 256.894C120.838 256.698 120.604 256.465 120.373 256.204C120.449 257.163 120.225 258 119.544 258.579C117.093 260.663 113.314 261.49 111.73 261.644C110.454 261.644 108.084 260.694 108.819 256.894C108.963 256.154 109.08 255.436 109.173 254.749C107.334 254.749 102.691 258.579 99.4736 253.676C97.9236 251.314 99.6268 248.62 101.619 247.547C103.61 246.475 108.053 246.781 108.819 247.547C109.466 248.194 109.676 251.024 109.173 254.749C109.08 255.436 108.963 256.154 108.819 256.894C108.084 260.694 110.454 261.644 111.73 261.644C113.314 261.49 117.093 260.663 119.544 258.579C120.225 258 120.449 257.163 120.373 256.204C118.586 254.179 117.068 250.429 116.48 248.62C117.955 250.39 120.176 253.711 120.373 256.204C120.604 256.465 120.838 256.698 121.076 256.894C123.681 259.039 127.511 255.821 129.809 254.749C130.849 254.263 130.271 252.513 129.24 250.668Z" fill="black"/>
<path d="M138.236 261.644C137.061 261.644 132.567 262.256 123.987 264.708C129.401 263.954 141.943 262.811 148.807 264.267C145.684 262.579 140.912 261.824 138.236 261.644Z" fill="black"/>
<path d="M195.717 204.105C194.86 203.747 194.395 203.19 194.77 202.346C195.231 201.309 195.53 202.332 195.717 204.105Z" fill="black"/>
<path d="M130.048 229.563C129.934 229.601 129.854 229.62 129.809 229.62C129.868 229.583 129.948 229.565 130.048 229.563C133.099 228.566 160.354 214.645 174.087 207.556C176.998 207.096 183.31 207.525 185.271 212.919C187.723 219.661 187.569 223.644 185.271 225.943C183.433 227.781 171.125 232.429 165.201 234.523L141.913 249.692V238.047C141.913 236.15 132.048 229.529 130.048 229.563Z" fill="black"/>
<path d="M92.4259 187.484C92.4259 186.105 91.9663 182.887 95.2834 181.968C99.014 181.508 100.393 183.96 100.546 186.871C100.689 189.578 99.014 189.846 97.9415 190.089C93.192 191.161 92.4259 189.482 92.4259 187.484Z" fill="black"/>
<path d="M83.9994 119.453C83.3866 118.84 84.1015 116.695 84.6122 115.929L85.3783 115.009L86.7572 114.55H88.1361L89.2085 115.316L90.4342 116.695V119.759C89.7703 120.219 88.1361 121.169 86.9104 121.292C85.3783 121.445 84.7654 120.219 83.9994 119.453Z" fill="black"/>
<path d="M1.72559 240.958C12.5524 215.421 34.4819 163.857 35.585 161.896C36.9639 159.444 39.7217 155.46 40.7942 154.847M40.7942 154.847C41.6521 154.357 41.1516 143.1 40.7942 137.533C39.9514 136.699 39.053 135.703 38.1937 134.622M40.7942 154.847C50.0378 161.64 84.1526 174.919 90.4342 171.089C94.0802 168.866 95.8165 166.487 95.2834 164.194M47.995 107.655L46.1565 105.203V93.8647M47.995 107.655C48.1096 107.655 55.0327 107.111 63.7757 107.111C73.7365 107.111 86.1052 107.655 94.2645 107.655M47.995 107.655C47.7931 107.655 46.1943 113.575 44.1629 117.614M94.2645 93.4567V92.8611V80.0746C92.3749 70.2684 90.3729 48.143 97.4819 38.0916M97.4819 38.0916C104.591 28.0402 96.0519 33.3928 90.8938 37.3255M97.4819 38.0916C97.4819 38.0916 104.223 33.4949 105.908 29.6644C107.594 25.8338 106.368 20.6242 106.368 20.6242M90.8938 37.3255C92.968 36.0997 96.6685 35.8546 94.8773 44.6802M90.8938 37.3255L99.1672 31.8784L106.368 20.6242M106.368 20.6242C107.594 17.1512 108.237 8.85672 101.006 3.46328C93.7742 -1.93016 81.0373 8.87715 75.5728 14.955L64.5417 30.2773C65.4478 28.5898 66.6054 26.3461 67.7441 23.9951M48.1482 26.5999C48.5159 17.284 37.5829 11.1926 29.6098 12.6566C23.7176 13.7386 18.1784 21.7652 17.353 26.5999C16.2805 32.882 17.5062 43.3012 26.5456 46.2124C30.1228 47.3645 33.1726 48.9639 35.5393 50.5027M48.1482 26.5999C30.7436 8.21319 22.6132 18.0194 20.7236 25.2209C20.4683 25.7827 19.498 33.4949 20.5704 36.2529C21.6429 39.011 26.5456 41.769 26.5456 41.769L35.5393 50.5027M48.1482 26.5999C48.4204 25.4333 48.4812 24.4354 48.444 23.5355M46.1565 93.8647V81.7601L44.1648 67.2039L40.4877 54.4864C39.6619 53.5831 37.957 52.0746 35.5393 50.5027M46.1565 93.8647L61.1711 93.6734M69.6742 93.5651C68.8163 89.8877 66.6867 80.994 66.6867 63.2201M78.1774 93.4567C79.8627 84.0418 76.4921 71.4942 77.871 63.6798C77.871 63.6798 78.7902 60.9218 79.5563 62.3008C80.3223 63.6798 78.1774 93.4567 78.1774 93.4567ZM78.1774 93.4567L61.1711 93.6734M78.1774 93.4567H93.3452M61.1711 93.6734C58.1069 93.7124 47.229 66.4378 49.3739 65.0588C51.5189 63.6798 58.3112 82.9605 61.1711 93.6734ZM48.444 23.5355C48.3346 20.8896 47.3777 19.0898 48.4547 16.334C53.6638 3.00362 62.0903 2.54395 65.3078 2.54395C68.5252 2.54395 70.6701 9.43897 72.049 11.5841C72.8147 12.7752 70.3277 18.661 67.7441 23.9951M48.444 23.5355C50.5925 16.998 56.5441 4.07618 63.1628 4.68907C69.7815 5.30196 68.9748 17.8151 67.7441 23.9951M44.1629 117.614C43.1114 119.705 41.9438 121.292 40.7942 121.292C30.4191 121.292 33.7936 129.085 38.1937 134.622M44.1629 117.614C44.47 121.036 46.0646 127.329 49.9868 125.122C53.8681 122.898 61.9984 116.396 63.4692 108.183M38.1937 134.622C41.102 136.224 42.8363 136.759 46.1565 136.92M42.173 207.862C55.1306 234.514 79.481 248.324 92.7324 249.692L97.1755 238.047L106.215 228.241C85.3241 220.036 76.9372 212.405 66.9931 194.226M96.7158 110.482C96.7158 110.482 103.601 115.116 107.594 118.602C113.097 123.408 117.859 126.57 120.31 132.324C122.762 138.077 112.496 133.465 106.521 134.078C100.546 134.691 95.6434 131.098 95.6434 131.098M99.3204 137.533C98.3398 137.901 97.9415 149.707 92.7324 153.009M108.053 220.427C118.165 217.669 121.127 213.327 121.076 212.919M111.73 211.846C116.143 206.453 116.735 203.981 116.48 203.419C120.514 206.688 132.965 212.796 150.493 211.08M95.2834 164.194C94.898 162.536 93.3269 160.923 90.4342 159.444C75.685 155.165 47.2908 146.846 44.1331 146.727M95.2834 164.194C106.843 173.796 137.715 193.245 168.725 194.226C168.725 201.733 165.354 204.849 165.201 205.564M113.109 233.144C117.093 235.085 126.316 238.783 131.341 238.047C137.623 237.128 138.083 254.595 133.793 253.676C130.361 252.941 127.562 248.773 126.592 246.781C128.43 249.079 131.648 253.89 129.809 254.749C127.511 255.821 123.681 259.039 121.076 256.894C118.993 255.178 117.144 250.663 116.48 248.62C118.523 251.071 121.995 256.495 119.544 258.579C117.093 260.663 113.314 261.49 111.73 261.644C110.454 261.644 108.084 260.694 108.819 256.894C109.739 252.144 109.585 248.313 108.819 247.547C108.053 246.781 103.61 246.475 101.619 247.547C99.6268 248.62 97.9236 251.314 99.4736 253.676C102.691 258.579 107.334 254.749 109.173 254.749M203.503 210.161C207.487 213.685 204.576 219.661 204.882 220.427C205.189 221.193 198.117 222.725 195.996 228.241C194.464 232.225 205.648 234.37 206.414 238.047C207.18 241.725 209.019 243.257 207.946 251.071C206.874 258.886 200.749 256.037 194.464 256.894C187.723 257.813 177.917 251.071 170.257 253.063C166.105 254.143 163.975 266.853 160.911 268.539C157.847 270.224 153.557 271.297 151.565 266.853C151.1 265.816 150.094 264.962 148.807 264.267M148.807 264.267C145.684 262.579 140.912 261.824 138.236 261.644C137.061 261.644 132.567 262.256 123.987 264.708C129.401 263.954 141.943 262.811 148.807 264.267ZM177.764 195.451C183.525 198.148 188.029 195.758 189.561 194.226C190.276 193.204 192.564 191.345 195.996 192.08C200.286 193 203.503 197.596 203.503 198.822C203.503 199.803 201.869 203.112 201.052 204.645C198.549 204.798 193.79 204.553 194.77 202.346C195.751 200.14 195.996 207.249 195.996 211.08C195.281 212.306 193.422 214.39 191.706 212.919C189.99 211.448 188.335 208.731 187.723 207.556M44.1331 146.727C44.0872 146.725 44.0467 146.725 44.0116 146.727V154.847L42.3263 153.928L42.4795 146.88L44.1331 146.727ZM88.1361 114.55L89.2085 115.316L90.4342 116.695V119.759C89.7703 120.219 88.1361 121.169 86.9104 121.292C85.3783 121.445 84.7654 120.219 83.9994 119.453C83.3865 118.84 84.1015 116.695 84.6122 115.929L85.3783 115.009M88.1361 114.55H86.7572L85.3783 115.009M88.1361 114.55C87.5743 114.954 85.9911 115.189 85.3783 115.009M94.5709 107.111L94.2645 94.2401M129.809 229.62C131.035 229.62 159.838 214.911 174.087 207.556C176.998 207.096 183.31 207.525 185.271 212.919C187.723 219.661 187.569 223.644 185.271 225.943C183.433 227.781 171.125 232.429 165.201 234.523L141.913 249.692C141.913 246.475 141.913 239.641 141.913 238.047C141.913 236.055 131.035 228.854 129.809 229.62ZM95.2834 181.968C91.9663 182.887 92.4259 186.105 92.4259 187.484C92.4259 189.482 93.192 191.161 97.9415 190.089C99.014 189.846 100.689 189.578 100.546 186.871C100.393 183.96 99.014 181.508 95.2834 181.968Z" stroke="black" stroke-width="3" stroke-linecap="round" stroke-linejoin="round"/>
</svg>
