<svg width="125" height="190" viewBox="0 0 125 190" fill="none" xmlns="http://www.w3.org/2000/svg">
<g id="Fork">
<path id="Vector" d="M103.943 171.667L68.7457 156.64C66.6032 158.071 61.3389 160.749 57.4213 160.013C55.5031 159.653 51.0962 162.445 45.5432 164.132M16.4084 148.053C4.8364 143.76 4.77761 129.96 16.4084 129.96M16.4084 148.053V144.373C19.5276 141.307 36.5066 151.563 50.6869 148.053M16.4084 148.053C25.5309 166.708 36.9191 166.752 45.5432 164.132M16.4084 129.96C10.5928 124.44 1.37402 114.994 3.24666 111.867C5.08289 108.8 13.1055 106.96 26.5725 110.947M16.4084 129.96C28.8167 135.636 41.9379 148.935 54.7252 139.624M26.5725 110.947C20.9611 105.427 12 94.2585 14.8768 91.6267C21.9163 85.1867 42.7294 94.4181 43.647 94.3867M26.5725 110.947C29.6254 101.388 38.9781 95.9773 43.647 94.3867M26.5725 110.947C26.29 111.831 26.0615 112.751 25.8956 113.707C33.5472 151.427 61.0932 132.72 50.6869 117.693C54.36 122.702 63.9096 130.328 64.1538 130.573C64.398 130.819 58.9507 128.12 59.8689 134.56C58.1621 136.707 56.4467 138.37 54.7252 139.624M43.647 94.3867C70.5809 93.4667 78.2325 110.64 82.2114 119.84C93.9439 125.258 118.327 136.277 122 137.013M50.6869 148.053C55.6434 146.827 54.1673 161.512 45.5432 164.132M50.6869 148.053C52.4411 145.705 55.7046 140.73 54.7252 139.624M75.1734 55.7467C61.4639 42.2986 70.7429 14.5511 77.9865 3C64.8254 32.44 71.9437 48.1413 75.1734 55.7467ZM75.1734 55.7467C64.9363 87.64 62.3769 96.2267 62.0708 97.1467M75.1734 55.7467C76.2098 55.3313 77.2046 54.8746 78.1595 54.3804M75.1734 55.7467C76.0462 55.6523 77.0541 55.1791 78.1595 54.3804M32.3824 187L38.5037 165.84M78.1595 54.3804C97.1009 44.5779 100.368 20.0069 102.389 9.74667M78.1595 54.3804C85.6778 48.9483 97.7046 28.4618 102.389 9.74667M102.389 9.74667C102.523 9.0679 102.651 8.45176 102.778 7.90667" stroke="#FFE9DE" stroke-width="5" stroke-linecap="round" stroke-linejoin="round"/>
</g>
</svg>
