<svg width="240" height="280" viewBox="0 0 240 280" fill="none" xmlns="http://www.w3.org/2000/svg">
<path d="M202.666 141.174C170.964 140.979 128.106 140.709 122.323 141.495L119.931 141.604L163.223 213.309M202.666 141.174C209.525 141.216 215.862 141.254 221.188 141.278C220.497 161.784 209.719 207.852 172.133 228.067L163.223 213.309M202.666 141.174C203.727 141.602 205.466 144.15 203.928 150.917C202.39 157.684 200.107 158.938 199.111 159.71C198.466 160.682 196.852 162.962 196.484 165.35C196.024 168.336 196.471 171.39 195.069 175.051C193.667 178.713 189.513 184.38 188.784 185.24C188.054 186.1 179.58 200.256 163.223 213.309M131.726 148.283C131.96 147.482 132.728 145.91 133.923 146.027C135.418 146.173 136.281 146.662 137.132 147.398C137.813 147.988 137.588 149.226 137.39 149.772C137.296 150.207 136.812 151.176 135.632 151.577C134.156 152.078 133.782 152.185 132.632 151.533C131.711 151.012 131.644 149.149 131.726 148.283ZM156.929 174.967C156.319 175.385 154.872 176.857 152.192 176.803C150.048 176.76 147.915 175.464 147.117 174.821C146.61 174.258 145.472 173.38 144.973 174.37C144.473 175.36 145.153 177.337 145.556 178.201C146.275 179.139 148.146 181.119 149.878 181.54C151.611 181.961 155.202 180.842 156.781 180.229C158.245 179.786 161.533 178.389 162.967 176.349C164.76 173.8 163.209 171.713 161.573 172.504C159.936 173.296 157.57 174.948 156.929 174.967ZM149.092 152.643C150.097 152.194 152.209 150.207 156.881 151.326C160.619 152.22 162.166 156.185 162.472 158.056C162.782 159.844 162.631 163.786 159.55 165.249C156.47 166.712 152.73 167.433 151.245 167.611C150.306 167.524 148.078 166.39 146.684 162.545C145.289 158.701 145.829 156.29 146.273 155.566L149.092 152.643ZM166.358 149.691C166.313 148.138 167.649 147.367 168.322 147.175C169.158 147.182 170.879 147.541 171.07 148.922C171.261 150.304 170.23 151.608 169.691 152.088C168.882 152.372 167.188 152.669 166.885 151.581C166.582 150.492 166.407 149.868 166.358 149.691ZM188.884 175.75C188.573 174.343 186.987 171.607 183.133 171.92C179.279 172.233 176.807 174.045 176.053 174.912C175.744 175.544 175.313 176.95 176.054 177.522C176.795 178.095 178.731 178.338 179.606 178.388C179.894 178.36 180.647 178.01 181.352 176.831C182.057 175.652 183.69 176.139 184.418 176.53L186.761 177.985C187.572 178.189 189.132 178.028 188.884 175.75ZM178.228 156.349C178.393 154.915 179.086 149.579 183.768 148.411C187.513 147.477 190.373 148.545 191.335 149.196C192.259 149.613 194.223 150.691 194.689 151.668C195.272 152.889 196.944 156.573 194.946 159.833C193.347 162.441 191.326 164.424 190.516 165.09C188.579 165.287 184.352 165.342 182.939 163.982C181.526 162.621 180.038 161.299 179.47 160.808C178.971 160.27 178.022 158.626 178.228 156.349ZM188.629 156.001C188.563 156.346 187.791 156.672 187.432 156.342C187.207 156.135 187.127 155.878 187.221 155.586C187.361 155.148 187.978 154.993 188.343 155.267C188.588 155.45 188.694 155.656 188.629 156.001ZM183.898 153.513C183.832 153.858 183.06 154.183 182.7 153.853C182.476 153.647 182.396 153.389 182.49 153.098C182.63 152.66 183.246 152.504 183.612 152.778C183.857 152.962 183.963 153.168 183.898 153.513ZM185.817 159.819C185.751 160.164 184.979 160.489 184.619 160.159C184.395 159.953 184.315 159.695 184.409 159.404C184.549 158.966 185.165 158.81 185.531 159.084C185.776 159.268 185.882 159.474 185.817 159.819ZM192.484 153.029C192.419 153.374 191.646 153.699 191.287 153.369C191.062 153.163 190.983 152.905 191.076 152.614C191.217 152.176 191.833 152.02 192.199 152.294C192.444 152.478 192.55 152.684 192.484 153.029ZM190.854 160.507C190.788 160.852 190.016 161.178 189.657 160.848C189.432 160.642 189.352 160.384 189.446 160.092C189.586 159.654 190.203 159.499 190.568 159.773C190.813 159.956 190.919 160.162 190.854 160.507ZM158.472 162.538C158.406 162.883 157.634 163.209 157.275 162.879C157.05 162.672 156.97 162.415 157.064 162.123C157.205 161.685 157.821 161.53 158.186 161.804C158.431 161.987 158.537 162.193 158.472 162.538ZM157.53 154.812C157.464 155.157 156.692 155.483 156.333 155.153C156.108 154.947 156.028 154.689 156.122 154.397C156.262 153.96 156.879 153.804 157.244 154.078C157.489 154.262 157.595 154.468 157.53 154.812ZM154.641 159.223C154.575 159.568 153.803 159.893 153.443 159.563C153.219 159.357 153.139 159.099 153.233 158.808C153.373 158.37 153.989 158.215 154.355 158.489C154.6 158.672 154.706 158.878 154.641 159.223ZM153.26 162.96C153.194 163.305 152.422 163.631 152.062 163.301C151.838 163.094 151.758 162.836 151.852 162.545C151.992 162.107 152.608 161.952 152.974 162.226C153.219 162.409 153.325 162.615 153.26 162.96ZM150.045 157.512C149.98 157.857 149.207 158.182 148.848 157.852C148.623 157.646 148.544 157.388 148.637 157.096C148.778 156.659 149.394 156.503 149.76 156.777C150.005 156.961 150.111 157.167 150.045 157.512ZM170.587 188.621C170.36 187.576 169.251 187.016 168.725 186.866C168.395 186.743 167.554 186.547 166.836 186.751C166.117 186.955 165.513 188.378 165.3 189.064C165.243 189.923 165.398 191.793 166.472 192.401C167.546 193.009 168.921 192.303 169.475 191.874C169.765 191.465 170.365 190.723 170.571 190.012C170.77 189.325 170.704 189.159 170.587 188.621ZM167.905 197.54C167.68 197.604 165.08 198.996 163.649 199.077C162.504 199.141 159.949 196.812 158.815 195.639C158.464 195.249 157.695 194.636 157.428 195.299C157.161 195.963 157.573 197.46 157.812 198.126C158.674 198.996 160.542 200.792 161.122 201.019C161.847 201.302 164.962 202.048 166.117 201.556C167.041 201.163 168.572 199.934 169.222 199.368C169.805 198.468 170.359 196.842 167.905 197.54Z" stroke="black" stroke-width="2" stroke-linejoin="round"/>
<path d="M36.2595 138.692C67.9543 139.398 110.802 140.359 116.597 139.666L118.99 139.596L76.8373 67.2024M36.2595 138.692C29.4021 138.54 23.0667 138.399 17.7417 138.29C18.7564 117.797 30.2609 71.9087 68.1611 52.302L76.8373 67.2024M36.2595 138.692C35.205 138.247 33.507 135.672 35.1516 128.93C36.7962 122.189 39.0988 120.972 40.107 120.216C40.7667 119.255 42.4173 117.001 42.8229 114.618C43.3299 111.641 42.9308 108.58 44.3906 104.941C45.8504 101.303 50.0934 95.7033 50.8362 94.8552C51.5791 94.0071 60.2764 79.9898 76.8373 67.2024M107.303 132.727C107.056 133.524 106.264 135.084 105.07 134.948C103.578 134.778 102.723 134.275 101.883 133.525C101.212 132.925 101.457 131.69 101.663 131.147C101.764 130.714 102.263 129.753 103.449 129.371C104.933 128.894 105.308 128.793 106.449 129.463C107.361 129.999 107.398 131.863 107.303 132.727ZM82.5243 105.641C83.1411 105.232 84.6113 103.784 87.2899 103.881C89.4329 103.958 91.5448 105.289 92.3329 105.945C92.8307 106.516 93.9551 107.412 94.4699 106.43C94.9847 105.448 94.336 103.461 93.9473 102.59C93.2433 101.641 91.4038 99.6312 89.6783 99.1824C87.9527 98.7336 84.3443 99.7947 82.7558 100.381C81.2844 100.801 77.9751 102.145 76.5087 104.161C74.6758 106.681 76.1935 108.793 77.8425 108.028C79.4915 107.263 81.8834 105.65 82.5243 105.641ZM90.0078 128.088C88.9954 128.52 86.8532 130.473 82.1989 129.28C78.4756 128.325 76.9918 124.335 76.7154 122.46C76.4338 120.667 76.6464 116.729 79.7499 115.315C82.8534 113.902 86.6042 113.241 88.0916 113.088C89.0295 113.189 91.2385 114.359 92.5723 118.226C93.906 122.093 93.3285 124.494 92.873 125.211L90.0078 128.088ZM72.6971 130.761C72.7178 132.315 71.3703 133.065 70.6939 133.245C69.8578 133.225 68.1431 132.838 67.9738 131.454C67.8044 130.07 68.8557 128.782 69.4025 128.311C70.2159 128.04 71.9142 127.77 72.2004 128.864C72.4865 129.957 72.6507 130.584 72.6971 130.761ZM50.5858 104.343C50.875 105.755 52.4177 108.515 56.2758 108.265C60.1339 108.014 62.6343 106.242 63.4022 105.387C63.7206 104.761 64.1746 103.362 63.4428 102.777C62.7109 102.193 60.779 101.919 59.9046 101.854C59.6158 101.877 58.8573 102.215 58.1338 103.383C57.4103 104.551 55.7857 104.037 55.0638 103.634L52.7436 102.142C51.9362 101.925 50.3744 102.06 50.5858 104.343ZM60.9345 123.913C60.7462 125.344 59.9689 130.668 55.2697 131.76C51.5105 132.634 48.6674 131.52 47.7157 130.854C46.7987 130.422 44.8518 129.312 44.4013 128.328C43.8381 127.098 42.2235 123.387 44.2733 120.16C45.9131 117.578 47.9649 115.628 48.7858 114.975C50.7256 114.809 54.953 114.823 56.3441 116.205C57.7352 117.588 59.2025 118.934 59.7623 119.435C60.2535 119.98 61.1757 121.64 60.9345 123.913ZM50.5291 124.093C50.5999 123.749 51.3773 123.436 51.7315 123.772C51.9528 123.982 52.0284 124.241 51.9302 124.531C51.7828 124.966 51.1643 125.112 50.8029 124.832C50.5608 124.644 50.4582 124.437 50.5291 124.093ZM55.2204 126.657C55.2913 126.313 56.0687 126 56.4229 126.336C56.6442 126.546 56.7198 126.805 56.6216 127.095C56.4742 127.53 55.8557 127.676 55.4943 127.396C55.2522 127.209 55.1496 127.001 55.2204 126.657ZM53.4012 120.321C53.472 119.977 54.2495 119.664 54.6036 120C54.825 120.21 54.9005 120.469 54.8023 120.759C54.6549 121.194 54.0364 121.34 53.675 121.06C53.4329 120.873 53.3304 120.665 53.4012 120.321ZM46.6273 127.003C46.6981 126.659 47.4756 126.346 47.8297 126.682C48.051 126.892 48.1266 127.151 48.0284 127.441C47.881 127.876 47.2625 128.022 46.9011 127.742C46.659 127.554 46.5565 127.347 46.6273 127.003ZM48.3755 119.552C48.4464 119.208 49.2238 118.895 49.578 119.23C49.7993 119.44 49.8749 119.699 49.7766 119.99C49.6293 120.425 49.0108 120.57 48.6494 120.291C48.4073 120.103 48.3047 119.895 48.3755 119.552ZM80.7855 118.043C80.8563 117.699 81.6337 117.386 81.9879 117.722C82.2092 117.932 82.2848 118.191 82.1866 118.481C82.0392 118.916 81.4207 119.062 81.0593 118.782C80.8172 118.594 80.7146 118.387 80.7855 118.043ZM81.6053 125.783C81.6761 125.439 82.4536 125.126 82.8077 125.462C83.0291 125.672 83.1046 125.931 83.0064 126.221C82.8591 126.656 82.2405 126.802 81.8791 126.522C81.637 126.334 81.5345 126.127 81.6053 125.783ZM84.5638 121.419C84.6346 121.076 85.4121 120.763 85.7662 121.098C85.9876 121.308 86.0631 121.567 85.9649 121.857C85.8175 122.293 85.199 122.438 84.8376 122.158C84.5955 121.971 84.493 121.763 84.5638 121.419ZM86.0037 117.705C86.0746 117.361 86.852 117.048 87.2061 117.384C87.4275 117.594 87.5031 117.853 87.4048 118.143C87.2575 118.578 86.6389 118.724 86.2776 118.444C86.0354 118.257 85.9329 118.049 86.0037 117.705ZM89.1316 123.205C89.2025 122.861 89.9799 122.548 90.3341 122.883C90.5554 123.093 90.631 123.352 90.5327 123.643C90.3854 124.078 89.7669 124.223 89.4055 123.944C89.1634 123.756 89.0608 123.548 89.1316 123.205ZM69.084 91.7684C69.2941 92.8168 70.3941 93.3947 70.9179 93.5526C71.2464 93.6814 72.0839 93.891 72.8053 93.6983C73.5268 93.5056 74.154 92.0929 74.3774 91.4106C74.4477 90.5526 74.3221 88.6803 73.2579 88.0549C72.1937 87.4295 70.8075 88.1137 70.2475 88.534C69.9512 88.9379 69.3388 89.67 69.122 90.3776C68.9124 91.0617 68.9759 91.2287 69.084 91.7684ZM71.9068 82.8932C72.1323 82.833 74.7539 81.4832 76.1861 81.4256C77.3319 81.3795 79.8498 83.7499 80.9656 84.9408C81.3103 85.3361 82.069 85.9618 82.3468 85.3029C82.6246 84.644 82.2362 83.1397 82.0073 82.4699C81.1596 81.5863 79.3202 79.7603 78.7438 79.5243C78.0234 79.2294 74.9206 78.4338 73.7579 78.9067C72.8278 79.285 71.2776 80.4894 70.6189 81.0444C70.0211 81.9349 69.4419 83.5514 71.9068 82.8932Z" stroke="black" stroke-width="2" stroke-linejoin="round"/>
<path d="M76.7714 212.761C93.0715 185.296 115.115 148.17 117.388 142.742L118.512 140.607L35.3712 141.754M76.7714 212.761C73.2447 218.703 69.9869 224.193 67.2562 228.812C50.1315 217.775 16.3573 184.957 18.2587 141.99L35.3712 141.754M76.7714 212.761C75.8664 213.466 72.8103 213.681 67.826 208.899C62.8418 204.118 62.9349 201.495 62.784 200.236C62.2838 199.181 61.1624 196.617 59.3141 195.081C57.0037 193.162 54.1734 191.996 51.7667 188.914C49.3599 185.831 46.6442 179.335 46.2825 178.263C45.9208 177.191 38.1703 162.618 35.3712 141.754M106.817 147.462C107.381 148.074 108.33 149.542 107.622 150.521C106.737 151.746 105.881 152.248 104.82 152.613C103.971 152.906 103.03 152.079 102.666 151.629C102.343 151.326 101.763 150.412 102.022 149.182C102.346 147.644 102.446 147.265 103.587 146.596C104.5 146.061 106.121 146.951 106.817 147.462ZM71.2498 155.795C71.204 155.052 70.6861 153.045 72.0957 150.742C73.2234 148.9 75.414 147.705 76.3683 147.339C77.1059 147.184 78.4335 146.641 77.8437 145.703C77.2538 144.765 75.2235 144.351 74.282 144.261C73.1172 144.409 70.4773 145.027 69.2369 146.32C67.9965 147.612 67.1224 151.304 66.8405 152.988C66.4732 154.487 65.9906 158.057 66.9985 160.342C68.2583 163.198 70.8267 162.912 70.985 161.086C71.1433 159.26 70.94 156.362 71.2498 155.795ZM94.2629 160.343C94.1339 161.445 94.7528 164.292 91.4216 167.786C88.7568 170.58 84.5907 169.907 82.8408 169.221C81.1593 168.581 77.8767 166.444 78.1975 163.02C78.5183 159.597 79.8074 155.978 80.4118 154.597C80.9634 153.824 83.0634 152.465 87.0499 153.209C91.0365 153.953 92.8158 155.649 93.2072 156.404L94.2629 160.343ZM87.9913 176.858C89.338 177.609 89.3156 179.163 89.1361 179.845C88.7046 180.569 87.5229 181.882 86.2485 181.346C84.9741 180.809 84.3869 179.249 84.2527 178.536C84.422 177.688 85.0312 176.064 86.113 176.354C87.1949 176.644 87.816 176.811 87.9913 176.858ZM54.3193 183.181C55.6767 183.626 58.8153 183.639 60.51 180.129C62.2048 176.619 61.9184 173.548 61.5634 172.451C61.1823 171.861 60.2037 170.77 59.3388 171.123C58.4739 171.476 57.2812 173.035 56.7929 173.771C56.6697 174.036 56.5848 174.869 57.231 176.082C57.8772 177.295 56.631 178.466 55.9271 178.9L53.495 180.198C52.9081 180.798 52.2513 182.236 54.3193 183.181ZM76.2767 183.789C77.4142 184.663 81.6088 187.981 80.2217 192.646C79.1121 196.378 76.7461 198.321 75.7017 198.826C74.8762 199.417 72.9576 200.576 71.888 200.484C70.5509 200.369 66.5597 199.949 64.7986 196.552C63.3897 193.834 62.7281 191.068 62.5735 190.025C63.3911 188.24 65.4959 184.537 67.374 184.001C69.2522 183.465 71.1366 182.844 71.844 182.6C72.5565 182.439 74.4406 182.452 76.2767 183.789ZM71.2792 193.01C71.0186 192.777 71.1342 191.94 71.5984 191.795C71.8885 191.705 72.1488 191.767 72.3497 191.997C72.651 192.342 72.4701 192.957 72.0505 193.135C71.7693 193.255 71.5398 193.242 71.2792 193.01ZM75.8077 190.162C75.5471 189.93 75.6628 189.093 76.1269 188.948C76.417 188.858 76.6773 188.92 76.8782 189.15C77.1796 189.494 76.9986 190.109 76.579 190.288C76.2978 190.408 76.0684 190.395 75.8077 190.162ZM69.4569 188.622C69.1963 188.389 69.312 187.552 69.7761 187.407C70.0662 187.317 70.3265 187.379 70.5274 187.609C70.8288 187.954 70.6478 188.569 70.2282 188.747C69.947 188.867 69.7176 188.854 69.4569 188.622ZM71.8502 197.874C71.5896 197.642 71.7052 196.805 72.1694 196.66C72.4594 196.57 72.7197 196.632 72.9207 196.862C73.222 197.207 73.0411 197.822 72.6214 198C72.3403 198.12 72.1108 198.107 71.8502 197.874ZM66.3066 192.651C66.046 192.418 66.1617 191.581 66.6258 191.437C66.9159 191.346 67.1762 191.408 67.3771 191.638C67.6785 191.983 67.4975 192.598 67.0779 192.776C66.7967 192.896 66.5673 192.883 66.3066 192.651ZM81.0565 163.462C80.7959 163.23 80.9115 162.393 81.3757 162.248C81.6658 162.158 81.9261 162.22 82.127 162.449C82.4284 162.794 82.2474 163.409 81.8278 163.588C81.5466 163.707 81.3171 163.695 81.0565 163.462ZM88.12 166.575C87.8594 166.343 87.975 165.505 88.4392 165.361C88.7293 165.271 88.9896 165.333 89.1905 165.562C89.4919 165.907 89.3109 166.522 88.8913 166.701C88.6101 166.82 88.3806 166.807 88.12 166.575ZM85.8317 161.818C85.5711 161.586 85.6867 160.749 86.1509 160.604C86.4409 160.514 86.7012 160.576 86.9022 160.806C87.2035 161.15 87.0226 161.765 86.6029 161.944C86.3218 162.064 86.0923 162.051 85.8317 161.818ZM83.3498 158.716C83.0892 158.483 83.2048 157.646 83.669 157.501C83.9591 157.411 84.2194 157.473 84.4203 157.703C84.7217 158.048 84.5407 158.663 84.1211 158.841C83.8399 158.961 83.6104 158.948 83.3498 158.716ZM89.6289 158.694C89.3682 158.461 89.4839 157.624 89.948 157.479C90.2381 157.389 90.4984 157.451 90.6993 157.681C91.0007 158.026 90.8197 158.641 90.4001 158.819C90.119 158.939 89.8895 158.926 89.6289 158.694ZM52.6626 160.721C53.6684 161.056 54.7102 160.377 55.1054 159.995C55.3788 159.771 55.9737 159.14 56.1652 158.411C56.3567 157.683 55.4521 156.433 54.9758 155.899C54.2726 155.412 52.6 154.595 51.5351 155.22C50.4703 155.844 50.3724 157.399 50.4566 158.099C50.6574 158.559 50.9838 159.459 51.4851 159.999C51.9698 160.522 52.1449 160.549 52.6626 160.721ZM46.4263 153.85C46.4862 153.622 46.6232 150.653 47.2828 149.368C47.8105 148.339 51.0961 147.303 52.673 146.914C53.1836 146.807 54.0976 146.451 53.6684 145.881C53.2391 145.311 51.7529 144.907 51.0634 144.776C49.8837 145.083 47.4022 145.793 46.9139 146.182C46.3035 146.668 44.0828 148.997 43.9139 150.251C43.7787 151.255 44.0472 153.212 44.1983 154.064C44.6684 155.03 45.772 156.339 46.4263 153.85Z" stroke="black" stroke-width="2" stroke-linejoin="round"/>
<path d="M160.517 213.793C145.004 185.867 124.038 148.11 120.502 143.422L119.224 141.376L78.9397 214.847M160.517 213.793C163.874 219.835 166.975 225.416 169.589 230.103C151.603 239.64 106.633 252.965 70.6481 229.969L78.9397 214.847M160.517 213.793C160.674 214.936 159.342 217.722 152.758 219.719C146.175 221.717 143.967 220.333 142.81 219.84C141.655 219.755 138.894 219.465 136.657 220.324C133.86 221.397 131.454 223.3 127.61 223.88C123.766 224.46 116.835 223.617 115.734 223.402C114.633 223.187 98.2614 222.75 78.9397 214.847M119.311 155.034C120.116 154.843 121.849 154.739 122.34 155.847C122.953 157.231 122.959 158.23 122.747 159.342C122.576 160.231 121.399 160.646 120.832 160.742C120.411 160.875 119.338 160.93 118.409 160.092C117.248 159.044 116.971 158.769 116.963 157.436C116.956 156.37 118.526 155.39 119.311 155.034ZM108.818 190.357C108.156 190.028 106.174 189.486 104.894 187.107C103.871 185.204 103.932 182.69 104.09 181.671C104.324 180.948 104.516 179.514 103.417 179.566C102.318 179.617 100.954 181.192 100.409 181.973C99.9582 183.067 99.1797 185.689 99.6745 187.418C100.169 189.147 102.908 191.747 104.216 192.83C105.322 193.896 108.151 196.091 110.615 196.342C113.695 196.655 114.724 194.261 113.233 193.215C111.742 192.17 109.151 190.91 108.818 190.357ZM124.149 172.435C125.033 173.096 127.787 173.966 129.136 178.621C130.215 182.345 127.568 185.664 126.11 186.858C124.725 188.014 121.259 189.832 118.476 187.851C115.693 185.871 113.223 182.944 112.336 181.729C111.945 180.861 111.819 178.345 114.438 175.219C117.056 172.093 119.397 171.374 120.24 171.406L124.149 172.435ZM135.23 186.133C136.544 185.325 137.868 186.115 138.366 186.612C138.774 187.349 139.316 189.037 138.222 189.888C137.128 190.739 135.496 190.48 134.816 190.244C134.171 189.674 133.078 188.334 133.865 187.529C134.651 186.725 135.102 186.263 135.23 186.133ZM123.95 218.796C125.006 217.827 126.575 215.082 124.4 211.853C122.225 208.625 119.443 207.351 118.324 207.118C117.628 207.16 116.204 207.476 116.078 208.41C115.952 209.343 116.7 211.163 117.09 211.956C117.257 212.196 117.93 212.684 119.294 212.719C120.657 212.755 121.045 214.429 121.069 215.262L120.977 218.038C121.202 218.851 122.111 220.141 123.95 218.796ZM135.372 199.845C136.688 199.281 141.622 197.251 144.942 200.782C147.599 203.608 148.094 206.647 148.01 207.813C148.108 208.831 148.152 211.088 147.542 211.981C146.78 213.096 144.437 216.387 140.643 216.245C137.609 216.131 134.903 215.338 133.929 214.956C132.801 213.353 130.664 209.669 131.135 207.757C131.607 205.844 132.008 203.883 132.15 203.142C132.365 202.437 133.311 200.791 135.372 199.845ZM140.816 208.804C140.487 208.917 139.825 208.4 139.931 207.921C139.997 207.622 140.18 207.425 140.477 207.363C140.923 207.27 141.361 207.734 141.307 208.19C141.27 208.496 141.145 208.691 140.816 208.804ZM140.617 203.42C140.288 203.533 139.625 203.016 139.732 202.537C139.798 202.238 139.98 202.041 140.278 201.979C140.724 201.885 141.162 202.349 141.107 202.806C141.071 203.112 140.946 203.307 140.617 203.42ZM136.14 208.224C135.811 208.337 135.149 207.82 135.255 207.341C135.321 207.042 135.504 206.844 135.801 206.782C136.247 206.689 136.686 207.153 136.631 207.61C136.594 207.916 136.469 208.111 136.14 208.224ZM145.28 210.718C144.951 210.831 144.289 210.314 144.395 209.836C144.462 209.536 144.644 209.339 144.941 209.277C145.387 209.184 145.826 209.648 145.771 210.104C145.734 210.41 145.609 210.605 145.28 210.718ZM138.039 212.986C137.71 213.099 137.048 212.582 137.154 212.104C137.22 211.804 137.403 211.607 137.7 211.545C138.146 211.452 138.585 211.916 138.53 212.372C138.493 212.678 138.368 212.873 138.039 212.986ZM120.275 185.564C119.946 185.677 119.284 185.16 119.39 184.681C119.456 184.382 119.639 184.185 119.936 184.123C120.382 184.029 120.82 184.493 120.766 184.95C120.729 185.256 120.604 185.451 120.275 185.564ZM126.456 180.916C126.127 181.029 125.465 180.512 125.571 180.033C125.638 179.734 125.82 179.536 126.117 179.474C126.563 179.381 127.002 179.845 126.947 180.302C126.91 180.608 126.785 180.802 126.456 180.916ZM121.232 180.561C120.903 180.674 120.241 180.157 120.347 179.678C120.414 179.379 120.596 179.182 120.893 179.12C121.339 179.026 121.778 179.49 121.723 179.947C121.686 180.253 121.561 180.448 121.232 180.561ZM117.334 181.197C117.005 181.31 116.342 180.793 116.449 180.314C116.515 180.015 116.697 179.818 116.995 179.756C117.441 179.662 117.879 180.126 117.825 180.583C117.788 180.889 117.663 181.084 117.334 181.197ZM120.432 175.68C120.103 175.793 119.44 175.276 119.547 174.798C119.613 174.498 119.795 174.301 120.093 174.239C120.539 174.146 120.977 174.61 120.922 175.066C120.886 175.372 120.761 175.567 120.432 175.68ZM103.825 209.1C104.612 208.385 104.545 207.134 104.413 206.598C104.356 206.247 104.109 205.412 103.578 204.882C103.047 204.353 101.524 204.526 100.828 204.678C100.061 205.053 98.5289 206.114 98.5368 207.358C98.5447 208.602 99.8327 209.459 100.476 209.733C100.971 209.785 101.906 209.946 102.62 209.774C103.31 209.609 103.42 209.469 103.825 209.1ZM94.8232 211.158C94.6573 210.992 92.1736 209.398 91.3963 208.182C90.7745 207.209 91.5151 203.813 91.9631 202.237C92.1248 201.737 92.2725 200.759 91.5695 200.852C90.8666 200.945 89.7816 202.048 89.3269 202.588C89.0047 203.774 88.3832 206.303 88.4751 206.924C88.59 207.7 89.4892 210.804 90.4835 211.574C91.279 212.191 93.0939 212.927 93.9019 213.218C94.965 213.285 96.6377 212.967 94.8232 211.158Z" stroke="black" stroke-width="2" stroke-linejoin="round"/>
<path d="M161.249 67.8697C145.129 95.443 123.33 132.715 121.092 138.158L119.982 140.301L203.113 138.599M161.249 67.8697C164.736 61.9039 167.958 56.3922 170.658 51.7551C187.855 62.6779 221.844 95.2685 220.224 138.248L203.113 138.599M161.249 67.8697C162.149 67.1586 165.204 66.9234 170.219 71.6711C175.235 76.4189 175.159 79.0428 175.318 80.3008C175.825 81.3522 176.963 83.9092 178.821 85.4324C181.144 87.3363 183.982 88.4826 186.409 91.549C188.836 94.6154 191.594 101.093 191.963 102.163C192.332 103.232 200.178 117.753 203.113 138.599M131.631 133.368C131.064 132.76 130.105 131.299 130.807 130.314C131.684 129.083 132.536 128.576 133.595 128.203C134.442 127.906 135.388 128.726 135.755 129.173C136.08 129.474 136.666 130.384 136.415 131.616C136.101 133.156 136.004 133.536 134.867 134.212C133.958 134.753 132.331 133.875 131.631 133.368ZM167.143 124.797C167.194 125.54 167.725 127.544 166.331 129.856C165.215 131.706 163.032 132.915 162.081 133.288C161.344 133.447 160.02 133.999 160.616 134.933C161.212 135.867 163.245 136.268 164.187 136.352C165.351 136.196 167.987 135.559 169.218 134.259C170.45 132.959 171.3 129.261 171.571 127.575C171.929 126.073 172.388 122.5 171.365 120.222C170.086 117.374 167.52 117.678 167.374 119.505C167.227 121.332 167.45 124.228 167.143 124.797ZM144.101 120.404C144.223 119.3 143.585 116.457 146.893 112.942C149.54 110.129 153.71 110.775 155.465 111.449C157.15 112.078 160.447 114.193 160.149 117.619C159.85 121.044 158.585 124.671 157.99 126.057C157.443 126.833 155.352 128.206 151.361 127.489C147.369 126.771 145.579 125.087 145.183 124.335L144.101 120.404ZM150.264 103.847C148.913 103.105 148.925 101.551 149.1 100.867C149.527 100.14 150.7 98.8193 151.978 99.3475C153.256 99.8757 153.853 101.432 153.992 102.144C153.828 102.993 153.23 104.621 152.146 104.338C151.062 104.055 150.44 103.893 150.264 103.847ZM183.894 97.299C182.534 96.8628 179.395 96.8707 177.724 100.392C176.052 103.913 176.358 106.983 176.72 108.077C177.106 108.664 178.091 109.749 178.954 109.39C179.816 109.031 180.999 107.464 181.482 106.725C181.604 106.46 181.683 105.626 181.029 104.417C180.375 103.209 181.613 102.029 182.314 101.59L184.738 100.277C185.321 99.6719 185.968 98.2297 183.894 97.299ZM161.933 96.8374C160.79 95.9712 156.574 92.681 157.93 88.0072C159.015 84.2681 161.369 82.309 162.41 81.7968C163.231 81.2004 165.142 80.0286 166.212 80.1134C167.55 80.2193 171.544 80.6132 173.327 83.9981C174.754 86.7061 175.434 89.4678 175.595 90.5102C174.789 92.3001 172.709 96.0173 170.834 96.5659C168.96 97.1146 167.079 97.7483 166.374 97.9965C165.662 98.1622 163.778 98.1623 161.933 96.8374ZM166.87 87.5837C167.132 87.8143 167.022 88.6523 166.559 88.8C166.269 88.8923 166.009 88.832 165.806 88.6035C165.503 88.2608 165.68 87.6446 166.098 87.4633C166.378 87.3417 166.608 87.3531 166.87 87.5837ZM162.36 90.4612C162.623 90.6918 162.512 91.5299 162.049 91.6775C161.76 91.7698 161.499 91.7096 161.297 91.481C160.993 91.1383 161.17 90.5221 161.588 90.3408C161.869 90.2192 162.098 90.2306 162.36 90.4612ZM168.721 91.9595C168.983 92.1901 168.873 93.0281 168.41 93.1758C168.12 93.2681 167.86 93.2078 167.657 92.9793C167.354 92.6366 167.531 92.0204 167.949 91.8391C168.229 91.7175 168.459 91.7289 168.721 91.9595ZM166.267 82.7228C166.529 82.9534 166.419 83.7914 165.956 83.9391C165.667 84.0313 165.406 83.9711 165.204 83.7426C164.9 83.3998 165.077 82.7837 165.495 82.6023C165.776 82.4808 166.005 82.4922 166.267 82.7228ZM171.845 87.9092C172.107 88.1399 171.997 88.9779 171.534 89.1255C171.244 89.2178 170.984 89.1576 170.781 88.9291C170.478 88.5863 170.654 87.9702 171.073 87.7888C171.353 87.6673 171.583 87.6786 171.845 87.9092ZM157.287 117.196C157.549 117.426 157.439 118.265 156.976 118.412C156.686 118.504 156.425 118.444 156.223 118.216C155.919 117.873 156.096 117.257 156.515 117.075C156.795 116.954 157.025 116.965 157.287 117.196ZM150.203 114.13C150.465 114.361 150.355 115.199 149.892 115.347C149.602 115.439 149.342 115.379 149.139 115.15C148.836 114.807 149.012 114.191 149.431 114.01C149.711 113.888 149.941 113.9 150.203 114.13ZM152.522 118.872C152.785 119.102 152.674 119.94 152.211 120.088C151.922 120.18 151.661 120.12 151.459 119.891C151.155 119.549 151.332 118.933 151.75 118.751C152.031 118.63 152.26 118.641 152.522 118.872ZM155.025 121.958C155.287 122.188 155.177 123.026 154.713 123.174C154.424 123.266 154.163 123.206 153.961 122.977C153.657 122.635 153.834 122.019 154.253 121.837C154.533 121.716 154.762 121.727 155.025 121.958ZM148.746 122.022C149.008 122.252 148.898 123.09 148.435 123.238C148.145 123.33 147.884 123.27 147.682 123.041C147.378 122.699 147.555 122.083 147.974 121.901C148.254 121.78 148.484 121.791 148.746 122.022ZM185.698 119.747C184.69 119.419 183.653 120.105 183.26 120.489C182.988 120.715 182.397 121.351 182.211 122.08C182.024 122.81 182.937 124.054 183.416 124.585C184.123 125.066 185.801 125.872 186.861 125.241C187.922 124.609 188.01 123.054 187.921 122.355C187.717 121.896 187.385 120.998 186.88 120.461C186.392 119.942 186.217 119.916 185.698 119.747ZM191.979 126.577C191.921 126.805 191.803 129.775 191.152 131.064C190.631 132.096 187.352 133.154 185.778 133.554C185.268 133.664 184.357 134.026 184.79 134.594C185.222 135.161 186.711 135.555 187.402 135.681C188.579 135.367 191.056 134.64 191.542 134.248C192.149 133.757 194.354 131.414 194.515 130.158C194.644 129.154 194.362 127.199 194.206 126.347C193.729 125.385 192.617 124.083 191.979 126.577Z" stroke="black" stroke-width="2" stroke-linejoin="round"/>
<path d="M78.1916 66.2339C93.7235 94.1493 114.714 131.892 118.254 136.577L119.532 138.622L159.768 65.1246M78.1916 66.2339C74.8311 60.1942 71.7262 54.6145 69.1088 49.9291C87.0892 40.3802 132.05 27.0252 168.05 49.9969L159.768 65.1246M78.1916 66.2339C78.0341 65.0905 79.3647 62.3033 85.9467 60.3018C92.5287 58.3002 94.7379 59.6826 95.8953 60.1745C97.0502 60.2587 99.8111 60.5466 102.048 59.6866C104.843 58.6117 107.249 56.7067 111.092 56.1239C114.936 55.5412 121.868 56.3798 122.968 56.594C124.069 56.8082 140.442 57.235 159.768 65.1246M119.436 124.965C118.632 125.156 116.899 125.261 116.408 124.154C115.793 122.77 115.786 121.771 115.998 120.659C116.168 119.77 117.345 119.354 117.912 119.257C118.333 119.125 119.406 119.069 120.335 119.906C121.497 120.953 121.774 121.228 121.783 122.561C121.791 123.627 120.222 124.608 119.436 124.965ZM129.907 89.6345C130.569 89.9628 132.551 90.5038 133.832 92.882C134.857 94.7846 134.798 97.2982 134.64 98.3173C134.407 99.0407 134.215 100.474 135.314 100.422C136.413 100.37 137.776 98.7944 138.321 98.0133C138.771 96.9181 139.548 94.2957 139.052 92.567C138.556 90.8383 135.815 88.2411 134.506 87.1586C133.4 86.0931 130.57 83.9 128.106 83.6512C125.025 83.3401 123.998 85.7349 125.489 86.7791C126.981 87.8233 129.573 89.0817 129.907 89.6345ZM114.587 107.566C113.703 106.907 110.948 106.038 109.596 101.384C108.515 97.6607 111.159 94.3401 112.617 93.1452C114.001 91.9879 117.466 90.1679 120.25 92.1466C123.034 94.1254 125.506 97.0503 126.394 98.2653C126.785 99.1324 126.913 101.648 124.296 104.776C121.68 107.904 119.34 108.624 118.497 108.593L114.587 107.566ZM103.497 93.8769C102.184 94.6858 100.859 93.8958 100.361 93.3997C99.9526 92.6623 99.4093 90.9747 100.503 90.1229C101.596 89.2712 103.229 89.5297 103.908 89.7654C104.553 90.3345 105.648 91.6739 104.862 92.4791C104.076 93.2842 103.625 93.7464 103.497 93.8769ZM114.756 61.2056C113.7 62.1755 112.132 64.922 114.31 68.1488C116.487 71.3756 119.27 72.6474 120.389 72.88C121.085 72.838 122.509 72.5206 122.634 71.5869C122.759 70.6533 122.01 68.8339 121.62 68.0409C121.453 67.8015 120.779 67.314 119.416 67.2794C118.052 67.2448 117.663 65.5708 117.639 64.7382L117.729 61.9615C117.504 61.1488 116.593 59.8599 114.756 61.2056ZM103.346 80.1644C102.031 80.729 97.098 82.7631 93.7751 79.2336C91.1169 76.4101 90.6191 73.3711 90.7026 72.2046C90.6038 71.1874 90.5586 68.9299 91.168 68.0372C91.9297 66.9213 94.2701 63.6288 98.0638 63.7682C101.099 63.8797 103.805 64.6708 104.779 65.0525C105.908 66.6545 108.048 70.3368 107.578 72.2501C107.107 74.1634 106.707 76.1243 106.566 76.8656C106.351 77.5704 105.406 79.2169 103.346 80.1644ZM97.8962 71.2091C98.2252 71.0957 98.8878 71.6123 98.7819 72.0911C98.7158 72.3904 98.5334 72.588 98.2362 72.6502C97.7903 72.7436 97.3513 72.28 97.4059 71.8234C97.4424 71.5174 97.5672 71.3225 97.8962 71.2091ZM98.099 76.5932C98.428 76.4798 99.0905 76.9963 98.9847 77.4751C98.9185 77.7744 98.7362 77.972 98.4389 78.0343C97.9931 78.1277 97.5541 77.664 97.6086 77.2074C97.6451 76.9015 97.77 76.7066 98.099 76.5932ZM102.572 71.7863C102.901 71.6729 103.564 72.1895 103.458 72.6683C103.392 72.9675 103.21 73.1651 102.912 73.2274C102.467 73.3208 102.028 72.8572 102.082 72.4006C102.119 72.0946 102.243 71.8997 102.572 71.7863ZM93.4305 69.2979C93.7595 69.1845 94.422 69.7011 94.3161 70.1799C94.25 70.4792 94.0676 70.6768 93.7704 70.739C93.3245 70.8324 92.8856 70.3688 92.9401 69.9122C92.9766 69.6062 93.1015 69.4113 93.4305 69.2979ZM100.67 67.0252C100.999 66.9118 101.662 67.4284 101.556 67.9072C101.49 68.2064 101.307 68.404 101.01 68.4663C100.564 68.5597 100.125 68.0961 100.18 67.6394C100.216 67.3335 100.341 67.1386 100.67 67.0252ZM118.453 94.4354C118.782 94.322 119.444 94.8386 119.338 95.3174C119.272 95.6167 119.09 95.8143 118.793 95.8765C118.347 95.9699 117.908 95.5063 117.962 95.0497C117.999 94.7437 118.124 94.5488 118.453 94.4354ZM112.274 99.0879C112.603 98.9745 113.266 99.4911 113.16 99.9699C113.094 100.269 112.911 100.467 112.614 100.529C112.168 100.622 111.729 100.159 111.784 99.7022C111.82 99.3962 111.945 99.2013 112.274 99.0879ZM117.498 99.4391C117.827 99.3257 118.49 99.8423 118.384 100.321C118.318 100.62 118.136 100.818 117.838 100.88C117.393 100.974 116.954 100.51 117.008 100.053C117.045 99.7474 117.169 99.5525 117.498 99.4391ZM121.397 98.8004C121.726 98.687 122.388 99.2036 122.282 99.6824C122.216 99.9817 122.034 100.179 121.737 100.242C121.291 100.335 120.852 99.8713 120.906 99.4147C120.943 99.1087 121.068 98.9138 121.397 98.8004ZM118.302 104.319C118.631 104.206 119.294 104.722 119.188 105.201C119.122 105.5 118.939 105.698 118.642 105.76C118.196 105.854 117.757 105.39 117.812 104.933C117.848 104.627 117.973 104.433 118.302 104.319ZM134.887 70.8879C134.101 71.6042 134.168 72.8548 134.3 73.3905C134.358 73.7417 134.605 74.5765 135.137 75.1057C135.668 75.6349 137.191 75.4611 137.887 75.308C138.653 74.9324 140.185 73.8702 140.176 72.6266C140.168 71.383 138.879 70.5261 138.236 70.2532C137.741 70.2012 136.805 70.0413 136.092 70.213C135.402 70.379 135.292 70.5192 134.887 70.8879ZM143.887 68.8246C144.053 68.99 146.538 70.5823 147.316 71.7981C147.939 72.7708 147.2 76.1666 146.753 77.7429C146.592 78.2437 146.445 79.2219 147.148 79.1281C147.851 79.0342 148.935 77.9308 149.389 77.3908C149.711 76.2041 150.331 73.6753 150.238 73.0541C150.123 72.2777 149.222 69.175 148.227 68.4048C147.431 67.7887 145.615 67.0541 144.807 66.7638C143.744 66.6974 142.072 67.0166 143.887 68.8246Z" stroke="black" stroke-width="2" stroke-linejoin="round"/>
</svg>
