<svg width="161" height="102" viewBox="0 0 161 102" fill="none" xmlns="http://www.w3.org/2000/svg">
<g id="&#208;&#162;&#208;&#176;&#209;&#128;&#208;&#181;&#208;&#187;&#208;&#186;&#208;&#176;">
<path id="Vector 67" d="M20.6355 79.9309C23.2752 59.569 33.6769 19.229 76.4205 17.9205M142.123 78.5122C138.817 58.064 131.267 18.1247 79.5197 18.1248C78.7523 18.1248 77.1683 17.8976 76.4205 17.9205M76.4205 17.9205C74.9329 14.0057 70.4288 12.6583 69.6023 11.6461C68.7759 10.634 67.8668 5.32843 71.6684 3.54681C75.4701 1.76518 75.7693 1.66112 78.4866 2.53374C80.9322 3.31908 81.3792 2.81932 83.0321 6.38257C85.0982 10.8366 79.5197 14.0755 78.28 14.8853C77.2883 15.5332 76.3516 17.0991 76.4205 17.9205ZM2.86685 84.6027C-16.7612 76.7068 183.445 74.6823 156.999 83.7929C130.553 92.9034 22.4949 92.4985 2.86685 84.6027Z" stroke="#CBD2D9" stroke-width="3" stroke-linecap="round"/>
</g>
</svg>
