<svg width="102" height="132" viewBox="0 0 102 132" fill="none" xmlns="http://www.w3.org/2000/svg">
<g id="&#208;&#159;&#208;&#190;&#208;&#178;&#208;&#176;&#209;&#128;">
<g id="Vector 11">
<path d="M19.915 66.6127C20.088 69.3078 20.3304 74.7572 19.915 74.9946C24.3903 78.2831 40.9069 84.7117 43.9481 82.8573C45.7133 81.781 46.5539 80.6296 46.2958 79.5194C46.1093 78.7168 45.3486 77.9357 43.9481 77.2199C36.8073 75.1483 23.0603 71.1213 21.5315 71.0633L21.4727 71.0687V74.9946L20.6567 74.5496L20.7309 71.1374L21.4727 71.0687V71.0633C21.4897 71.0624 21.5093 71.0624 21.5315 71.0633C23.0603 71.1213 36.8073 75.1483 43.9481 77.2199C45.3486 77.9357 46.1093 78.7168 46.2958 79.5194C46.5539 80.6296 45.7133 81.781 43.9481 82.8573C40.9069 84.7117 24.3903 78.2831 19.915 74.9946C20.3304 74.7572 20.088 69.3078 19.915 66.6127C19.507 66.2087 19.072 65.7268 18.656 65.2033C16.5257 62.5227 14.8919 58.75 19.915 58.75C20.4716 58.75 21.0368 57.9819 21.546 56.9698C22.5295 55.0145 23.3035 52.1483 23.4013 52.1483L22.5111 50.9615V45.4724V39.6125L21.5468 32.5657L19.7666 26.4091C19.3668 25.9718 18.5414 25.2415 17.3708 24.4805C16.225 23.7356 14.7484 22.9613 13.0166 22.4036C8.64016 20.9942 8.04675 15.9502 8.56599 12.909C8.96559 10.5685 11.6474 6.68275 14.5001 6.15897C18.3602 5.45021 23.6535 8.39909 23.4754 12.909C23.6072 12.3442 23.6367 11.8612 23.6186 11.4255C23.5656 10.1446 23.1024 9.27332 23.6238 7.9392C26.1458 1.48586 30.2255 1.26333 31.7832 1.26333C33.3409 1.26333 34.3794 4.60126 35.0469 5.63973C35.4176 6.21636 34.2136 9.06574 32.9627 11.648C32.4114 12.7861 31.851 13.8724 31.4123 14.6892L36.753 7.27161C39.3986 4.32928 45.5652 -0.90262 49.0663 1.70839C52.5674 4.31939 52.2559 8.33481 51.6624 10.0161C51.6624 10.0161 52.2559 12.5381 51.4399 14.3925C50.624 16.247 47.3602 18.4722 47.3602 18.4722C46.9373 19.0702 46.581 19.7564 46.283 20.5089C46.6163 17.4177 45.0745 17.5672 44.1706 18.1014C45.1505 17.3543 46.3823 16.5015 47.3097 16.0348L48.1762 15.4644L51.6624 10.0161C52.2559 8.33481 52.5674 4.31939 49.0663 1.70839C45.5652 -0.90262 39.3986 4.32928 36.753 7.27161L31.4123 14.6892C31.851 13.8724 32.4114 12.7861 32.9627 11.648C33.5586 8.65624 33.9491 2.5985 30.7447 2.3018C27.5403 2.00509 24.6588 8.26063 23.6186 11.4255C23.6367 11.8612 23.6072 12.3442 23.4754 12.909C15.049 4.00785 11.1127 8.75514 10.1979 12.2414C10.0742 12.5134 9.60446 16.247 10.1237 17.5821C10.6429 18.9173 13.0166 20.2525 13.0166 20.2525L17.3708 24.4805C18.5414 25.2415 19.3668 25.9718 19.7666 26.4091L21.5468 32.5657L22.5111 39.6125V45.4724L29.7804 45.3798C28.2969 45.3987 23.0304 32.1949 24.0688 31.5273C25.1073 30.8597 28.3958 40.1936 29.7804 45.3798L33.8972 45.3274L38.014 45.2749C38.014 45.2749 38.1165 43.8522 38.2456 41.8799C38.1928 38.0033 37.3541 33.7587 37.8656 30.8597C37.8656 30.8597 38.3107 29.5245 38.6816 30.1921C38.9359 30.65 38.5274 37.5743 38.2456 41.8799C38.2617 43.062 38.2047 44.2099 38.014 45.2749L33.8972 45.3274L29.7804 45.3798L22.5111 45.4724V50.9615L23.4013 52.1483C23.3035 52.1483 22.5295 55.0145 21.546 56.9698C21.0368 57.9819 20.4716 58.75 19.915 58.75C14.8919 58.75 16.5257 62.5227 18.656 65.2033C19.072 65.7268 19.507 66.2087 19.915 66.6127Z" fill="#000000"/>
<path d="M62.736 121.382C62.1378 120.717 61.6868 119.979 61.4537 119.5C61.8403 119.984 62.3528 120.696 62.736 121.382C63.2352 122.275 63.515 123.123 63.0114 123.358C61.8988 123.877 60.0444 125.435 58.7834 124.396C58.6682 124.301 58.5545 124.189 58.443 124.062C58.4797 124.527 58.3713 124.932 58.0416 125.212C56.8548 126.221 55.0251 126.621 54.2586 126.696C53.6405 126.696 52.4932 126.236 52.8493 124.396C52.9186 124.038 52.9753 123.69 53.0203 123.358C52.1302 123.358 49.8822 125.212 48.3245 122.838C47.5741 121.695 48.3987 120.391 49.363 119.871C50.3273 119.352 52.4784 119.5 52.8493 119.871C53.1624 120.184 53.264 121.555 53.0203 123.358C52.9753 123.69 52.9186 124.038 52.8493 124.396C52.4932 126.236 53.6405 126.696 54.2586 126.696C55.0251 126.621 56.8548 126.221 58.0416 125.212C58.3713 124.932 58.4797 124.527 58.443 124.062C57.5777 123.082 56.8428 121.267 56.5581 120.391C57.2723 121.248 58.3477 122.855 58.443 124.062C58.5545 124.189 58.6682 124.301 58.7834 124.396C60.0444 125.435 61.8988 123.877 63.0114 123.358C63.515 123.123 63.2352 122.275 62.736 121.382Z" fill="#000000"/>
<path d="M67.0911 126.696C66.5224 126.696 64.3466 126.992 60.1927 128.179C62.8136 127.814 68.8862 127.261 72.2093 127.966C70.6974 127.148 68.387 126.783 67.0911 126.696Z" fill="#000000"/>
<path d="M94.9204 98.8405C94.5056 98.6674 94.2806 98.3978 94.4622 97.9893C94.6855 97.4869 94.83 97.9821 94.9204 98.8405Z" fill="#000000"/>
<path d="M63.1272 111.165C63.0718 111.183 63.0329 111.193 63.0114 111.193C63.0397 111.175 63.0787 111.166 63.1272 111.165C64.6041 110.682 77.7994 103.943 84.4484 100.511C85.8577 100.289 88.9138 100.496 89.8633 103.107C91.0501 106.371 90.9759 108.3 89.8633 109.412C88.9732 110.303 83.0143 112.553 80.1462 113.566L68.8714 120.91V115.272C68.8714 114.354 64.0954 111.149 63.1272 111.165Z" fill="#000000"/>
<path d="M44.9124 90.7942C44.9124 90.1266 44.6899 88.5689 46.2958 88.1238C48.102 87.9013 48.7696 89.0881 48.8437 90.4975C48.9127 91.808 48.102 91.9379 47.5827 92.0552C45.2833 92.5744 44.9124 91.7613 44.9124 90.7942Z" fill="#000000"/>
<path d="M40.8327 57.8599C40.536 57.5632 40.8821 56.5247 41.1294 56.1538L41.5003 55.7088L42.1679 55.4862H42.8355L43.3547 55.8571L43.9481 56.5247V58.0082C43.6267 58.2308 42.8355 58.6907 42.2421 58.75C41.5003 58.8242 41.2036 58.2308 40.8327 57.8599Z" fill="#000000"/>
<path d="M1 116.682C6.2418 104.319 16.8589 79.3562 17.393 78.4067C18.0606 77.2199 19.3957 75.2913 19.915 74.9946M19.915 74.9946C20.3304 74.7572 20.088 69.3078 19.915 66.6127C19.507 66.2087 19.072 65.7268 18.656 65.2033M19.915 74.9946C24.3903 78.2831 40.9069 84.7117 43.9481 82.8573C45.7133 81.781 46.5539 80.6296 46.2958 79.5194M23.4013 52.1483L22.5111 50.9615V45.4724M23.4013 52.1483C23.4567 52.1483 26.8085 51.885 31.0414 51.885C35.8639 51.885 41.8522 52.1483 45.8025 52.1483M23.4013 52.1483C23.3035 52.1483 22.5295 55.0145 21.546 56.9698M45.8025 45.2749V44.9866V38.7966C44.8877 34.0493 43.9184 23.3382 47.3602 18.4722M47.3602 18.4722C50.802 13.6063 46.6679 16.1975 44.1706 18.1014M47.3602 18.4722C47.3602 18.4722 50.624 16.247 51.4399 14.3925C52.2559 12.5381 51.6624 10.0161 51.6624 10.0161M44.1706 18.1014C45.1748 17.5079 46.9664 17.3893 46.0992 21.6618M44.1706 18.1014L48.1762 15.4644L51.6624 10.0161M51.6624 10.0161C52.2559 8.33481 52.5674 4.31939 49.0663 1.70839C45.5652 -0.90262 39.3986 4.32928 36.753 7.27161L31.4123 14.6892C31.851 13.8724 32.4114 12.7861 32.9627 11.648M23.4754 12.909C23.6535 8.39909 18.3602 5.45021 14.5001 6.15897C11.6474 6.68275 8.96559 10.5685 8.56599 12.909C8.04675 15.9502 8.64016 20.9942 13.0166 22.4036C14.7484 22.9613 16.225 23.7356 17.3708 24.4805M23.4754 12.909C15.049 4.00785 11.1127 8.75514 10.1979 12.2414C10.0742 12.5134 9.60446 16.247 10.1237 17.5821C10.6429 18.9173 13.0166 20.2525 13.0166 20.2525L17.3708 24.4805M23.4754 12.909C23.6072 12.3442 23.6367 11.8612 23.6186 11.4255M22.5111 45.4724V39.6125L21.5468 32.5657L19.7666 26.4091C19.3668 25.9718 18.5414 25.2415 17.3708 24.4805M22.5111 45.4724L29.7804 45.3798M33.8972 45.3274C33.4818 43.5471 32.4508 39.2416 32.4508 30.6372M38.014 45.2749C38.8299 40.7171 37.1981 34.6427 37.8656 30.8597C37.8656 30.8597 38.3107 29.5245 38.6816 30.1921C39.0525 30.8597 38.014 45.2749 38.014 45.2749ZM38.014 45.2749L29.7804 45.3798M38.014 45.2749H45.3575M29.7804 45.3798C28.2969 45.3987 23.0304 32.1949 24.0688 31.5273C25.1073 30.8597 28.3958 40.1936 29.7804 45.3798ZM23.6186 11.4255C23.5656 10.1446 23.1024 9.27332 23.6238 7.9392C26.1458 1.48586 30.2255 1.26333 31.7832 1.26333C33.3409 1.26333 34.3794 4.60126 35.0469 5.63973C35.4176 6.21636 34.2136 9.06574 32.9627 11.648M23.6186 11.4255C24.6588 8.26063 27.5403 2.00509 30.7447 2.3018C33.9491 2.5985 33.5586 8.65624 32.9627 11.648M21.546 56.9698C21.0368 57.9819 20.4716 58.75 19.915 58.75C14.8919 58.75 16.5257 62.5227 18.656 65.2033M21.546 56.9698C21.6946 58.6264 22.4666 61.6725 24.3655 60.6044C26.2447 59.5276 30.181 56.3801 30.8931 52.4042M18.656 65.2033C20.064 65.979 20.9037 66.2381 22.5111 66.316M20.5826 100.66C26.8559 113.562 38.6451 120.247 45.0608 120.91L47.2119 115.272L51.5883 110.525C41.4741 106.553 37.4135 102.859 32.5991 94.0579M46.9893 53.5168C46.9893 53.5168 50.3226 55.7602 52.2559 57.4482C54.9201 59.7745 57.2257 61.3054 58.4125 64.0907C59.5993 66.876 54.6295 64.6433 51.7366 64.94C48.8437 65.2367 46.4701 63.4973 46.4701 63.4973M48.2503 66.6127C47.7756 66.7907 47.5827 72.506 45.0608 74.1045M52.4784 106.742C57.374 105.407 58.8081 103.305 58.7834 103.107M54.2586 102.588C56.3949 99.9772 56.6817 98.7805 56.5581 98.5085C58.5114 100.091 64.5395 103.048 73.0252 102.217M46.2958 79.5194C46.1093 78.7168 45.3486 77.9357 43.9481 77.2199C36.8073 75.1483 23.0603 71.1213 21.5315 71.0633M46.2958 79.5194C51.8924 84.1678 66.8389 93.5832 81.8522 94.0579C81.8522 97.6926 80.2203 99.2008 80.1462 99.547M54.9262 112.899C56.8548 113.838 61.3202 115.628 63.7532 115.272C66.7944 114.827 67.017 123.283 64.94 122.838C63.2785 122.482 61.9235 120.465 61.4537 119.5C62.3438 120.613 63.9015 122.942 63.0114 123.358C61.8988 123.877 60.0444 125.435 58.7834 124.396C57.7746 123.565 56.8795 121.38 56.5581 120.391C57.5471 121.577 59.2284 124.203 58.0416 125.212C56.8548 126.221 55.0251 126.621 54.2586 126.696C53.6405 126.696 52.4932 126.236 52.8493 124.396C53.2943 122.097 53.2201 120.242 52.8493 119.871C52.4784 119.5 50.3273 119.352 49.363 119.871C48.3987 120.391 47.5741 121.695 48.3245 122.838C49.8822 125.212 52.1302 123.358 53.0203 123.358M98.6903 101.772C100.619 103.478 99.2095 106.371 99.3578 106.742C99.5062 107.113 96.0827 107.855 95.0556 110.525C94.3138 112.454 99.7287 113.492 100.1 115.272C100.47 117.053 101.361 117.794 100.841 121.577C100.322 125.36 97.3566 123.981 94.3138 124.396C91.0501 124.841 86.3028 121.577 82.594 122.542C80.5839 123.064 79.5528 129.218 78.0692 130.033C76.5857 130.849 74.5088 131.369 73.5445 129.218C73.3194 128.715 72.8321 128.302 72.2093 127.966M72.2093 127.966C70.6974 127.148 68.387 126.783 67.0911 126.696C66.5224 126.696 64.3466 126.992 60.1927 128.179C62.8136 127.814 68.8862 127.261 72.2093 127.966ZM86.2286 94.6513C89.0177 95.9568 91.1984 94.7997 91.9402 94.0579C92.2864 93.5634 93.3941 92.6634 95.0556 93.0195C97.1325 93.4645 98.6903 95.6898 98.6903 96.2832C98.6903 96.758 97.899 98.3602 97.5034 99.1019C96.2919 99.1761 93.9875 99.0574 94.4622 97.9893C94.9369 96.9211 95.0556 100.363 95.0556 102.217C94.7095 102.811 93.8094 103.82 92.9787 103.107C92.1479 102.395 91.3468 101.08 91.0501 100.511M21.5315 71.0633C21.5093 71.0624 21.4897 71.0624 21.4727 71.0633V74.9946L20.6567 74.5496L20.7309 71.1374L21.5315 71.0633ZM42.8355 55.4862L43.3547 55.8571L43.9481 56.5247V58.0082C43.6267 58.2308 42.8355 58.6907 42.242 58.75C41.5003 58.8242 41.2036 58.2308 40.8327 57.8599C40.536 57.5632 40.8822 56.5247 41.1294 56.1538L41.5003 55.7088M42.8355 55.4862H42.1679L41.5003 55.7088M42.8355 55.4862C42.5635 55.6821 41.797 55.7955 41.5003 55.7088M45.9509 51.885L45.8025 45.6542M63.0114 111.193C63.6048 111.193 77.55 104.072 84.4484 100.511C85.8577 100.289 88.9138 100.496 89.8633 103.107C91.0501 106.371 90.9759 108.3 89.8633 109.412C88.9731 110.303 83.0143 112.553 80.1462 113.566L68.8714 120.91C68.8714 119.352 68.8714 116.044 68.8714 115.272C68.8714 114.308 63.6048 110.822 63.0114 111.193ZM46.2958 88.1238C44.6899 88.5689 44.9124 90.1266 44.9124 90.7942C44.9124 91.7613 45.2833 92.5744 47.5827 92.0552C48.102 91.9379 48.9127 91.808 48.8437 90.4975C48.7696 89.0881 48.102 87.9013 46.2958 88.1238Z" stroke="#000000" stroke-width="2" stroke-linecap="round" stroke-linejoin="round"/>
</g>
</g>
</svg>
