<svg width="102" height="125" viewBox="0 0 102 125" fill="none" xmlns="http://www.w3.org/2000/svg">
<g id="Vector">
<path d="M20.8335 73.7453C17.5516 71.4732 11.7452 71.7257 10.9879 71.7257L14.0173 60.1128L18.309 62.6373C22.4324 63.9837 30.8811 66.7272 31.6889 66.9291C32.6988 67.1816 40.5248 64.6571 43.3017 65.162C46.0787 65.6669 44.564 66.6767 44.0591 67.1816C43.5542 67.6865 40.5248 67.9389 39.2625 69.2012C38.2527 70.211 38.6735 70.8 39.515 71.2208C44.564 72.3989 54.7631 74.9571 55.167 75.7649C55.6719 76.7747 54.1572 76.7747 53.9047 76.7747C53.6523 76.7747 45.3214 75.7649 44.564 76.2698C43.9581 76.6738 44.4799 76.943 44.8165 77.0272C47.341 77.3638 52.2413 78.779 54.1572 80.0565C55.6719 81.0664 53.1474 81.3186 52.6425 81.0661C52.1376 80.8137 49.8655 80.3089 48.3508 79.804C47.6734 79.5782 43.8066 79.2993 43.8066 79.8042C43.8066 80.2081 44.1432 80.814 44.3116 81.0664C45.1531 81.403 47.038 82.1772 47.8459 82.5811C48.8557 83.0861 52.8949 84.6006 53.1474 85.6104C53.3493 86.4183 52.0534 86.2836 51.3802 86.1153C49.613 85.358 45.6748 84.3483 44.0591 83.3385C42.0395 82.0762 41.2821 82.5811 41.2821 83.0861C41.2821 83.49 41.6187 84.0957 41.787 84.3482C42.1236 84.6006 43.0998 85.459 44.3116 86.8727C45.8263 88.6399 45.0689 88.6398 45.0689 88.6398C44.8904 89.1754 38.5052 84.6006 34.4659 80.5614C26.8755 72.971 24.1154 76.0174 20.8335 73.7453Z" fill="#000000"/>
<path d="M56.9341 113.633C54.9145 114.845 49.1081 115.4 50.8753 114.138C52.6424 112.875 54.6587 112.451 53.9047 111.108C53.5566 110.488 52.39 110.098 52.39 110.098C48.0983 109.762 39.4139 109.038 39.01 108.836C38.6061 108.634 37.4953 108.331 38.7576 108.079L48.0983 107.069C48.0983 107.069 49.041 106.694 48.8557 106.059C48.6453 105.338 47.0885 104.797 47.0885 104.797C44.3116 104.124 38.0507 103.131 37.2429 102.525C36.435 101.919 36.2331 101.263 37.7478 101.263L48.3508 101.894L47.341 101.01L38.2527 97.7283C38.2527 97.7283 37.2735 97.463 37.2429 96.971C37.2072 96.3972 38.5052 96.466 38.5052 96.466L48.6032 97.4759C50.3704 97.4759 50.0675 96.0621 48.8557 95.4562C47.341 94.6988 44.2705 92.6799 45.0688 92.6792C45.3214 92.679 46.9694 93.1245 48.0983 93.689C49.613 94.4465 57.6914 98.4856 64.5076 101.263C69.9606 103.484 78.8974 102.188 82.6842 101.263L84.4513 104.544L83.4415 109.846C82.011 111.529 79.0489 114.643 78.645 113.633C78.14 112.37 67.7895 111.108 63.4978 111.108C59.2061 111.108 59.4586 112.118 56.9341 113.633Z" fill="#000000"/>
<path d="M62.4882 28.5563C63.7504 28.8088 70.8191 29.3137 73.3436 26.2843M62.4882 28.5563C62.1438 28.4874 61.198 28.2682 59.9636 27.9909M62.4882 28.5563C58.4921 27.799 50.3731 26.2843 49.8656 26.2843C48.2499 26.4862 44.3116 23.339 42.5445 21.7401C38.9089 14.4632 38.6667 12.644 39 12.644C39.6667 10.8106 40.9 6.74395 40.5 5.14395C40.3708 4.62697 40.2415 3.80932 40 3.03641M73.3436 26.2843C75.3632 23.8607 80.7489 12.4836 83.1893 7.09792C83.5259 6.67716 84.3505 5.73467 84.9564 5.33074C85.7138 4.82584 88.4908 5.5832 90.0055 5.83565C90.8984 5.98447 91.4806 5.77687 91.7925 5.55631M73.3436 26.2843C73 30 62.436 31.5196 58 31.3333C55.8449 31.2428 40.2723 29.3137 39.515 28.5563C36.303 26.7387 34.8333 23.4281 34.5 22L35.5 11.5C35.6667 10.5 36.3 8 37.5 6C38.7 4 39.6667 3.19094 40 3.03641M91.7925 5.55631C91.9039 5.47756 91.9808 5.39716 92.0251 5.33074M91.7925 5.55631C91.8888 5.43765 91.9671 5.36074 92.0251 5.33074M91.7925 5.55631C90.889 6.67044 88.4051 11.4658 86.3051 15.6813C85.5134 17.2703 84.7763 18.777 84.199 19.973C83.2733 22.3292 81.3715 27.3446 81.1695 28.5563C80.9171 30.071 82.1795 33.3529 83.1893 35.1201M92.0251 5.33074C92.7824 4.99415 94.3981 4.87635 94.802 7.09792C95.307 9.87488 93.0349 21.4877 92.53 22.245C92.0251 23.0024 93.5398 31.0808 93.7922 32.0907C93.8651 32.3821 93.9839 33.2516 94.1179 34.3627L94.1184 34.3661M65.0127 122.973C65.0127 123.731 73.5961 124.236 75.6157 122.973C77.2314 121.964 79.9915 120.701 81.1696 120.196C82.4319 119.018 86.2187 116.561 91.2677 116.157C97.579 115.652 97.579 111.613 99.5986 111.108C101.618 110.603 100.861 103.03 100.861 101.515V80.309C100.861 78.2894 100.019 70.8841 99.5986 67.4339C99.0937 63.3947 97.983 55.2153 97.579 54.8113C97.1751 54.4074 95.5594 45.2182 94.802 40.674C94.6408 39.0611 94.3558 36.3351 94.1184 34.3661M65.0127 122.973C65.0127 122.216 59.4588 120.196 56.9342 120.196C54.4097 120.196 45.5739 117.672 40.5249 118.934C36.4856 119.944 28.0706 115.821 24.3679 113.633C22.4325 112.539 18.2586 110.3 17.0468 110.098C15.8351 109.896 11.9978 109.004 10.2306 108.584L4.67667 106.564C3.16196 105.554 0.334494 102.323 1.14234 97.4757C1.7314 94.1939 3.56588 87.0747 6.19138 84.8531C7.14939 84.0425 7.91245 82.9608 8.50755 81.8237M65.0127 122.973C66.6957 122.468 70.6171 121.206 72.8386 120.196C75.6156 118.934 80.1597 114.39 83.1893 111.108C86.2188 107.826 83.1893 99.2429 83.1893 98.738C83.1893 98.2331 80.1597 91.9218 80.1597 89.9022C79.6319 88.3804 79.9398 80.5164 80.1597 76.7747V63.8996C80.1597 62.082 80.8329 55.9053 81.1695 53.0442C81.8428 49.9306 83.1893 43.35 83.1893 41.9363V35.1201M83.1893 35.1201C83.6052 35.8481 84.2355 36.4476 84.9564 36.8656C85.9854 37.4622 87.199 37.689 88.2382 37.3922C90.0035 36.8878 94.2352 35.3759 94.1184 34.3661M87.2284 111.108C88.4907 110.687 90.8637 108.836 90.2578 104.797C89.6519 100.758 88.4907 92.5108 87.9857 88.8924V76.0173L87.2284 54.8113M74.3533 51.5295C73.8484 53.0442 65.0126 76.5222 62.993 76.5222M8.50755 81.8237C9.54335 79.8446 10.0703 77.698 10.2306 76.5222C10.3148 74.2502 10.6345 69.2516 11.2404 67.4339L15.0272 56.0736L18.3091 45.4706L21.8434 31.3333L25.6302 21.7401L28.6596 13.4092L32.5 5.64395C37.6906 -1.02964 39.3072 0.819249 40 3.03641M8.50755 81.8237C8.50755 81.8237 8.50755 90.5186 13 96.4661M48.3508 101.894L47.341 101.01L38.2527 97.7283C38.2527 97.7283 37.2735 97.4629 37.2429 96.971C37.2072 96.3972 38.5052 96.466 38.5052 96.466L48.6032 97.4759C50.3704 97.4759 50.0675 96.0621 48.8557 95.4562C47.341 94.6988 44.2705 92.6799 45.0688 92.6792C45.3214 92.679 46.9694 93.1245 48.0983 93.689C49.613 94.4465 57.6914 98.4856 64.5076 101.263C69.9606 103.484 78.8974 102.188 82.6842 101.263L84.4513 104.544L83.4415 109.846C82.011 111.529 79.0489 114.643 78.645 113.633C78.14 112.37 67.7895 111.108 63.4978 111.108C59.2061 111.108 59.4586 112.118 56.9341 113.633C54.9145 114.845 49.1081 115.4 50.8753 114.138C52.6424 112.875 54.6587 112.451 53.9047 111.108C53.5566 110.488 52.39 110.098 52.39 110.098C48.0983 109.762 39.4139 109.038 39.01 108.836C38.6061 108.634 37.4953 108.331 38.7576 108.079L48.0983 107.069M48.3508 101.894L48.8557 103.03M48.3508 101.894L37.7478 101.263C36.2331 101.263 36.435 101.919 37.2429 102.525C38.0507 103.131 44.3116 104.124 47.0885 104.797C47.0885 104.797 48.6453 105.338 48.8557 106.059C49.041 106.694 48.0983 107.069 48.0983 107.069M48.0983 107.069L47.3409 108.079M10.9879 71.7257C11.7452 71.7257 17.5516 71.4732 20.8335 73.7453C24.1154 76.0174 26.8755 72.971 34.4659 80.5614C38.5052 84.6006 44.8904 89.1754 45.0689 88.6398C45.0689 88.6398 45.8263 88.6399 44.3116 86.8727C43.0998 85.459 42.1236 84.6006 41.787 84.3482C41.6187 84.0957 41.2821 83.49 41.2821 83.0861C41.2821 82.5811 42.0395 82.0762 44.0591 83.3385C45.6748 84.3483 49.613 85.358 51.3802 86.1153C52.0534 86.2836 53.3493 86.4183 53.1474 85.6104C52.8949 84.6006 48.8557 83.0861 47.8459 82.5811C47.038 82.1772 45.1531 81.403 44.3116 81.0664C44.1432 80.814 43.8066 80.2081 43.8066 79.8042C43.8066 79.2993 47.6734 79.5782 48.3508 79.804C49.8655 80.3089 52.1376 80.8137 52.6425 81.0661C53.1474 81.3186 55.6719 81.0664 54.1572 80.0565C52.2413 78.779 47.341 77.3638 44.8165 77.0272C44.4799 76.943 43.9581 76.6738 44.564 76.2698C45.3214 75.7649 53.6523 76.7747 53.9047 76.7747C54.1572 76.7747 55.6719 76.7747 55.167 75.7649C54.7631 74.9571 44.564 72.3989 39.515 71.2208C38.6735 70.8 38.2527 70.211 39.2625 69.2012C40.5248 67.9389 43.5542 67.6865 44.0591 67.1816C44.564 66.6767 46.0787 65.6669 43.3017 65.162C40.5248 64.6571 32.6988 67.1816 31.6889 66.9291C30.8811 66.7272 22.4324 63.9837 18.309 62.6373L14.0173 60.1128L10.9879 71.7257Z" stroke="#000000" stroke-width="2" stroke-linecap="round" stroke-linejoin="round"/>
</g>
</svg>
