<svg width="24" height="24" viewBox="0 0 24 24" fill="none" xmlns="http://www.w3.org/2000/svg">
<g id="Telegram">
<path id="path13" d="M3.24166 12.047C4.8785 11.1625 6.70567 10.4242 8.41287 9.68222C11.3499 8.46686 14.2987 7.27256 17.2772 6.16069C17.8567 5.97125 18.8979 5.78601 19 6.6285C18.9441 7.82107 18.7141 9.00667 18.5564 10.1923C18.156 12.7995 17.6932 15.3978 17.2419 17.9964C17.0864 18.8621 15.9811 19.3101 15.2739 18.7562C13.5743 17.6299 11.8616 16.5146 10.1837 15.3622C9.63402 14.8143 10.1437 14.0274 10.6346 13.6362C12.0345 12.2828 13.519 11.1329 14.8457 9.70952C15.2036 8.86172 14.1462 9.57621 13.7974 9.79516C11.881 11.0908 10.0115 12.4655 7.99097 13.6041C6.95889 14.1615 5.75599 13.6852 4.72439 13.3742C3.79944 12.9985 2.44412 12.6198 3.24166 12.047Z" fill="#FFE9DE"/>
</g>
</svg>
