<svg width="24" height="24" viewBox="0 0 24 24" fill="none" xmlns="http://www.w3.org/2000/svg">
<g id="pie_chart_fill">
<path id="Subtract" fill-rule="evenodd" clip-rule="evenodd" d="M17.9063 17.2311C18.2989 17.6799 18.9991 17.6892 19.3438 17.2027C19.9559 16.3386 20.4143 15.3684 20.6921 14.334C21.0118 13.1437 21.0819 11.9069 20.9057 10.6999C20.8196 10.1099 20.1916 9.8002 19.638 10.0217L14.9934 11.8795C14.3532 12.1356 14.1581 12.9475 14.6122 13.4665L17.9063 17.2311ZM19.3455 6.79925C19.69 7.28591 19.4488 7.94325 18.8952 8.1647L14.3715 9.97418C13.7146 10.2369 13.0001 9.75317 13.0001 9.0457V4.17352C13.0001 3.57724 13.5208 3.10915 14.1006 3.24833C15.1932 3.51058 16.2332 3.97657 17.1636 4.62837C18.0151 5.22478 18.7516 5.9605 19.3455 6.79925Z" fill="black"/>
<path id="Subtract_2" fill-rule="evenodd" clip-rule="evenodd" d="M11.0001 3.15568C11.0001 2.56386 10.4871 2.09743 9.9084 2.22122C8.99708 2.41615 8.11408 2.73824 7.2861 3.18081C5.83577 3.95602 4.59901 5.07696 3.68537 6.44432C2.77173 7.81168 2.20941 9.38326 2.04822 11.0198C1.88703 12.6564 2.13194 14.3075 2.76127 15.8269C3.39059 17.3462 4.38491 18.6869 5.65613 19.7301C6.92735 20.7734 8.43625 21.487 10.0492 21.8079C11.6621 22.1287 13.3292 22.0468 14.9029 21.5694C15.5874 21.3618 16.245 21.0821 16.8653 20.7367C17.3824 20.4487 17.4613 19.7599 17.0715 19.3145L11.2846 12.7009C11.1012 12.4913 11.0001 12.2222 11.0001 11.9436V3.15568Z" fill="black"/>
</g>
</svg>
