<svg width="24" height="24" viewBox="0 0 24 24" fill="none" xmlns="http://www.w3.org/2000/svg">
<g id="Viber">
<path id="Vector" d="M19.7435 3.95076C19.2194 3.49217 17.1015 2.03416 12.3841 2.01436C12.3841 2.01436 6.82099 1.69622 4.10907 4.05521C2.59945 5.48711 2.0684 7.58228 2.01238 10.1799C1.95636 12.7775 1.88389 17.6455 6.83206 18.9654H6.83681L6.83365 20.9796C6.83365 20.9796 6.802 21.795 7.36818 21.9613C8.05305 22.163 8.45498 21.5432 9.10883 20.8751C9.46771 20.5084 9.96332 19.9697 10.3368 19.5579C13.7209 19.828 16.3236 19.2106 16.6192 19.1194C17.3025 18.9093 21.169 18.4396 21.7978 13.5719C22.4469 8.55469 21.4839 5.38116 19.7435 3.95076ZM20.317 13.212C19.7862 17.2763 16.6502 17.5317 16.072 17.7076C15.8261 17.7826 13.5402 18.322 10.6656 18.144C10.6656 18.144 8.52365 20.5945 7.85461 21.2317C7.75017 21.3313 7.62738 21.3715 7.54541 21.3517C7.43021 21.325 7.39856 21.1957 7.39983 21.0066C7.40173 20.7365 7.41819 17.6596 7.41819 17.6596C3.23241 16.5575 3.47642 12.4143 3.52389 10.2447C3.57136 8.07509 4.00115 6.29775 5.27783 5.10235C7.57168 3.13202 12.2971 3.42645 12.2971 3.42645C16.2876 3.44295 18.1997 4.58253 18.6431 4.96429C20.1154 6.15969 20.8654 9.02018 20.317 13.2108V13.212Z" fill="black"/>
<path id="Vector_2" d="M12.7844 13.4552C12.7844 13.4552 13.1594 13.4852 13.3613 13.2493L13.755 12.7796C13.9449 12.5467 14.4032 12.3982 14.8519 12.6353C15.1882 12.8171 15.5147 13.0149 15.8302 13.2277C16.128 13.4354 16.7378 13.918 16.7397 13.918C17.0303 14.1506 17.0974 14.4921 16.8996 14.8523C16.8996 14.8544 16.898 14.858 16.898 14.8598C16.6801 15.2179 16.4035 15.5409 16.0786 15.8166C16.0748 15.8184 16.0748 15.8202 16.0713 15.822C15.789 16.0457 15.5117 16.1728 15.2393 16.2035C15.1992 16.2101 15.1584 16.2125 15.1178 16.2107C14.9977 16.2118 14.8782 16.1943 14.7639 16.159L14.7551 16.1467C14.3354 16.0345 13.6347 15.7536 12.4679 15.1431C11.7926 14.794 11.1498 14.3913 10.5462 13.9393C10.2437 13.7129 9.9551 13.4702 9.6819 13.2124L9.65279 13.1848L9.62367 13.1572L9.59455 13.1293C9.58474 13.1203 9.57525 13.111 9.56544 13.1017C9.29361 12.8426 9.03768 12.5689 8.79892 12.282C8.32236 11.7097 7.89771 11.1002 7.52952 10.4599C6.88579 9.35309 6.58957 8.68921 6.47121 8.29064L6.45823 8.28224C6.42113 8.17391 6.40285 8.06059 6.40411 7.9467C6.4019 7.90814 6.40434 7.86948 6.41139 7.83145C6.44536 7.57374 6.57965 7.31063 6.81427 7.04212C6.81617 7.03882 6.81807 7.03882 6.81997 7.03522C7.11059 6.72708 7.45118 6.46488 7.82891 6.25849C7.83081 6.25849 7.8346 6.25669 7.83682 6.25669C8.2166 6.06911 8.57675 6.13274 8.82171 6.40675C8.82361 6.40856 9.33156 6.9869 9.54961 7.26932C9.77407 7.56876 9.98258 7.87868 10.1743 8.1979C10.4244 8.62318 10.2677 9.05866 10.0221 9.23814L9.52683 9.61149C9.27681 9.80297 9.30972 10.1586 9.30972 10.1586C9.30972 10.1586 10.0433 12.7916 12.7844 13.4552Z" fill="black"/>
<path id="Vector_3" d="M14.4284 10.2303C14.3765 9.23813 13.845 8.71701 12.834 8.66699" stroke="black" stroke-width="0.833386" stroke-linecap="round" stroke-linejoin="round"/>
<path id="Vector_4" d="M16.202 10.3568C16.2231 9.4324 15.9343 8.66008 15.3358 8.03982C14.7345 7.41736 13.9021 7.07462 12.834 7.00049" stroke="black" stroke-width="0.833386" stroke-linecap="round" stroke-linejoin="round"/>
<path id="Vector_5" d="M18.0736 10.5221C18.0608 8.91799 17.5553 7.65467 16.5574 6.73208C15.5594 5.8095 14.3183 5.3433 12.834 5.3335" stroke="black" stroke-width="0.833386" stroke-linecap="round" stroke-linejoin="round"/>
</g>
</svg>
